SplineFontDB: 3.2
FontName: NotoSerifDivesAkuru-Regular
FullName: Noto Serif Dives Akuru Regular
FamilyName: Noto Serif Dives Akuru
Weight: Book
Copyright: Copyright 2022 Google Inc. All Rights Reserved.
Version: 1.000
ItalicAngle: 0
UnderlinePosition: -125
UnderlineWidth: 50
Ascent: 800
Descent: 200
InvalidEm: 0
sfntRevision: 0x00010000
LayerCount: 2
Layer: 0 1 "+BBcEMAQ0BD0EOAQ5 +BD8EOwQwBD0A" 1
Layer: 1 1 "+BB8ENQRABDUENAQ9BDgEOQAA +BD8EOwQwBD0A" 0
XUID: [1021 465 1806557349 29724]
StyleMap: 0x0040
FSType: 0
OS2Version: 4
OS2_WeightWidthSlopeOnly: 0
OS2_UseTypoMetrics: 0
CreationTime: 1643372075
ModificationTime: 1643968588
PfmFamily: 81
TTFWeight: 400
TTFWidth: 5
LineGap: 0
VLineGap: 0
Panose: 0 0 0 0 0 0 0 0 0 0
OS2TypoAscent: 1069
OS2TypoAOffset: 0
OS2TypoDescent: -293
OS2TypoDOffset: 0
OS2TypoLinegap: 0
OS2WinAscent: 1069
OS2WinAOffset: 0
OS2WinDescent: 293
OS2WinDOffset: 0
HheadAscent: 1069
HheadAOffset: 0
HheadDescent: -293
HheadDOffset: 0
OS2SubXSize: 650
OS2SubYSize: 600
OS2SubXOff: 0
OS2SubYOff: 75
OS2SupXSize: 650
OS2SupYSize: 600
OS2SupXOff: 0
OS2SupYOff: 350
OS2StrikeYSize: 50
OS2StrikeYPos: 322
OS2CapHeight: 714
OS2XHeight: 536
OS2Vendor: 'NONE'
OS2CodePages: 00000001.00000000
OS2UnicodeRanges: 00000001.02002000.00000000.00000000
Lookup: 4 0 1 "'rlig' Required Ligatures in 'diak' lookup 0" { "'rlig' Required Ligatures in 'diak' lookup 0 subtable"  } ['rlig' ('diak' <'dflt' > ) ]
Lookup: 4 0 0 "'psts' Post Base Substitutions in 'diak' lookup 1" { "'psts' Post Base Substitutions in 'diak' lookup 1 subtable"  } ['psts' ('diak' <'dflt' > ) ]
Lookup: 4 0 0 "'psts' Post Base Substitutions in 'diak' lookup 2" { "'psts' Post Base Substitutions in 'diak' lookup 2 subtable"  } ['psts' ('diak' <'dflt' > ) ]
Lookup: 4 0 0 "'psts' Post Base Substitutions in 'diak' lookup 3" { "'psts' Post Base Substitutions in 'diak' lookup 3 subtable"  } ['psts' ('diak' <'dflt' > ) ]

StartChar: .notdef
Encoding: 1114112 -1 0
Width: 500
Flags: W
HStem: -293 50<100 400> 1019 50<100 400>
VStem: 50 50<-243 1019> 400 50<-243 1019>
LayerCount: 2
Fore
SplineSet
50 -293 m 1,0,-1
 50 1069 l 1,1,-1
 450 1069 l 1,2,-1
 450 -293 l 1,3,-1
 50 -293 l 1,0,-1
100 -243 m 1,4,-1
 400 -243 l 1,5,-1
 400 1019 l 1,6,-1
 100 1019 l 1,7,-1
 100 -243 l 1,4,-1
EndSplineSet
EndChar

StartChar: u11900
Encoding: 71936 71936 2
Width: 931
GlyphClass: 2
Flags: W
HStem: -210 53<656.187 746.463> -17 51<338.788 409.49> 130 39<673 722.25> 407 52<483.426 701.029> 602 57<187.273 281.299>
VStem: 43 66<248.964 339.613> 115 57<498.287 587.716> 266 58<46.4586 162> 294 59<496.908 587.649> 418 60<41.7698 128.297> 547 65<-91.2869 192.45> 765 76<-139.045 -17.623 205.887 343.75> 777 79<-114.67 74.0414>
AnchorPoint: "+BBEENQQ3BEsEPARPBD0EPQQ+BDUA--3" 466 -202 basechar 0
AnchorPoint: "+BBEENQQ3BEsEPARPBD0EPQQ+BDUA--2" 252 607 basechar 0
AnchorPoint: "+BBEENQQ3BEsEPARPBD0EPQQ+BDUA--1" 707 366 basechar 0
AnchorPoint: "+BBEENQQ3BEsEPARPBD0EPQQ+BDUA--0" 576 590 basechar 0
LayerCount: 2
Fore
SplineSet
698 -210 m 256,0,1
 652 -210 652 -210 618 -175.5 c 128,-1,2
 584 -141 584 -141 565.5 -81.5 c 128,-1,3
 547 -22 547 -22 547 51 c 0,4,5
 547 131 547 131 570 196 c 128,-1,6
 593 261 593 261 630.5 307.5 c 128,-1,7
 668 354 668 354 711 380 c 1,8,9
 691 392 691 392 662 399.5 c 128,-1,10
 633 407 633 407 593 407 c 0,11,12
 536 407 536 407 483 385 c 128,-1,13
 430 363 430 363 391 320.5 c 128,-1,14
 352 278 352 278 335 216 c 1,15,16
 401 202 401 202 439.5 164.5 c 128,-1,17
 478 127 478 127 478 77 c 0,18,19
 478 31 478 31 448 7 c 128,-1,20
 418 -17 418 -17 376 -17 c 0,21,22
 321 -17 321 -17 293.5 22 c 128,-1,23
 266 61 266 61 266 131 c 0,24,25
 266 151 266 151 268 171 c 1,26,-1
 262 171 l 2,27,28
 221 174 221 174 182 178.5 c 128,-1,29
 143 183 143 183 111.5 193.5 c 128,-1,30
 80 204 80 204 61.5 226 c 128,-1,31
 43 248 43 248 43 285 c 0,32,33
 43 329 43 329 69.5 356.5 c 128,-1,34
 96 384 96 384 134.5 401.5 c 128,-1,35
 173 419 173 419 210 434 c 1,36,37
 167 440 167 440 141 468.5 c 128,-1,38
 115 497 115 497 115 546 c 0,39,40
 115 597 115 597 147.5 628 c 128,-1,41
 180 659 180 659 236 659 c 0,42,43
 278 659 278 659 303.5 642.5 c 128,-1,44
 329 626 329 626 341 599 c 128,-1,45
 353 572 353 572 353 542 c 0,46,47
 353 502 353 502 335.5 475.5 c 128,-1,48
 318 449 318 449 290 430.5 c 128,-1,49
 262 412 262 412 231 397.5 c 128,-1,50
 200 383 200 383 172 368.5 c 128,-1,51
 144 354 144 354 126.5 335.5 c 128,-1,52
 109 317 109 317 109 289 c 0,53,54
 109 251 109 251 152.5 240 c 128,-1,55
 196 229 196 229 278 224 c 1,56,57
 297 296 297 296 344.5 349 c 128,-1,58
 392 402 392 402 458.5 430.5 c 128,-1,59
 525 459 525 459 603 459 c 0,60,61
 683 459 683 459 736 431.5 c 128,-1,62
 789 404 789 404 815 364 c 128,-1,63
 841 324 841 324 841 284 c 0,64,65
 841 232 841 232 815.5 201 c 128,-1,66
 790 170 790 170 755 154 c 1,67,68
 795 134 795 134 825.5 89.5 c 128,-1,69
 856 45 856 45 856 -16 c 0,70,71
 856 -68 856 -68 835.5 -112 c 128,-1,72
 815 -156 815 -156 779.5 -183 c 128,-1,73
 744 -210 744 -210 698 -210 c 256,0,1
234 484 m 0,74,75
 262 484 262 484 278 499 c 128,-1,76
 294 514 294 514 294 545 c 0,77,78
 294 567 294 567 280 584.5 c 128,-1,79
 266 602 266 602 233 602 c 0,80,81
 207 602 207 602 189.5 586.5 c 128,-1,82
 172 571 172 571 172 545 c 0,83,84
 172 518 172 518 187 501 c 128,-1,85
 202 484 202 484 234 484 c 0,74,75
612 53 m 0,86,87
 612 -8 612 -8 621.5 -55.5 c 128,-1,88
 631 -103 631 -103 651.5 -130 c 128,-1,89
 672 -157 672 -157 704 -157 c 0,90,91
 730 -157 730 -157 746 -136 c 128,-1,92
 762 -115 762 -115 769.5 -82.5 c 128,-1,93
 777 -50 777 -50 777 -15 c 0,94,95
 777 35 777 35 754 77 c 128,-1,96
 731 119 731 119 673 130 c 1,97,-1
 673 169 l 1,98,99
 709 174 709 174 729 191 c 128,-1,100
 749 208 749 208 757 231 c 128,-1,101
 765 254 765 254 765 276 c 0,102,103
 765 294 765 294 761 311 c 128,-1,104
 757 328 757 328 747 344 c 1,105,106
 693 311 693 311 663.5 262.5 c 128,-1,107
 634 214 634 214 623 159.5 c 128,-1,108
 612 105 612 105 612 53 c 0,86,87
324 131 m 0,109,110
 324 34 324 34 377 34 c 0,111,112
 393 34 393 34 405.5 44.5 c 128,-1,113
 418 55 418 55 418 76 c 0,114,115
 418 141 418 141 325 162 c 1,116,117
 324 147 324 147 324 131 c 0,109,110
EndSplineSet
Substitution2: "Single Substitution lookup 5 subtable" atouchdivesakuru
EndChar

StartChar: u11901
Encoding: 71937 71937 3
Width: 1113
GlyphClass: 2
Flags: W
HStem: -210 53<656.187 746.463> -17 51<338.788 409.49> 130 39<673 722.25> 407 52<483.426 701.029> 602 57<187.273 281.299>
VStem: 43 66<248.964 339.613> 115 57<498.287 587.716> 266 58<46.4586 162> 294 59<496.908 587.649> 418 60<41.7698 128.297> 547 65<-91.2869 192.45> 765 76<-139.045 -17.623 205.887 343.75> 777 79<-114.67 74.0414> 1007 66<173.507 344.021>
AnchorPoint: "+BBEENQQ3BEsEPARPBD0EPQQ+BDUA--3" 466 -202 basechar 0
AnchorPoint: "+BBEENQQ3BEsEPARPBD0EPQQ+BDUA--0" 961 536 basechar 0
LayerCount: 2
Fore
SplineSet
698 -210 m 256,0,1
 652 -210 652 -210 618 -175.5 c 128,-1,2
 584 -141 584 -141 565.5 -81.5 c 128,-1,3
 547 -22 547 -22 547 51 c 0,4,5
 547 131 547 131 570 196 c 128,-1,6
 593 261 593 261 630.5 307.5 c 128,-1,7
 668 354 668 354 711 380 c 1,8,9
 691 392 691 392 662 399.5 c 128,-1,10
 633 407 633 407 593 407 c 0,11,12
 536 407 536 407 483 385 c 128,-1,13
 430 363 430 363 391 320.5 c 128,-1,14
 352 278 352 278 335 216 c 1,15,16
 401 202 401 202 439.5 164.5 c 128,-1,17
 478 127 478 127 478 77 c 0,18,19
 478 31 478 31 448 7 c 128,-1,20
 418 -17 418 -17 376 -17 c 0,21,22
 321 -17 321 -17 293.5 22 c 128,-1,23
 266 61 266 61 266 131 c 0,24,25
 266 151 266 151 268 171 c 1,26,-1
 262 171 l 2,27,28
 221 174 221 174 182 178.5 c 128,-1,29
 143 183 143 183 111.5 193.5 c 128,-1,30
 80 204 80 204 61.5 226 c 128,-1,31
 43 248 43 248 43 285 c 0,32,33
 43 329 43 329 69.5 356.5 c 128,-1,34
 96 384 96 384 134.5 401.5 c 128,-1,35
 173 419 173 419 210 434 c 1,36,37
 167 440 167 440 141 468.5 c 128,-1,38
 115 497 115 497 115 546 c 0,39,40
 115 597 115 597 147.5 628 c 128,-1,41
 180 659 180 659 236 659 c 0,42,43
 278 659 278 659 303.5 642.5 c 128,-1,44
 329 626 329 626 341 599 c 128,-1,45
 353 572 353 572 353 542 c 0,46,47
 353 502 353 502 335.5 475.5 c 128,-1,48
 318 449 318 449 290 430.5 c 128,-1,49
 262 412 262 412 231 397.5 c 128,-1,50
 200 383 200 383 172 368.5 c 128,-1,51
 144 354 144 354 126.5 335.5 c 128,-1,52
 109 317 109 317 109 289 c 0,53,54
 109 251 109 251 152.5 240 c 128,-1,55
 196 229 196 229 278 224 c 1,56,57
 297 296 297 296 344.5 349 c 128,-1,58
 392 402 392 402 458.5 430.5 c 128,-1,59
 525 459 525 459 603 459 c 0,60,61
 683 459 683 459 736 431.5 c 128,-1,62
 789 404 789 404 815 364 c 128,-1,63
 841 324 841 324 841 284 c 0,64,65
 841 232 841 232 815.5 201 c 128,-1,66
 790 170 790 170 755 154 c 1,67,68
 795 134 795 134 825.5 89.5 c 128,-1,69
 856 45 856 45 856 -16 c 0,70,71
 856 -68 856 -68 835.5 -112 c 128,-1,72
 815 -156 815 -156 779.5 -183 c 128,-1,73
 744 -210 744 -210 698 -210 c 256,0,1
234 484 m 0,74,75
 262 484 262 484 278 499 c 128,-1,76
 294 514 294 514 294 545 c 0,77,78
 294 567 294 567 280 584.5 c 128,-1,79
 266 602 266 602 233 602 c 0,80,81
 207 602 207 602 189.5 586.5 c 128,-1,82
 172 571 172 571 172 545 c 0,83,84
 172 518 172 518 187 501 c 128,-1,85
 202 484 202 484 234 484 c 0,74,75
958 -4 m 1,86,-1
 911 21 l 1,87,88
 965 103 965 103 986 164 c 128,-1,89
 1007 225 1007 225 1007 269 c 0,90,91
 1007 316 1007 316 984.5 345 c 128,-1,92
 962 374 962 374 924 392 c 1,93,-1
 958 440 l 1,94,95
 1011 418 1011 418 1042 377.5 c 128,-1,96
 1073 337 1073 337 1073 284 c 0,97,98
 1073 229 1073 229 1045 155.5 c 128,-1,99
 1017 82 1017 82 958 -4 c 1,86,-1
612 53 m 0,100,101
 612 -8 612 -8 621.5 -55.5 c 128,-1,102
 631 -103 631 -103 651.5 -130 c 128,-1,103
 672 -157 672 -157 704 -157 c 0,104,105
 730 -157 730 -157 746 -136 c 128,-1,106
 762 -115 762 -115 769.5 -82.5 c 128,-1,107
 777 -50 777 -50 777 -15 c 0,108,109
 777 35 777 35 754 77 c 128,-1,110
 731 119 731 119 673 130 c 1,111,-1
 673 169 l 1,112,113
 709 174 709 174 729 191 c 128,-1,114
 749 208 749 208 757 231 c 128,-1,115
 765 254 765 254 765 276 c 0,116,117
 765 294 765 294 761 311 c 128,-1,118
 757 328 757 328 747 344 c 1,119,120
 693 311 693 311 663.5 262.5 c 128,-1,121
 634 214 634 214 623 159.5 c 128,-1,122
 612 105 612 105 612 53 c 0,100,101
324 131 m 0,123,124
 324 34 324 34 377 34 c 0,125,126
 393 34 393 34 405.5 44.5 c 128,-1,127
 418 55 418 55 418 76 c 0,128,129
 418 141 418 141 325 162 c 1,130,131
 324 147 324 147 324 131 c 0,123,124
EndSplineSet
EndChar

StartChar: u11902
Encoding: 71938 71938 4
Width: 819
GlyphClass: 2
Flags: W
HStem: -271 91<158.491 457.186> -192 47<49.9149 72.3807> -17 58<245.334 336.002> 382 54<394.579 609.353> 613 46<112.789 165.587>
VStem: 23 101<543.411 612.441> 163 62<61.4254 225.911> 179 59<472.486 598.435> 349 60<53.7037 167.467> 719 60<38.0742 268.612>
AnchorPoint: "+BBEENQQ3BEsEPARPBD0EPQQ+BDUA--3" 456 -292 basechar 0
AnchorPoint: "+BBEENQQ3BEsEPARPBD0EPQQ+BDUA--2" 136 607 basechar 0
AnchorPoint: "+BBEENQQ3BEsEPARPBD0EPQQ+BDUA--1" 617 334 basechar 0
AnchorPoint: "+BBEENQQ3BEsEPARPBD0EPQQ+BDUA--0" 472 590 basechar 0
LayerCount: 2
Fore
SplineSet
318 -271 m 0,0,1
 224 -271 224 -271 152.5 -247.5 c 128,-1,2
 81 -224 81 -224 38 -192 c 1,3,-1
 52 -145 l 1,4,5
 101 -161 101 -161 161.5 -170.5 c 128,-1,6
 222 -180 222 -180 313 -180 c 0,7,8
 360 -180 360 -180 415 -169 c 128,-1,9
 470 -158 470 -158 524 -134 c 128,-1,10
 578 -110 578 -110 622 -70.5 c 128,-1,11
 666 -31 666 -31 692.5 26.5 c 128,-1,12
 719 84 719 84 719 161 c 0,13,14
 719 219 719 219 697 269.5 c 128,-1,15
 675 320 675 320 627 351 c 128,-1,16
 579 382 579 382 501 382 c 0,17,18
 436 382 436 382 377 352.5 c 128,-1,19
 318 323 318 323 279 276 c 1,20,21
 353 238 353 238 381 192 c 128,-1,22
 409 146 409 146 409 97 c 0,23,24
 409 44 409 44 374 13.5 c 128,-1,25
 339 -17 339 -17 294 -17 c 0,26,27
 261 -17 261 -17 231 -2.5 c 128,-1,28
 201 12 201 12 182 45 c 128,-1,29
 163 78 163 78 163 134 c 0,30,31
 163 164 163 164 171 193 c 128,-1,32
 179 222 179 222 193 250 c 1,33,34
 164 261 164 261 127 271.5 c 128,-1,35
 90 282 90 282 45 292 c 1,36,-1
 45 326 l 1,37,38
 70 353 70 353 101.5 390 c 128,-1,39
 133 427 133 427 156 470 c 128,-1,40
 179 513 179 513 179 557 c 0,41,42
 179 580 179 580 166 595.5 c 128,-1,43
 153 611 153 611 112 613 c 1,44,45
 124 600 124 600 124 579 c 0,46,47
 124 553 124 553 109 541.5 c 128,-1,48
 94 530 94 530 73 530 c 0,49,50
 51 530 51 530 37 543 c 128,-1,51
 23 556 23 556 23 587 c 0,52,53
 23 620 23 620 50.5 639.5 c 128,-1,54
 78 659 78 659 124 659 c 0,55,56
 174 659 174 659 206 632 c 128,-1,57
 238 605 238 605 238 561 c 0,58,59
 238 512 238 512 219.5 471 c 128,-1,60
 201 430 201 430 173 396 c 128,-1,61
 145 362 145 362 117 334 c 1,62,63
 178 319 178 319 226 300 c 1,64,65
 273 359 273 359 345 397.5 c 128,-1,66
 417 436 417 436 497 436 c 0,67,68
 591 436 591 436 653.5 399.5 c 128,-1,69
 716 363 716 363 747.5 301.5 c 128,-1,70
 779 240 779 240 779 163 c 0,71,72
 779 77 779 77 751 7.5 c 128,-1,73
 723 -62 723 -62 675 -114 c 128,-1,74
 627 -166 627 -166 567 -201 c 128,-1,75
 507 -236 507 -236 442.5 -253.5 c 128,-1,76
 378 -271 378 -271 318 -271 c 0,0,1
225 137 m 0,77,78
 225 80 225 80 247.5 60.5 c 128,-1,79
 270 41 270 41 295 41 c 0,80,81
 318 41 318 41 333.5 56 c 128,-1,82
 349 71 349 71 349 100 c 0,83,84
 349 117 349 117 343 138 c 128,-1,85
 337 159 337 159 315.5 181.5 c 128,-1,86
 294 204 294 204 247 227 c 1,87,88
 225 183 225 183 225 137 c 0,77,78
EndSplineSet
Substitution2: "Single Substitution lookup 5 subtable" itouchdivesakuru
EndChar

StartChar: u11903
Encoding: 71939 71939 5
Width: 1104
GlyphClass: 2
Flags: W
HStem: -391 52<546 669.758> -271 91<145.326 388.994> -17 58<246.851 336.002> 32 51<829.027 898.385> 163 43<832.831 919.529> 305 54<726.154 880.496> 381 54<359.555 534.809> 613 46<117.789 170.587>
VStem: 28 101<543.411 612.441> 163 62<62.7061 228.547> 184 59<148.312 230 474.105 599.241> 349 60<53.7037 168.184> 629 60<33.9531 260.896> 770 52<90.4551 153.215> 1005 59<-83.5712 112.614>
AnchorPoint: "+BBEENQQ3BEsEPARPBD0EPQQ+BDUA--3" 552 -432 basechar 0
AnchorPoint: "+BBEENQQ3BEsEPARPBD0EPQQ+BDUA--2" 136 607 basechar 0
AnchorPoint: "+BBEENQQ3BEsEPARPBD0EPQQ+BDUA--1" 836 274 basechar 0
AnchorPoint: "+BBEENQQ3BEsEPARPBD0EPQQ+BDUA--0" 776 590 basechar 0
LayerCount: 2
Fore
SplineSet
278 -271 m 0,0,1
 199 -271 199 -271 140 -247.5 c 128,-1,2
 81 -224 81 -224 38 -192 c 1,3,-1
 52 -145 l 1,4,5
 101 -161 101 -161 146.5 -170.5 c 128,-1,6
 192 -180 192 -180 253 -180 c 0,7,8
 297 -180 297 -180 348.5 -169 c 128,-1,9
 400 -158 400 -158 449.5 -134 c 128,-1,10
 499 -110 499 -110 539.5 -70.5 c 128,-1,11
 580 -31 580 -31 604.5 26.5 c 128,-1,12
 629 84 629 84 629 161 c 0,13,14
 629 219 629 219 608.5 269 c 128,-1,15
 588 319 588 319 548.5 350 c 128,-1,16
 509 381 509 381 451 381 c 0,17,18
 396 381 396 381 348 353 c 128,-1,19
 300 325 300 325 269 281 c 1,20,21
 349 242 349 242 379 195 c 128,-1,22
 409 148 409 148 409 97 c 0,23,24
 409 44 409 44 374 13.5 c 128,-1,25
 339 -17 339 -17 294 -17 c 0,26,27
 261 -17 261 -17 231 -2 c 128,-1,28
 201 13 201 13 182 48 c 128,-1,29
 163 83 163 83 163 144 c 0,30,31
 163 198 163 198 187 252 c 1,32,33
 159 262 159 262 123.5 272 c 128,-1,34
 88 282 88 282 45 292 c 1,35,-1
 45 326 l 1,36,37
 72 353 72 353 104.5 390 c 128,-1,38
 137 427 137 427 160.5 470.5 c 128,-1,39
 184 514 184 514 184 558 c 0,40,41
 184 581 184 581 171 596 c 128,-1,42
 158 611 158 611 117 613 c 1,43,44
 129 600 129 600 129 579 c 0,45,46
 129 553 129 553 114 541.5 c 128,-1,47
 99 530 99 530 78 530 c 0,48,49
 56 530 56 530 42 543 c 128,-1,50
 28 556 28 556 28 587 c 0,51,52
 28 620 28 620 55.5 639.5 c 128,-1,53
 83 659 83 659 129 659 c 0,54,55
 179 659 179 659 211 632 c 128,-1,56
 243 605 243 605 243 561 c 0,57,58
 243 513 243 513 223.5 471 c 128,-1,59
 204 429 204 429 175.5 394.5 c 128,-1,60
 147 360 147 360 118 334 c 1,61,62
 172 320 172 320 216 304 c 1,63,64
 255 361 255 361 316 398 c 128,-1,65
 377 435 377 435 447 435 c 0,66,67
 524 435 524 435 580.5 395 c 128,-1,68
 637 355 637 355 665 289 c 1,69,70
 692 320 692 320 730.5 339.5 c 128,-1,71
 769 359 769 359 814 359 c 0,72,73
 888 359 888 359 932 311 c 128,-1,74
 976 263 976 263 976 184 c 1,75,76
 1018 161 1018 161 1041 117 c 128,-1,77
 1064 73 1064 73 1064 15 c 0,78,79
 1064 -63 1064 -63 1031 -136 c 128,-1,80
 998 -209 998 -209 933 -266.5 c 128,-1,81
 868 -324 868 -324 771 -357.5 c 128,-1,82
 674 -391 674 -391 546 -391 c 1,83,-1
 540 -339 l 1,84,85
 649 -330 649 -330 735 -297 c 128,-1,86
 821 -264 821 -264 881.5 -214.5 c 128,-1,87
 942 -165 942 -165 973.5 -105 c 128,-1,88
 1005 -45 1005 -45 1005 19 c 0,89,90
 1005 94 1005 94 970 130 c 1,91,92
 957 79 957 79 923 55.5 c 128,-1,93
 889 32 889 32 856 32 c 0,94,95
 815 32 815 32 792.5 55.5 c 128,-1,96
 770 79 770 79 770 110 c 0,97,98
 770 143 770 143 786.5 164.5 c 128,-1,99
 803 186 803 186 829 196 c 128,-1,100
 855 206 855 206 883 206 c 0,101,102
 903 206 903 206 922 203 c 1,103,104
 918 253 918 253 886.5 279 c 128,-1,105
 855 305 855 305 812 305 c 0,106,107
 777 305 777 305 742.5 291.5 c 128,-1,108
 708 278 708 278 678 251 c 1,109,110
 689 209 689 209 689 163 c 0,111,112
 689 77 689 77 663 7.5 c 128,-1,113
 637 -62 637 -62 593.5 -114 c 128,-1,114
 550 -166 550 -166 496.5 -201 c 128,-1,115
 443 -236 443 -236 386 -253.5 c 128,-1,116
 329 -271 329 -271 278 -271 c 0,0,1
225 147 m 0,117,118
 225 104 225 104 235.5 81 c 128,-1,119
 246 58 246 58 262 49.5 c 128,-1,120
 278 41 278 41 295 41 c 0,121,122
 318 41 318 41 333.5 56 c 128,-1,123
 349 71 349 71 349 100 c 0,124,125
 349 118 349 118 343 139 c 128,-1,126
 337 160 337 160 314 183 c 128,-1,127
 291 206 291 206 241 230 c 1,128,129
 225 189 225 189 225 147 c 0,117,118
822 120 m 0,130,131
 822 106 822 106 832 94.5 c 128,-1,132
 842 83 842 83 859 83 c 0,133,134
 877 83 877 83 895.5 97.5 c 128,-1,135
 914 112 914 112 920 158 c 1,136,137
 902 163 902 163 879 163 c 0,138,139
 852 163 852 163 837 151.5 c 128,-1,140
 822 140 822 140 822 120 c 0,130,131
EndSplineSet
EndChar

StartChar: u11904
Encoding: 71940 71940 6
Width: 718
GlyphClass: 2
Flags: W
HStem: -10 102<275.773 499.963> 393 57<113.378 223.815>
VStem: 32 68<464.135 574.405> 154 66<138.911 245.608> 355 55<395.872 511.471> 618 53<302.844 357.396> 624 54<200.071 357.242>
AnchorPoint: "+BBEENQQ3BEsEPARPBD0EPQQ+BDUA--3" 405 -38 basechar 0
AnchorPoint: "+BBEENQQ3BEsEPARPBD0EPQQ+BDUA--2" 343 543 basechar 0
AnchorPoint: "+BBEENQQ3BEsEPARPBD0EPQQ+BDUA--0" 516 590 basechar 0
LayerCount: 2
Fore
SplineSet
378 -10 m 0,0,1
 314 -10 314 -10 263 11.5 c 128,-1,2
 212 33 212 33 183 73.5 c 128,-1,3
 154 114 154 114 154 169 c 0,4,5
 154 206 154 206 177 248 c 128,-1,6
 200 290 200 290 269 336 c 0,7,8
 317 368 317 368 336 399.5 c 128,-1,9
 355 431 355 431 355 463 c 0,10,11
 355 494 355 494 341 508.5 c 128,-1,12
 327 523 327 523 308 526 c 1,13,14
 303 500 303 500 286.5 469 c 128,-1,15
 270 438 270 438 238.5 415.5 c 128,-1,16
 207 393 207 393 156 393 c 0,17,18
 101 393 101 393 66.5 423 c 128,-1,19
 32 453 32 453 32 516 c 0,20,21
 32 551 32 551 43 575 c 1,22,-1
 110 575 l 1,23,24
 106 561 106 561 103 547.5 c 128,-1,25
 100 534 100 534 100 520 c 0,26,27
 100 483 100 483 114.5 466.5 c 128,-1,28
 129 450 129 450 164 450 c 0,29,30
 208 450 208 450 233 481.5 c 128,-1,31
 258 513 258 513 266 581 c 1,32,-1
 276 581 l 2,33,34
 338 581 338 581 374 553.5 c 128,-1,35
 410 526 410 526 410 470 c 0,36,37
 410 421 410 421 378 376.5 c 128,-1,38
 346 332 346 332 285 289 c 0,39,40
 243 260 243 260 231.5 237 c 128,-1,41
 220 214 220 214 220 191 c 0,42,43
 220 149 220 149 264 120.5 c 128,-1,44
 308 92 308 92 390 92 c 0,45,46
 471 92 471 92 522.5 119 c 128,-1,47
 574 146 574 146 599 193.5 c 128,-1,48
 624 241 624 241 624 302 c 0,49,50
 624 329 624 329 618 357 c 1,51,-1
 671 360 l 1,52,53
 674 347 674 347 676 330 c 128,-1,54
 678 313 678 313 678 293 c 0,55,56
 678 236 678 236 659 182 c 128,-1,57
 640 128 640 128 602.5 84.5 c 128,-1,58
 565 41 565 41 508.5 15.5 c 128,-1,59
 452 -10 452 -10 378 -10 c 0,0,1
EndSplineSet
EndChar

StartChar: u11905
Encoding: 71941 71941 7
Width: 820
GlyphClass: 2
Flags: W
HStem: -10 102<275.773 500.975> 202 48<693.844 810> 363 50<545.878 635.661> 393 57<113.378 223.815>
VStem: 32 68<464.135 574.405> 154 66<138.911 246.455> 355 55<396.433 511.471> 477 56<250.553 349.348> 650 50<229.924 345.607>
AnchorPoint: "+BBEENQQ3BEsEPARPBD0EPQQ+BDUA--3" 526 590 basechar 0
AnchorPoint: "+BBEENQQ3BEsEPARPBD0EPQQ+BDUA--2" 343 543 basechar 0
AnchorPoint: "+BBEENQQ3BEsEPARPBD0EPQQ+BDUA--0" 526 590 basechar 0
LayerCount: 2
Fore
SplineSet
378 -10 m 0,0,1
 314 -10 314 -10 263 11.5 c 128,-1,2
 212 33 212 33 183 73.5 c 128,-1,3
 154 114 154 114 154 169 c 0,4,5
 154 206 154 206 177 249 c 128,-1,6
 200 292 200 292 269 338 c 0,7,8
 317 370 317 370 336 400.5 c 128,-1,9
 355 431 355 431 355 463 c 0,10,11
 355 494 355 494 341 508.5 c 128,-1,12
 327 523 327 523 308 526 c 1,13,14
 303 500 303 500 286.5 469 c 128,-1,15
 270 438 270 438 238.5 415.5 c 128,-1,16
 207 393 207 393 156 393 c 0,17,18
 101 393 101 393 66.5 423 c 128,-1,19
 32 453 32 453 32 516 c 0,20,21
 32 551 32 551 43 575 c 1,22,-1
 110 575 l 1,23,24
 106 561 106 561 103 547.5 c 128,-1,25
 100 534 100 534 100 520 c 0,26,27
 100 483 100 483 114.5 466.5 c 128,-1,28
 129 450 129 450 164 450 c 0,29,30
 208 450 208 450 233 481.5 c 128,-1,31
 258 513 258 513 266 581 c 1,32,-1
 276 581 l 2,33,34
 338 581 338 581 374 553.5 c 128,-1,35
 410 526 410 526 410 470 c 0,36,37
 410 421 410 421 378 376.5 c 128,-1,38
 346 332 346 332 285 289 c 0,39,40
 243 260 243 260 231.5 237 c 128,-1,41
 220 214 220 214 220 191 c 0,42,43
 220 149 220 149 264 120.5 c 128,-1,44
 308 92 308 92 390 92 c 0,45,46
 467 92 467 92 522.5 116.5 c 128,-1,47
 578 141 578 141 610 181 c 1,48,49
 563 186 563 186 533.5 206 c 128,-1,50
 504 226 504 226 490.5 252.5 c 128,-1,51
 477 279 477 279 477 305 c 0,52,53
 477 355 477 355 509 384 c 128,-1,54
 541 413 541 413 587 413 c 0,55,56
 629 413 629 413 654 395.5 c 128,-1,57
 679 378 679 378 689.5 349.5 c 128,-1,58
 700 321 700 321 700 289 c 0,59,60
 700 259 700 259 693 229 c 1,61,62
 720 231 720 231 749 236 c 128,-1,63
 778 241 778 241 810 250 c 1,64,-1
 810 202 l 1,65,66
 775 192 775 192 742 187 c 128,-1,67
 709 182 709 182 677 180 c 1,68,69
 654 126 654 126 611 83 c 128,-1,70
 568 40 568 40 508.5 15 c 128,-1,71
 449 -10 449 -10 378 -10 c 0,0,1
533 305 m 0,72,73
 533 286 533 286 541.5 268 c 128,-1,74
 550 250 550 250 572.5 238.5 c 128,-1,75
 595 227 595 227 638 227 c 1,76,77
 650 258 650 258 650 291 c 0,78,79
 650 320 650 320 636 341.5 c 128,-1,80
 622 363 622 363 590 363 c 0,81,82
 563 363 563 363 548 347 c 128,-1,83
 533 331 533 331 533 305 c 0,72,73
EndSplineSet
EndChar

StartChar: u11906
Encoding: 71942 71942 8
Width: 794
GlyphClass: 2
Flags: W
HStem: -10 67<131.131 275.208> -7 75<473.06 618.426> 214 54<130.791 258.1> 393 57<135.378 245.892>
VStem: 40 68<76.6656 192.691> 54 68<464.135 574.405> 412 60<223.397 461.178> 680 74<141.897 376.794>
AnchorPoint: "+BBEENQQ3BEsEPARPBD0EPQQ+BDUA--3" 435 -38 basechar 0
AnchorPoint: "+BBEENQQ3BEsEPARPBD0EPQQ+BDUA--2" 367 543 basechar 0
AnchorPoint: "+BBEENQQ3BEsEPARPBD0EPQQ+BDUA--0" 566 590 basechar 0
LayerCount: 2
Fore
SplineSet
194 -10 m 0,0,1
 153 -10 153 -10 118 5 c 128,-1,2
 83 20 83 20 61.5 50.5 c 128,-1,3
 40 81 40 81 40 126 c 0,4,5
 40 189 40 189 80.5 228.5 c 128,-1,6
 121 268 121 268 192 268 c 0,7,8
 245 268 245 268 287.5 240 c 128,-1,9
 330 212 330 212 368 176 c 1,10,11
 389 213 389 213 400.5 256 c 128,-1,12
 412 299 412 299 412 345 c 0,13,14
 412 427 412 427 385 472 c 128,-1,15
 358 517 358 517 330 523 c 1,16,17
 324 497 324 497 307.5 466.5 c 128,-1,18
 291 436 291 436 259.5 414.5 c 128,-1,19
 228 393 228 393 178 393 c 0,20,21
 123 393 123 393 88.5 423 c 128,-1,22
 54 453 54 453 54 516 c 0,23,24
 54 551 54 551 65 575 c 1,25,-1
 132 575 l 1,26,27
 128 561 128 561 125 547.5 c 128,-1,28
 122 534 122 534 122 520 c 0,29,30
 122 483 122 483 136.5 466.5 c 128,-1,31
 151 450 151 450 186 450 c 0,32,33
 230 450 230 450 255 481.5 c 128,-1,34
 280 513 280 513 288 581 c 1,35,-1
 298 581 l 2,36,37
 376 581 376 581 424 520.5 c 128,-1,38
 472 460 472 460 472 350 c 0,39,40
 472 291 472 291 457 235.5 c 128,-1,41
 442 180 442 180 415 134 c 1,42,43
 445 106 445 106 477 87 c 128,-1,44
 509 68 509 68 545 68 c 0,45,46
 613 68 613 68 646.5 119.5 c 128,-1,47
 680 171 680 171 680 257 c 0,48,49
 680 317 680 317 662 381 c 1,50,-1
 725 392 l 1,51,52
 739 366 739 366 746.5 330 c 128,-1,53
 754 294 754 294 754 250 c 0,54,55
 754 180 754 180 727 121.5 c 128,-1,56
 700 63 700 63 652 28 c 128,-1,57
 604 -7 604 -7 541 -7 c 0,58,59
 490 -7 490 -7 449.5 18.5 c 128,-1,60
 409 44 409 44 375 79 c 1,61,62
 339 38 339 38 293 14 c 128,-1,63
 247 -10 247 -10 194 -10 c 0,0,1
108 130 m 0,64,65
 108 91 108 91 133.5 74 c 128,-1,66
 159 57 159 57 196 57 c 0,67,68
 234 57 234 57 268.5 75 c 128,-1,69
 303 93 303 93 331 125 c 1,70,71
 298 160 298 160 265 187 c 128,-1,72
 232 214 232 214 194 214 c 0,73,74
 153 214 153 214 130.5 193.5 c 128,-1,75
 108 173 108 173 108 130 c 0,64,65
EndSplineSet
Substitution2: "Single Substitution lookup 5 subtable" etouchdivesakuru
EndChar

StartChar: u11909
Encoding: 71945 71945 9
Width: 955
GlyphClass: 2
Flags: W
HStem: -10 105<211.524 398.845 601.905 781.617> 238 47<716.169 797.725> 337 51<110.832 205.41> 388 49<716.986 798.94> 537 52<215.822 335.578>
VStem: 40 57<402.217 491.841> 124 66<116.563 208.214> 219 57<401.492 491.643> 385 60<357.046 490.022> 656 50<296.5 377.188> 864 51<171.235 321.671>
AnchorPoint: "+BBEENQQ3BEsEPARPBD0EPQQ+BDUA--3" 535 -38 basechar 0
AnchorPoint: "+BBEENQQ3BEsEPARPBD0EPQQ+BDUA--2" 257 537 basechar 0
AnchorPoint: "+BBEENQQ3BEsEPARPBD0EPQQ+BDUA--0" 586 590 basechar 0
LayerCount: 2
Fore
SplineSet
303 -10 m 0,0,1
 224 -10 224 -10 174 28.5 c 128,-1,2
 124 67 124 67 124 141 c 0,3,4
 124 188 124 188 157 228.5 c 128,-1,5
 190 269 190 269 266 299 c 0,6,7
 328 324 328 324 356.5 350 c 128,-1,8
 385 376 385 376 385 428 c 0,9,10
 385 459 385 459 368 483.5 c 128,-1,11
 351 508 351 508 323 522.5 c 128,-1,12
 295 537 295 537 261 537 c 0,13,14
 236 537 236 537 215 533 c 1,15,16
 243 525 243 525 259.5 502 c 128,-1,17
 276 479 276 479 276 446 c 0,18,19
 276 387 276 387 240.5 362 c 128,-1,20
 205 337 205 337 157 337 c 0,21,22
 106 337 106 337 73 366 c 128,-1,23
 40 395 40 395 40 450 c 0,24,25
 40 489 40 489 66.5 520.5 c 128,-1,26
 93 552 93 552 141.5 570.5 c 128,-1,27
 190 589 190 589 255 589 c 0,28,29
 319 589 319 589 361 566 c 128,-1,30
 403 543 403 543 424 507 c 128,-1,31
 445 471 445 471 445 430 c 0,32,33
 445 375 445 375 420 341.5 c 128,-1,34
 395 308 395 308 355 287 c 128,-1,35
 315 266 315 266 270 247 c 0,36,37
 218 225 218 225 204 204 c 128,-1,38
 190 183 190 183 190 163 c 0,39,40
 190 95 190 95 301 95 c 0,41,42
 384 95 384 95 425.5 128 c 128,-1,43
 467 161 467 161 478 204 c 1,44,-1
 531 204 l 1,45,46
 535 168 535 168 558.5 143.5 c 128,-1,47
 582 119 582 119 617 107 c 128,-1,48
 652 95 652 95 689 95 c 0,49,50
 734 95 734 95 774 113 c 128,-1,51
 814 131 814 131 839 166.5 c 128,-1,52
 864 202 864 202 864 254 c 0,53,54
 864 270 864 270 862 287.5 c 128,-1,55
 860 305 860 305 853 323 c 1,56,57
 850 280 850 280 823.5 259 c 128,-1,58
 797 238 797 238 758 238 c 0,59,60
 706 238 706 238 681 265.5 c 128,-1,61
 656 293 656 293 656 336 c 0,62,63
 656 384 656 384 683.5 410.5 c 128,-1,64
 711 437 711 437 767 437 c 0,65,66
 831 437 831 437 873 382.5 c 128,-1,67
 915 328 915 328 915 236 c 0,68,69
 915 157 915 157 885.5 102 c 128,-1,70
 856 47 856 47 808 18.5 c 128,-1,71
 760 -10 760 -10 703 -10 c 0,72,73
 627 -10 627 -10 576.5 27.5 c 128,-1,74
 526 65 526 65 504 129 c 1,75,76
 493 94 493 94 464.5 62 c 128,-1,77
 436 30 436 30 395 10 c 128,-1,78
 354 -10 354 -10 303 -10 c 0,0,1
159 388 m 0,79,80
 187 388 187 388 203 403 c 128,-1,81
 219 418 219 418 219 449 c 0,82,83
 219 471 219 471 205 488.5 c 128,-1,84
 191 506 191 506 158 506 c 0,85,86
 132 506 132 506 114.5 490.5 c 128,-1,87
 97 475 97 475 97 449 c 0,88,89
 97 422 97 422 112 405 c 128,-1,90
 127 388 127 388 159 388 c 0,79,80
758 285 m 0,91,92
 781 285 781 285 795 298.5 c 128,-1,93
 809 312 809 312 809 339 c 0,94,95
 809 357 809 357 797 372.5 c 128,-1,96
 785 388 785 388 757 388 c 0,97,98
 735 388 735 388 720.5 375 c 128,-1,99
 706 362 706 362 706 339 c 0,100,101
 706 315 706 315 718 300 c 128,-1,102
 730 285 730 285 758 285 c 0,91,92
EndSplineSet
EndChar

StartChar: u1190C
Encoding: 71948 71948 10
Width: 944
GlyphClass: 2
Flags: W
HStem: -235 92<260.699 561.508> -2 66<340.499 498.539> 272 45<352 473.236> 547 51<514.375 677.027> 571 44<116.718 328.413>
VStem: 10 77<464.189 543.029> 176 61<180.401 403.016> 529 90<363.644 483.28> 535 96<99.8786 224.579> 842 62<131.309 388.75>
AnchorPoint: "+BBEENQQ3BEsEPARPBD0EPQQ+BDUA--3" 505 -276 basechar 0
AnchorPoint: "+BBEENQQ3BEsEPARPBD0EPQQ+BDUA--2" 534 551 basechar 0
AnchorPoint: "+BBEENQQ3BEsEPARPBD0EPQQ+BDUA--1" 674 495 basechar 0
AnchorPoint: "+BBEENQQ3BEsEPARPBD0EPQQ+BDUA--0" 532 653 basechar 0
LayerCount: 2
Fore
SplineSet
94 395 m 1,0,1
 77 401 77 401 57.5 410.5 c 128,-1,2
 38 420 38 420 24 438 c 128,-1,3
 10 456 10 456 10 486 c 0,4,5
 10 518 10 518 29.5 547.5 c 128,-1,6
 49 577 49 577 89.5 596 c 128,-1,7
 130 615 130 615 192 615 c 0,8,9
 241 615 241 615 295.5 603 c 128,-1,10
 350 591 350 591 392 573 c 1,11,12
 432 586 432 586 473.5 592 c 128,-1,13
 515 598 515 598 554 598 c 0,14,15
 665 598 665 598 743 556 c 128,-1,16
 821 514 821 514 862.5 437 c 128,-1,17
 904 360 904 360 904 254 c 0,18,19
 904 163 904 163 871.5 76 c 128,-1,20
 839 -11 839 -11 776 -81.5 c 128,-1,21
 713 -152 713 -152 622 -193.5 c 128,-1,22
 531 -235 531 -235 414 -235 c 0,23,24
 308 -235 308 -235 234 -203.5 c 128,-1,25
 160 -172 160 -172 99 -128 c 1,26,-1
 125 -76 l 1,27,28
 190 -107 190 -107 261 -125 c 128,-1,29
 332 -143 332 -143 418 -143 c 0,30,31
 510 -143 510 -143 587.5 -112 c 128,-1,32
 665 -81 665 -81 722 -25.5 c 128,-1,33
 779 30 779 30 810.5 105.5 c 128,-1,34
 842 181 842 181 842 270 c 0,35,36
 842 355 842 355 807 417 c 128,-1,37
 772 479 772 479 706 513 c 128,-1,38
 640 547 640 547 548 547 c 0,39,40
 531 547 531 547 514 546 c 1,41,42
 571 528 571 528 595 495 c 128,-1,43
 619 462 619 462 619 428 c 0,44,45
 619 381 619 381 588.5 347.5 c 128,-1,46
 558 314 558 314 502 300 c 1,47,48
 569 286 569 286 600 254 c 128,-1,49
 631 222 631 222 631 169 c 0,50,51
 631 117 631 117 602.5 78.5 c 128,-1,52
 574 40 574 40 530 19 c 128,-1,53
 486 -2 486 -2 440 -2 c 0,54,55
 363 -2 363 -2 303 36 c 128,-1,56
 243 74 243 74 209.5 141 c 128,-1,57
 176 208 176 208 176 295 c 0,58,59
 176 390 176 390 221 452 c 128,-1,60
 266 514 266 514 332 548 c 1,61,62
 304 558 304 558 272 564.5 c 128,-1,63
 240 571 240 571 200 571 c 0,64,65
 152 571 152 571 119.5 551 c 128,-1,66
 87 531 87 531 87 502 c 0,67,68
 87 482 87 482 99 471.5 c 128,-1,69
 111 461 111 461 125 455 c 1,70,-1
 94 395 l 1,0,1
237 297 m 0,71,72
 237 223 237 223 263 170.5 c 128,-1,73
 289 118 289 118 331.5 91 c 128,-1,74
 374 64 374 64 423 64 c 0,75,76
 478 64 478 64 506.5 92.5 c 128,-1,77
 535 121 535 121 535 164 c 0,78,79
 535 181 535 181 529.5 198.5 c 128,-1,80
 524 216 524 216 506 231.5 c 128,-1,81
 488 247 488 247 451 258 c 128,-1,82
 414 269 414 269 352 272 c 1,83,-1
 352 317 l 1,84,85
 411 319 411 319 446.5 329 c 128,-1,86
 482 339 482 339 499.5 355.5 c 128,-1,87
 517 372 517 372 523 390.5 c 128,-1,88
 529 409 529 409 529 427 c 0,89,90
 529 515 529 515 391 519 c 1,91,92
 349 502 349 502 314 473.5 c 128,-1,93
 279 445 279 445 258 401.5 c 128,-1,94
 237 358 237 358 237 297 c 0,71,72
EndSplineSet
Substitution2: "Single Substitution lookup 7 subtable" katouchdivesakuru
Substitution2: "Single Substitution lookup 6 subtable" katouchdivesakuru
Substitution2: "Single Substitution lookup 5 subtable" katouchdivesakuru
EndChar

StartChar: u1190D
Encoding: 71949 71949 11
Width: 672
GlyphClass: 2
Flags: W
HStem: -10 102<172.664 421.252> 188 46<96 237.397> 337 51<193.832 288.41> 537 52<293.997 393.836>
VStem: 123 57<402.217 491.841> 302 57<401.492 491.643> 434 60<350.135 495.991>
AnchorPoint: "+BBEENQQ3BEsEPARPBD0EPQQ+BDUA--6" 601 197 basechar 0
AnchorPoint: "+BBEENQQ3BEsEPARPBD0EPQQ+BDUA--3" 403 -38 basechar 0
AnchorPoint: "+BBEENQQ3BEsEPARPBD0EPQQ+BDUA--2" 312 537 basechar 0
AnchorPoint: "+BBEENQQ3BEsEPARPBD0EPQQ+BDUA--0" 454 590 basechar 0
LayerCount: 2
Fore
SplineSet
296 -10 m 0,0,1
 177 -10 177 -10 108.5 51.5 c 128,-1,2
 40 113 40 113 40 222 c 2,3,-1
 40 234 l 1,4,5
 168 239 168 239 246 257.5 c 128,-1,6
 324 276 324 276 364.5 303.5 c 128,-1,7
 405 331 405 331 419.5 363 c 128,-1,8
 434 395 434 395 434 428 c 0,9,10
 434 474 434 474 404.5 505.5 c 128,-1,11
 375 537 375 537 324 537 c 0,12,13
 310 537 310 537 293 534 c 1,14,15
 320 525 320 525 339.5 502 c 128,-1,16
 359 479 359 479 359 446 c 0,17,18
 359 387 359 387 323.5 362 c 128,-1,19
 288 337 288 337 240 337 c 0,20,21
 189 337 189 337 156 366 c 128,-1,22
 123 395 123 395 123 450 c 0,23,24
 123 489 123 489 149 520.5 c 128,-1,25
 175 552 175 552 219 570.5 c 128,-1,26
 263 589 263 589 318 589 c 0,27,28
 382 589 382 589 420.5 566 c 128,-1,29
 459 543 459 543 476.5 507 c 128,-1,30
 494 471 494 471 494 430 c 0,31,32
 494 367 494 367 455 314.5 c 128,-1,33
 416 262 416 262 328.5 228.5 c 128,-1,34
 241 195 241 195 96 188 c 1,35,36
 103 146 103 146 152.5 119 c 128,-1,37
 202 92 202 92 302 92 c 0,38,39
 358 92 358 92 407.5 103 c 128,-1,40
 457 114 457 114 503 143 c 128,-1,41
 549 172 549 172 591 227 c 1,42,-1
 632 200 l 1,43,44
 578 107 578 107 492 48.5 c 128,-1,45
 406 -10 406 -10 296 -10 c 0,0,1
242 388 m 0,46,47
 270 388 270 388 286 403 c 128,-1,48
 302 418 302 418 302 449 c 0,49,50
 302 471 302 471 288 488.5 c 128,-1,51
 274 506 274 506 241 506 c 0,52,53
 215 506 215 506 197.5 490.5 c 128,-1,54
 180 475 180 475 180 449 c 0,55,56
 180 422 180 422 195 405 c 128,-1,57
 210 388 210 388 242 388 c 0,46,47
EndSplineSet
EndChar

StartChar: u1190E
Encoding: 71950 71950 12
Width: 746
GlyphClass: 2
Flags: W
HStem: -10 91<184.78 462.699> 291 57<203.02 322> 533 54<407.23 563.522>
VStem: 119 56<361.062 671> 309 58<348.332 494.904> 635 61<230.088 453.074>
AnchorPoint: "+BBEENQQ3BEsEPARPBD0EPQQ+BDUA--6" 665 374 basechar 0
AnchorPoint: "+BBEENQQ3BEsEPARPBD0EPQQ+BDUA--3" 375 -38 basechar 0
AnchorPoint: "+BBEENQQ3BEsEPARPBD0EPQQ+BDUA--0" 144 714 basechar 0
LayerCount: 2
Fore
SplineSet
315 -10 m 0,0,1
 273 -10 273 -10 227.5 0 c 128,-1,2
 182 10 182 10 143 29 c 128,-1,3
 104 48 104 48 80 74 c 1,4,-1
 99 116 l 1,5,6
 148 100 148 100 203.5 90.5 c 128,-1,7
 259 81 259 81 320 81 c 0,8,9
 409 81 409 81 480.5 107.5 c 128,-1,10
 552 134 552 134 593.5 193.5 c 128,-1,11
 635 253 635 253 635 352 c 0,12,13
 635 400 635 400 618.5 441.5 c 128,-1,14
 602 483 602 483 568.5 508 c 128,-1,15
 535 533 535 533 485 533 c 0,16,17
 436 533 436 533 401.5 507.5 c 128,-1,18
 367 482 367 482 367 422 c 0,19,20
 367 380 367 380 383.5 346 c 128,-1,21
 400 312 400 312 413 291 c 1,22,-1
 245 291 l 2,23,24
 198 291 198 291 170.5 301 c 128,-1,25
 143 311 143 311 131 343 c 128,-1,26
 119 375 119 375 119 440 c 2,27,-1
 119 671 l 1,28,-1
 175 671 l 1,29,-1
 175 464 l 2,30,31
 175 415 175 415 180.5 390 c 128,-1,32
 186 365 186 365 202.5 356.5 c 128,-1,33
 219 348 219 348 252 348 c 2,34,-1
 322 348 l 1,35,36
 316 365 316 365 312.5 382.5 c 128,-1,37
 309 400 309 400 309 421 c 0,38,39
 309 493 309 493 357 540 c 128,-1,40
 405 587 405 587 487 587 c 0,41,42
 550 587 550 587 597 556.5 c 128,-1,43
 644 526 644 526 670 473.5 c 128,-1,44
 696 421 696 421 696 354 c 0,45,46
 696 240 696 240 649 158.5 c 128,-1,47
 602 77 602 77 516.5 33.5 c 128,-1,48
 431 -10 431 -10 315 -10 c 0,0,1
EndSplineSet
Substitution2: "Single Substitution lookup 6 subtable" gatouchdivesakuru
Substitution2: "Single Substitution lookup 5 subtable" gatouchdivesakuru
EndChar

StartChar: u1190F
Encoding: 71951 71951 13
Width: 814
GlyphClass: 2
Flags: W
HStem: -10 102<239.912 381.301 517.797 667.326> 393 57<113.378 223.815>
VStem: 32 68<464.135 574.405> 150 66<116.329 234.026> 355 55<395.872 511.471> 482 54<205.722 357.304> 711 53<255.998 347.396>
AnchorPoint: "+BBEENQQ3BEsEPARPBD0EPQQ+BDUA--6" 724 320 basechar 0
AnchorPoint: "+BBEENQQ3BEsEPARPBD0EPQQ+BDUA--3" 488 -38 basechar 0
AnchorPoint: "+BBEENQQ3BEsEPARPBD0EPQQ+BDUA--2" 340 543 basechar 0
AnchorPoint: "+BBEENQQ3BEsEPARPBD0EPQQ+BDUA--0" 539 590 basechar 0
LayerCount: 2
Fore
SplineSet
300 -10 m 0,0,1
 236 -10 236 -10 193 29 c 128,-1,2
 150 68 150 68 150 147 c 0,3,4
 150 191 150 191 175 240.5 c 128,-1,5
 200 290 200 290 269 336 c 0,6,7
 317 368 317 368 336 399.5 c 128,-1,8
 355 431 355 431 355 463 c 0,9,10
 355 494 355 494 341 508.5 c 128,-1,11
 327 523 327 523 308 526 c 1,12,13
 303 500 303 500 286.5 469 c 128,-1,14
 270 438 270 438 238.5 415.5 c 128,-1,15
 207 393 207 393 156 393 c 0,16,17
 101 393 101 393 66.5 423 c 128,-1,18
 32 453 32 453 32 516 c 0,19,20
 32 551 32 551 43 575 c 1,21,-1
 110 575 l 1,22,23
 106 561 106 561 103 547.5 c 128,-1,24
 100 534 100 534 100 520 c 0,25,26
 100 483 100 483 114.5 466.5 c 128,-1,27
 129 450 129 450 164 450 c 0,28,29
 208 450 208 450 233 481.5 c 128,-1,30
 258 513 258 513 266 581 c 1,31,-1
 276 581 l 2,32,33
 338 581 338 581 374 553.5 c 128,-1,34
 410 526 410 526 410 470 c 0,35,36
 410 421 410 421 378 376.5 c 128,-1,37
 346 332 346 332 285 289 c 0,38,39
 243 260 243 260 229.5 231 c 128,-1,40
 216 202 216 202 216 176 c 0,41,42
 216 136 216 136 239.5 114 c 128,-1,43
 263 92 263 92 312 92 c 0,44,45
 351 92 351 92 382.5 111.5 c 128,-1,46
 414 131 414 131 436 162.5 c 128,-1,47
 458 194 458 194 470 232 c 128,-1,48
 482 270 482 270 482 306 c 0,49,50
 482 333 482 333 476 357 c 1,51,-1
 529 360 l 1,52,53
 532 347 532 347 534 330 c 128,-1,54
 536 313 536 313 536 293 c 0,55,56
 536 217 536 217 494 136 c 1,57,58
 502 124 502 124 526 108 c 128,-1,59
 550 92 550 92 591 92 c 0,60,61
 659 92 659 92 689.5 135.5 c 128,-1,62
 720 179 720 179 720 255 c 0,63,64
 720 287 720 287 717 310 c 128,-1,65
 714 333 714 333 711 347 c 1,66,-1
 764 350 l 1,67,68
 767 337 767 337 770.5 311.5 c 128,-1,69
 774 286 774 286 774 246 c 0,70,71
 774 179 774 179 752 120.5 c 128,-1,72
 730 62 730 62 687.5 26 c 128,-1,73
 645 -10 645 -10 581 -10 c 0,74,75
 539 -10 539 -10 505 13 c 128,-1,76
 471 36 471 36 452 72 c 1,77,78
 422 36 422 36 383.5 13 c 128,-1,79
 345 -10 345 -10 300 -10 c 0,0,1
EndSplineSet
EndChar

StartChar: u11910
Encoding: 71952 71952 14
Width: 558
GlyphClass: 2
Flags: W
HStem: -11 56<60.373 350.647> 276 45<203 321.305> 367 41<80.9502 160.877> 537 52<175.462 367.135>
VStem: 20 50<419.051 498.587> 172 49<418.161 495.844> 408 100<94.1114 220.049 388.197 501.547>
AnchorPoint: "+BBEENQQ3BEsEPARPBD0EPQQ+BDUA--6" 447 274 basechar 0
AnchorPoint: "+BBEENQQ3BEsEPARPBD0EPQQ+BDUA--3" 275 -38 basechar 0
AnchorPoint: "+BBEENQQ3BEsEPARPBD0EPQQ+BDUA--2" 259 547 basechar 0
AnchorPoint: "+BBEENQQ3BEsEPARPBD0EPQQ+BDUA--0" 296 590 basechar 0
LayerCount: 2
Fore
SplineSet
234 -11 m 0,0,1
 191 -11 191 -11 147 -6.5 c 128,-1,2
 103 -2 103 -2 48 11 c 1,3,-1
 59 63 l 1,4,5
 103 55 103 55 139 50 c 128,-1,6
 175 45 175 45 221 45 c 0,7,8
 318 45 318 45 363 73.5 c 128,-1,9
 408 102 408 102 408 160 c 0,10,11
 408 202 408 202 379.5 226.5 c 128,-1,12
 351 251 351 251 304.5 262.5 c 128,-1,13
 258 274 258 274 203 276 c 1,14,-1
 203 321 l 1,15,16
 261 323 261 323 306.5 337.5 c 128,-1,17
 352 352 352 352 379 380 c 128,-1,18
 406 408 406 408 406 448 c 0,19,20
 406 497 406 497 364 517 c 128,-1,21
 322 537 322 537 251 537 c 0,22,23
 226 537 226 537 207 534.5 c 128,-1,24
 188 532 188 532 174 529 c 1,25,26
 195 521 195 521 208 502.5 c 128,-1,27
 221 484 221 484 221 458 c 0,28,29
 221 409 221 409 191.5 388 c 128,-1,30
 162 367 162 367 122 367 c 0,31,32
 79 367 79 367 49.5 388 c 128,-1,33
 20 409 20 409 20 459 c 0,34,35
 20 524 20 524 80 556.5 c 128,-1,36
 140 589 140 589 255 589 c 256,37,38
 370 589 370 589 437 553 c 128,-1,39
 504 517 504 517 504 446 c 0,40,41
 504 408 504 408 481.5 379 c 128,-1,42
 459 350 459 350 425.5 331 c 128,-1,43
 392 312 392 312 358 304 c 1,44,45
 393 297 393 297 427.5 277.5 c 128,-1,46
 462 258 462 258 485 228.5 c 128,-1,47
 508 199 508 199 508 159 c 0,48,49
 508 86 508 86 439.5 37.5 c 128,-1,50
 371 -11 371 -11 234 -11 c 0,0,1
122 408 m 0,51,52
 145 408 145 408 158.5 421 c 128,-1,53
 172 434 172 434 172 459 c 0,54,55
 172 477 172 477 160 492 c 128,-1,56
 148 507 148 507 121 507 c 0,57,58
 95 507 95 507 82.5 496 c 128,-1,59
 70 485 70 485 70 459 c 0,60,61
 70 437 70 437 82.5 422.5 c 128,-1,62
 95 408 95 408 122 408 c 0,51,52
EndSplineSet
EndChar

StartChar: u11911
Encoding: 71953 71953 15
Width: 817
GlyphClass: 2
Flags: W
HStem: -10 102<242.611 522.992> 393 57<118.378 228.968> 527 54<307.415 376.495>
VStem: 37 68<464.135 574.405> 396 60<374.145 508.383> 723 54<241.382 407.184>
AnchorPoint: "+BBEENQQ3BEsEPARPBD0EPQQ+BDUA--6" 732 380 basechar 0
AnchorPoint: "+BBEENQQ3BEsEPARPBD0EPQQ+BDUA--3" 514 -38 basechar 0
AnchorPoint: "+BBEENQQ3BEsEPARPBD0EPQQ+BDUA--2" 346 543 basechar 0
AnchorPoint: "+BBEENQQ3BEsEPARPBD0EPQQ+BDUA--0" 535 590 basechar 0
LayerCount: 2
Fore
SplineSet
379 -10 m 0,0,1
 240 -10 240 -10 166 56.5 c 128,-1,2
 92 123 92 123 92 239 c 2,3,-1
 92 251 l 1,4,5
 207 268 207 268 273.5 296.5 c 128,-1,6
 340 325 340 325 368 364 c 128,-1,7
 396 403 396 403 396 450 c 0,8,9
 396 495 396 495 371 510.5 c 128,-1,10
 346 526 346 526 313 527 c 1,11,12
 308 501 308 501 292 469.5 c 128,-1,13
 276 438 276 438 244 415.5 c 128,-1,14
 212 393 212 393 161 393 c 0,15,16
 106 393 106 393 71.5 423 c 128,-1,17
 37 453 37 453 37 516 c 0,18,19
 37 551 37 551 48 575 c 1,20,-1
 115 575 l 1,21,22
 111 561 111 561 108 547.5 c 128,-1,23
 105 534 105 534 105 520 c 0,24,25
 105 483 105 483 119.5 466.5 c 128,-1,26
 134 450 134 450 169 450 c 0,27,28
 213 450 213 450 238 481.5 c 128,-1,29
 263 513 263 513 271 581 c 1,30,-1
 281 581 l 2,31,32
 365 581 365 581 410.5 552.5 c 128,-1,33
 456 524 456 524 456 452 c 0,34,35
 456 386 456 386 417.5 337 c 128,-1,36
 379 288 379 288 309.5 255.5 c 128,-1,37
 240 223 240 223 148 206 c 1,38,39
 153 157 153 157 209.5 124.5 c 128,-1,40
 266 92 266 92 391 92 c 0,41,42
 487 92 487 92 562 120.5 c 128,-1,43
 637 149 637 149 680 205.5 c 128,-1,44
 723 262 723 262 723 345 c 0,45,46
 723 357 723 357 722 374 c 128,-1,47
 721 391 721 391 719 407 c 1,48,-1
 772 410 l 1,49,50
 777 377 777 377 777 336 c 0,51,52
 777 263 777 263 747 200.5 c 128,-1,53
 717 138 717 138 663 90.5 c 128,-1,54
 609 43 609 43 536.5 16.5 c 128,-1,55
 464 -10 464 -10 379 -10 c 0,0,1
EndSplineSet
EndChar

StartChar: u11912
Encoding: 71954 71954 16
Width: 1263
GlyphClass: 2
Flags: W
HStem: -191 91<595.79 890.092> -10 102<242.611 541.445> 73 58<766.511 902.378> 393 55<118.522 227.957> 442 67<801.395 933.694> 527 54<307.415 376.495> 602 54<742.771 979.075>
VStem: 40 65<462.928 574.405> 396 60<374.145 508.383> 540 58<255.788 462.698> 720 61<318.457 422.462> 767 49<197.18 312.46> 987 60<211.826 383.514> 1163 60<145.918 416.798>
AnchorPoint: "+BBEENQQ3BEsEPARPBD0EPQQ+BDUA--6" 1162 378 basechar 0
AnchorPoint: "+BBEENQQ3BEsEPARPBD0EPQQ+BDUA--3" 614 -138 basechar 0
AnchorPoint: "+BBEENQQ3BEsEPARPBD0EPQQ+BDUA--2" 347 543 basechar 0
AnchorPoint: "+BBEENQQ3BEsEPARPBD0EPQQ+BDUA--0" 515 590 basechar 0
LayerCount: 2
Fore
SplineSet
755 -191 m 0,0,1
 676 -191 676 -191 612 -174 c 128,-1,2
 548 -157 548 -157 505 -132 c 1,3,-1
 519 -85 l 1,4,5
 568 -93 568 -93 620 -96.5 c 128,-1,6
 672 -100 672 -100 740 -100 c 0,7,8
 796 -100 796 -100 855.5 -87 c 128,-1,9
 915 -74 915 -74 970 -46.5 c 128,-1,10
 1025 -19 1025 -19 1068.5 26 c 128,-1,11
 1112 71 1112 71 1137.5 135.5 c 128,-1,12
 1163 200 1163 200 1163 285 c 0,13,14
 1163 385 1163 385 1123.5 455.5 c 128,-1,15
 1084 526 1084 526 1015 564 c 128,-1,16
 946 602 946 602 858 602 c 0,17,18
 787 602 787 602 728 574 c 128,-1,19
 669 546 669 546 633.5 489.5 c 128,-1,20
 598 433 598 433 598 349 c 0,21,22
 598 291 598 291 627.5 241.5 c 128,-1,23
 657 192 657 192 704 163 c 1,24,25
 733 181 733 181 750 202.5 c 128,-1,26
 767 224 767 224 767 248 c 0,27,28
 767 267 767 267 761 282 c 128,-1,29
 755 297 755 297 746 311 c 0,30,31
 736 328 736 328 728 346.5 c 128,-1,32
 720 365 720 365 720 393 c 0,33,34
 720 447 720 447 761 478 c 128,-1,35
 802 509 802 509 860 509 c 0,36,37
 910 509 910 509 952.5 486 c 128,-1,38
 995 463 995 463 1021 418 c 128,-1,39
 1047 373 1047 373 1047 308 c 0,40,41
 1047 231 1047 231 1013 178.5 c 128,-1,42
 979 126 979 126 925 99.5 c 128,-1,43
 871 73 871 73 811 73 c 0,44,45
 761 73 761 73 714 91 c 1,46,47
 652 47 652 47 564 18.5 c 128,-1,48
 476 -10 476 -10 379 -10 c 0,49,50
 240 -10 240 -10 166 56.5 c 128,-1,51
 92 123 92 123 92 239 c 2,52,-1
 92 251 l 1,53,54
 207 268 207 268 273.5 296.5 c 128,-1,55
 340 325 340 325 368 364 c 128,-1,56
 396 403 396 403 396 450 c 0,57,58
 396 495 396 495 371 510.5 c 128,-1,59
 346 526 346 526 313 527 c 1,60,61
 308 501 308 501 292 469.5 c 128,-1,62
 276 438 276 438 244 415.5 c 128,-1,63
 212 393 212 393 161 393 c 0,64,65
 106 393 106 393 73 423 c 128,-1,66
 40 453 40 453 40 516 c 0,67,68
 40 551 40 551 51 575 c 1,69,-1
 115 575 l 1,70,71
 111 561 111 561 108 547.5 c 128,-1,72
 105 534 105 534 105 520 c 0,73,74
 105 483 105 483 119.5 465.5 c 128,-1,75
 134 448 134 448 169 448 c 0,76,77
 213 448 213 448 238 480.5 c 128,-1,78
 263 513 263 513 271 581 c 1,79,-1
 281 581 l 2,80,81
 365 581 365 581 410.5 552.5 c 128,-1,82
 456 524 456 524 456 452 c 0,83,84
 456 386 456 386 417.5 337 c 128,-1,85
 379 288 379 288 309.5 255.5 c 128,-1,86
 240 223 240 223 148 206 c 1,87,88
 153 157 153 157 209.5 124.5 c 128,-1,89
 266 92 266 92 391 92 c 0,90,91
 460 92 460 92 525 103 c 128,-1,92
 590 114 590 114 641 133 c 1,93,94
 595 170 595 170 567.5 224.5 c 128,-1,95
 540 279 540 279 540 344 c 0,96,97
 540 441 540 441 582.5 510.5 c 128,-1,98
 625 580 625 580 696.5 618 c 128,-1,99
 768 656 768 656 854 656 c 0,100,101
 958 656 958 656 1041.5 613 c 128,-1,102
 1125 570 1125 570 1174 487.5 c 128,-1,103
 1223 405 1223 405 1223 287 c 0,104,105
 1223 193 1223 193 1196 117 c 128,-1,106
 1169 41 1169 41 1122 -16.5 c 128,-1,107
 1075 -74 1075 -74 1015 -113 c 128,-1,108
 955 -152 955 -152 888 -171.5 c 128,-1,109
 821 -191 821 -191 755 -191 c 0,0,1
816 242 m 0,110,111
 816 215 816 215 803 188.5 c 128,-1,112
 790 162 790 162 766 136 c 1,113,114
 789 131 789 131 812 131 c 0,115,116
 857 131 857 131 897 150 c 128,-1,117
 937 169 937 169 962 207 c 128,-1,118
 987 245 987 245 987 301 c 0,119,120
 987 335 987 335 973.5 367.5 c 128,-1,121
 960 400 960 400 933 421 c 128,-1,122
 906 442 906 442 864 442 c 0,123,124
 823 442 823 442 802 422.5 c 128,-1,125
 781 403 781 403 781 376 c 0,126,127
 781 360 781 360 785.5 346 c 128,-1,128
 790 332 790 332 797 317 c 0,129,130
 805 301 805 301 810.5 283 c 128,-1,131
 816 265 816 265 816 242 c 0,110,111
EndSplineSet
EndChar

StartChar: u11913
Encoding: 71955 71955 17
Width: 758
GlyphClass: 2
Flags: W
HStem: -10 90<255.82 508.115> 256 53<565.885 649.731> 393 57<113.378 223.968> 527 54<302.415 371.495>
VStem: 32 68<464.135 574.405> 391 60<373.834 508.383> 497 50<98.469 234.336> 660 56<148.102 246.499>
AnchorPoint: "+BBEENQQ3BEsEPARPBD0EPQQ+BDUA--6" 559 -256 basechar 0
AnchorPoint: "+BBEENQQ3BEsEPARPBD0EPQQ+BDUA--3" 495 -38 basechar 0
AnchorPoint: "+BBEENQQ3BEsEPARPBD0EPQQ+BDUA--2" 342 543 basechar 0
AnchorPoint: "+BBEENQQ3BEsEPARPBD0EPQQ+BDUA--0" 516 590 basechar 0
LayerCount: 2
Fore
SplineSet
622 -94 m 1,0,1
 609 -82 609 -82 585.5 -53 c 128,-1,2
 562 -24 562 -24 540 15 c 1,3,4
 505 3 505 3 465.5 -3.5 c 128,-1,5
 426 -10 426 -10 382 -10 c 0,6,7
 230 -10 230 -10 158.5 57 c 128,-1,8
 87 124 87 124 87 239 c 2,9,-1
 87 251 l 1,10,11
 202 268 202 268 268.5 296.5 c 128,-1,12
 335 325 335 325 363 364 c 128,-1,13
 391 403 391 403 391 450 c 0,14,15
 391 495 391 495 366 510.5 c 128,-1,16
 341 526 341 526 308 527 c 1,17,18
 303 501 303 501 287 469.5 c 128,-1,19
 271 438 271 438 239 415.5 c 128,-1,20
 207 393 207 393 156 393 c 0,21,22
 101 393 101 393 66.5 423 c 128,-1,23
 32 453 32 453 32 516 c 0,24,25
 32 551 32 551 43 575 c 1,26,-1
 110 575 l 1,27,28
 106 561 106 561 103 547.5 c 128,-1,29
 100 534 100 534 100 520 c 0,30,31
 100 483 100 483 114.5 466.5 c 128,-1,32
 129 450 129 450 164 450 c 0,33,34
 208 450 208 450 233 481.5 c 128,-1,35
 258 513 258 513 266 581 c 1,36,-1
 276 581 l 2,37,38
 360 581 360 581 405.5 552.5 c 128,-1,39
 451 524 451 524 451 452 c 0,40,41
 451 387 451 387 413.5 338.5 c 128,-1,42
 376 290 376 290 309 257.5 c 128,-1,43
 242 225 242 225 153 208 c 1,44,45
 158 152 158 152 223 116 c 128,-1,46
 288 80 288 80 416 80 c 0,47,48
 468 80 468 80 509 87 c 1,49,50
 504 105 504 105 500.5 124.5 c 128,-1,51
 497 144 497 144 497 163 c 0,52,53
 497 214 497 214 515.5 246 c 128,-1,54
 534 278 534 278 562.5 293.5 c 128,-1,55
 591 309 591 309 621 309 c 0,56,57
 671 309 671 309 693.5 280.5 c 128,-1,58
 716 252 716 252 716 213 c 0,59,60
 716 159 716 159 681.5 112 c 128,-1,61
 647 65 647 65 586 34 c 1,62,63
 607 -1 607 -1 630.5 -26.5 c 128,-1,64
 654 -52 654 -52 666 -62 c 1,65,-1
 622 -94 l 1,0,1
547 162 m 0,66,67
 547 145 547 145 549.5 129 c 128,-1,68
 552 113 552 113 557 98 c 1,69,70
 615 116 615 116 637.5 147 c 128,-1,71
 660 178 660 178 660 209 c 0,72,73
 660 232 660 232 646.5 244 c 128,-1,74
 633 256 633 256 610 256 c 0,75,76
 585 256 585 256 566 235 c 128,-1,77
 547 214 547 214 547 162 c 0,66,67
EndSplineSet
EndChar

StartChar: u11915
Encoding: 71957 71957 18
Width: 963
GlyphClass: 2
Flags: W
HStem: -114 65<471.506 581.407> 493 96<155.463 316.049 496.97 661.503>
VStem: 35 61<274.548 435.437> 379 53<346 419.843> 394 66<-35.0509 92.9301> 729 60<176.013 305>
AnchorPoint: "+BBEENQQ3BEsEPARPBD0EPQQ+BDUA--3" 425 -138 basechar 0
AnchorPoint: "+BBEENQQ3BEsEPARPBD0EPQQ+BDUA--2" 350 543 basechar 0
AnchorPoint: "+BBEENQQ3BEsEPARPBD0EPQQ+BDUA--0" 446 590 basechar 0
LayerCount: 2
Fore
SplineSet
506 -114 m 0,0,1
 455 -114 455 -114 424.5 -85.5 c 128,-1,2
 394 -57 394 -57 394 0 c 0,3,4
 394 77 394 77 453 153.5 c 128,-1,5
 512 230 512 230 618 298 c 0,6,7
 644 315 644 315 671 330 c 128,-1,8
 698 345 698 345 726 359 c 1,9,10
 717 423 717 423 679 458 c 128,-1,11
 641 493 641 493 577 493 c 0,12,13
 530 493 530 493 499.5 473 c 128,-1,14
 469 453 469 453 453 420 c 128,-1,15
 437 387 437 387 432 346 c 1,16,-1
 379 346 l 1,17,18
 372 407 372 407 338.5 450 c 128,-1,19
 305 493 305 493 241 493 c 0,20,21
 203 493 203 493 170 479 c 128,-1,22
 137 465 137 465 116.5 434 c 128,-1,23
 96 403 96 403 96 351 c 0,24,25
 96 327 96 327 102 305 c 128,-1,26
 108 283 108 283 116 264 c 1,27,-1
 70 251 l 1,28,29
 57 271 57 271 46 300 c 128,-1,30
 35 329 35 329 35 369 c 0,31,32
 35 431 35 431 59.5 481 c 128,-1,33
 84 531 84 531 130 560 c 128,-1,34
 176 589 176 589 240 589 c 0,35,36
 288 589 288 589 321.5 567 c 128,-1,37
 355 545 355 545 375.5 510 c 128,-1,38
 396 475 396 475 405 436 c 1,39,40
 415 475 415 475 435 510 c 128,-1,41
 455 545 455 545 489.5 567 c 128,-1,42
 524 589 524 589 577 589 c 0,43,44
 673 589 673 589 724.5 532.5 c 128,-1,45
 776 476 776 476 786 386 c 1,46,47
 824 403 824 403 861.5 417.5 c 128,-1,48
 899 432 899 432 934 444 c 1,49,-1
 953 395 l 1,50,51
 916 383 916 383 874.5 368 c 128,-1,52
 833 353 833 353 789 334 c 1,53,54
 788 247 788 247 765 167 c 128,-1,55
 742 87 742 87 702 23.5 c 128,-1,56
 662 -40 662 -40 611.5 -77 c 128,-1,57
 561 -114 561 -114 506 -114 c 0,0,1
460 17 m 0,58,59
 460 -12 460 -12 472 -30.5 c 128,-1,60
 484 -49 484 -49 515 -49 c 0,61,62
 556 -49 556 -49 593.5 -19 c 128,-1,63
 631 11 631 11 661 62 c 128,-1,64
 691 113 691 113 709 176 c 128,-1,65
 727 239 727 239 729 305 c 1,66,67
 704 292 704 292 678 277.5 c 128,-1,68
 652 263 652 263 627 246 c 0,69,70
 551 196 551 196 505.5 134 c 128,-1,71
 460 72 460 72 460 17 c 0,58,59
EndSplineSet
EndChar

StartChar: u11916
Encoding: 71958 71958 19
Width: 745
GlyphClass: 2
Flags: W
HStem: -10 102<247.031 511.696> 517 74<165.458 322.156>
VStem: 26 57<509.313 591> 344 61<387.971 498.498> 651 54<177.759 297.184>
AnchorPoint: "+BBEENQQ3BEsEPARPBD0EPQQ+BDUA--3" 455 -38 basechar 0
AnchorPoint: "+BBEENQQ3BEsEPARPBD0EPQQ+BDUA--2" 270 543 basechar 0
AnchorPoint: "+BBEENQQ3BEsEPARPBD0EPQQ+BDUA--0" 476 590 basechar 0
LayerCount: 2
Fore
SplineSet
383 -10 m 0,0,1
 247 -10 247 -10 173.5 55 c 128,-1,2
 100 120 100 120 100 229 c 2,3,-1
 100 241 l 1,4,5
 173 271 173 271 227.5 305 c 128,-1,6
 282 339 282 339 313 375.5 c 128,-1,7
 344 412 344 412 344 449 c 0,8,9
 344 484 344 484 319.5 500.5 c 128,-1,10
 295 517 295 517 252 517 c 0,11,12
 204 517 204 517 163 500 c 128,-1,13
 122 483 122 483 76 450 c 1,14,-1
 26 450 l 1,15,-1
 26 591 l 1,16,-1
 83 591 l 1,17,-1
 83 531 l 2,18,19
 83 519 83 519 82 509 c 1,20,21
 117 545 117 545 162.5 568 c 128,-1,22
 208 591 208 591 257 591 c 0,23,24
 329 591 329 591 367 558.5 c 128,-1,25
 405 526 405 526 405 471 c 0,26,27
 405 422 405 422 382.5 381.5 c 128,-1,28
 360 341 360 341 323 308.5 c 128,-1,29
 286 276 286 276 242 249.5 c 128,-1,30
 198 223 198 223 155 201 c 1,31,32
 158 172 158 172 183 147 c 128,-1,33
 208 122 208 122 260 107 c 128,-1,34
 312 92 312 92 395 92 c 0,35,36
 464 92 464 92 522.5 109 c 128,-1,37
 581 126 581 126 616 161.5 c 128,-1,38
 651 197 651 197 651 252 c 0,39,40
 651 269 651 269 647 297 c 1,41,-1
 700 300 l 1,42,43
 705 277 705 277 705 253 c 0,44,45
 705 198 705 198 679.5 150 c 128,-1,46
 654 102 654 102 609.5 66 c 128,-1,47
 565 30 565 30 506.5 10 c 128,-1,48
 448 -10 448 -10 383 -10 c 0,0,1
EndSplineSet
EndChar

StartChar: u11918
Encoding: 71960 71960 20
Width: 886
GlyphClass: 2
Flags: W
HStem: -10 105<229.281 392.309 568.762 744.626> 393 57<113.378 223.968> 527 54<302.415 377.563>
VStem: 32 68<464.135 574.405> 140 66<115.97 217.127> 404 57<386.822 502.25> 457 53<153.465 204> 783 63<130.819 272.404>
AnchorPoint: "+BBEENQQ3BEsEPARPBD0EPQQ+BDUA--6" 728 333 basechar 0
AnchorPoint: "+BBEENQQ3BEsEPARPBD0EPQQ+BDUA--3" 535 -38 basechar 0
AnchorPoint: "+BBEENQQ3BEsEPARPBD0EPQQ+BDUA--2" 341 543 basechar 0
AnchorPoint: "+BBEENQQ3BEsEPARPBD0EPQQ+BDUA--0" 556 590 basechar 0
LayerCount: 2
Fore
SplineSet
302 -10 m 0,0,1
 233 -10 233 -10 186.5 28.5 c 128,-1,2
 140 67 140 67 140 141 c 0,3,4
 140 188 140 188 171.5 232.5 c 128,-1,5
 203 277 203 277 278 313 c 0,6,7
 340 343 340 343 372 375 c 128,-1,8
 404 407 404 407 404 453 c 0,9,10
 404 480 404 480 389.5 495.5 c 128,-1,11
 375 511 375 511 353 518.5 c 128,-1,12
 331 526 331 526 308 527 c 1,13,14
 303 500 303 500 287 469 c 128,-1,15
 271 438 271 438 239 415.5 c 128,-1,16
 207 393 207 393 156 393 c 0,17,18
 101 393 101 393 66.5 423 c 128,-1,19
 32 453 32 453 32 516 c 0,20,21
 32 551 32 551 43 575 c 1,22,-1
 110 575 l 1,23,24
 106 561 106 561 103 547.5 c 128,-1,25
 100 534 100 534 100 520 c 0,26,27
 100 483 100 483 114.5 466.5 c 128,-1,28
 129 450 129 450 164 450 c 0,29,30
 208 450 208 450 233 481.5 c 128,-1,31
 258 513 258 513 266 581 c 1,32,-1
 276 581 l 2,33,34
 360 581 360 581 410.5 552 c 128,-1,35
 461 523 461 523 461 455 c 0,36,37
 461 405 461 405 434.5 370 c 128,-1,38
 408 335 408 335 367 309.5 c 128,-1,39
 326 284 326 284 282 261 c 0,40,41
 231 235 231 235 218.5 209 c 128,-1,42
 206 183 206 183 206 163 c 0,43,44
 206 130 206 130 231.5 112.5 c 128,-1,45
 257 95 257 95 300 95 c 0,46,47
 355 95 355 95 386.5 110.5 c 128,-1,48
 418 126 418 126 434 151 c 128,-1,49
 450 176 450 176 457 204 c 1,50,-1
 510 204 l 1,51,52
 515 149 515 149 555 122 c 128,-1,53
 595 95 595 95 648 95 c 0,54,55
 783 95 783 95 783 192 c 0,56,57
 783 228 783 228 766 263.5 c 128,-1,58
 749 299 749 299 696 329 c 1,59,-1
 723 373 l 1,60,61
 776 347 776 347 811 297 c 128,-1,62
 846 247 846 247 846 178 c 0,63,64
 846 88 846 88 796.5 39 c 128,-1,65
 747 -10 747 -10 662 -10 c 0,66,67
 589 -10 589 -10 547 27.5 c 128,-1,68
 505 65 505 65 483 129 c 1,69,70
 472 94 472 94 448.5 62 c 128,-1,71
 425 30 425 30 389 10 c 128,-1,72
 353 -10 353 -10 302 -10 c 0,0,1
EndSplineSet
EndChar

StartChar: u11919
Encoding: 71961 71961 21
Width: 870
GlyphClass: 2
Flags: W
HStem: -10 105<213.281 376.309 552.762 728.626> 337 51<110.832 205.41> 537 52<215.822 335.578>
VStem: 40 57<402.217 491.841> 124 66<115.97 208.214> 219 57<401.492 491.643> 385 60<357.046 490.022> 441 53<153.465 204> 767 63<130.819 272.404>
AnchorPoint: "+BBEENQQ3BEsEPARPBD0EPQQ+BDUA--6" 712 333 basechar 0
AnchorPoint: "+BBEENQQ3BEsEPARPBD0EPQQ+BDUA--3" 535 -38 basechar 0
AnchorPoint: "+BBEENQQ3BEsEPARPBD0EPQQ+BDUA--2" 260 543 basechar 0
AnchorPoint: "+BBEENQQ3BEsEPARPBD0EPQQ+BDUA--0" 556 590 basechar 0
LayerCount: 2
Fore
SplineSet
286 -10 m 0,0,1
 217 -10 217 -10 170.5 28.5 c 128,-1,2
 124 67 124 67 124 141 c 0,3,4
 124 188 124 188 157 228.5 c 128,-1,5
 190 269 190 269 266 299 c 0,6,7
 328 324 328 324 356.5 350 c 128,-1,8
 385 376 385 376 385 428 c 0,9,10
 385 459 385 459 368 483.5 c 128,-1,11
 351 508 351 508 323 522.5 c 128,-1,12
 295 537 295 537 261 537 c 0,13,14
 236 537 236 537 215 533 c 1,15,16
 243 525 243 525 259.5 502 c 128,-1,17
 276 479 276 479 276 446 c 0,18,19
 276 387 276 387 240.5 362 c 128,-1,20
 205 337 205 337 157 337 c 0,21,22
 106 337 106 337 73 366 c 128,-1,23
 40 395 40 395 40 450 c 0,24,25
 40 489 40 489 66.5 520.5 c 128,-1,26
 93 552 93 552 141.5 570.5 c 128,-1,27
 190 589 190 589 255 589 c 0,28,29
 319 589 319 589 361 566 c 128,-1,30
 403 543 403 543 424 507 c 128,-1,31
 445 471 445 471 445 430 c 0,32,33
 445 375 445 375 420 341.5 c 128,-1,34
 395 308 395 308 355 287 c 128,-1,35
 315 266 315 266 270 247 c 0,36,37
 218 225 218 225 204 204 c 128,-1,38
 190 183 190 183 190 163 c 0,39,40
 190 130 190 130 215.5 112.5 c 128,-1,41
 241 95 241 95 284 95 c 0,42,43
 339 95 339 95 370.5 110.5 c 128,-1,44
 402 126 402 126 418 151 c 128,-1,45
 434 176 434 176 441 204 c 1,46,-1
 494 204 l 1,47,48
 499 149 499 149 539 122 c 128,-1,49
 579 95 579 95 632 95 c 0,50,51
 767 95 767 95 767 192 c 0,52,53
 767 228 767 228 750 263.5 c 128,-1,54
 733 299 733 299 680 329 c 1,55,-1
 707 373 l 1,56,57
 760 347 760 347 795 297 c 128,-1,58
 830 247 830 247 830 178 c 0,59,60
 830 88 830 88 780.5 39 c 128,-1,61
 731 -10 731 -10 646 -10 c 0,62,63
 573 -10 573 -10 531 27.5 c 128,-1,64
 489 65 489 65 467 129 c 1,65,66
 456 94 456 94 432.5 62 c 128,-1,67
 409 30 409 30 373 10 c 128,-1,68
 337 -10 337 -10 286 -10 c 0,0,1
159 388 m 0,69,70
 187 388 187 388 203 403 c 128,-1,71
 219 418 219 418 219 449 c 0,72,73
 219 471 219 471 205 488.5 c 128,-1,74
 191 506 191 506 158 506 c 0,75,76
 132 506 132 506 114.5 490.5 c 128,-1,77
 97 475 97 475 97 449 c 0,78,79
 97 422 97 422 112 405 c 128,-1,80
 127 388 127 388 159 388 c 0,69,70
EndSplineSet
EndChar

StartChar: u1191A
Encoding: 71962 71962 22
Width: 833
GlyphClass: 2
Flags: W
HStem: -10 88<340.732 551.084> 58 42<273.167 292.674> 183 57<139.18 239.377> 358 57<143.165 240.347> 493 96<149.334 321.783 506.97 673.651>
VStem: 43 52<346.867 440.752> 253 51<253.024 344.545> 389 53<346 419.993> 733 60<245.622 434.735>
AnchorPoint: "+BBEENQQ3BEsEPARPBD0EPQQ+BDUA--6" 738 380 basechar 0
AnchorPoint: "+BBEENQQ3BEsEPARPBD0EPQQ+BDUA--3" 425 -38 basechar 0
AnchorPoint: "+BBEENQQ3BEsEPARPBD0EPQQ+BDUA--2" 350 543 basechar 0
AnchorPoint: "+BBEENQQ3BEsEPARPBD0EPQQ+BDUA--0" 446 590 basechar 0
LayerCount: 2
Fore
SplineSet
463 -10 m 0,0,1
 396 -10 396 -10 351 7.5 c 128,-1,2
 306 25 306 25 264 58 c 1,3,-1
 275 100 l 1,4,5
 316 89 316 89 351.5 83.5 c 128,-1,6
 387 78 387 78 430 78 c 0,7,8
 492 78 492 78 546.5 98 c 128,-1,9
 601 118 601 118 643 154.5 c 128,-1,10
 685 191 685 191 709 240.5 c 128,-1,11
 733 290 733 290 733 348 c 0,12,13
 733 401 733 401 712.5 433 c 128,-1,14
 692 465 692 465 658.5 479 c 128,-1,15
 625 493 625 493 587 493 c 0,16,17
 540 493 540 493 509.5 473 c 128,-1,18
 479 453 479 453 463 420 c 128,-1,19
 447 387 447 387 442 346 c 1,20,-1
 389 346 l 1,21,22
 384 387 384 387 367 420 c 128,-1,23
 350 453 350 453 319 473 c 128,-1,24
 288 493 288 493 239 493 c 0,25,26
 162 493 162 493 128.5 456 c 128,-1,27
 95 419 95 419 95 366 c 0,28,29
 95 357 95 357 97 346 c 1,30,31
 105 374 105 374 130 394.5 c 128,-1,32
 155 415 155 415 194 415 c 0,33,34
 255 415 255 415 279.5 380 c 128,-1,35
 304 345 304 345 304 298 c 0,36,37
 304 248 304 248 274 215.5 c 128,-1,38
 244 183 244 183 188 183 c 0,39,40
 124 183 124 183 83.5 234.5 c 128,-1,41
 43 286 43 286 43 374 c 0,42,43
 43 434 43 434 67.5 482.5 c 128,-1,44
 92 531 92 531 136.5 560 c 128,-1,45
 181 589 181 589 240 589 c 0,46,47
 293 589 293 589 328.5 567 c 128,-1,48
 364 545 364 545 385 510 c 128,-1,49
 406 475 406 475 415 436 c 1,50,51
 425 475 425 475 445 510 c 128,-1,52
 465 545 465 545 499.5 567 c 128,-1,53
 534 589 534 589 587 589 c 0,54,55
 652 589 652 589 698 559.5 c 128,-1,56
 744 530 744 530 768.5 479.5 c 128,-1,57
 793 429 793 429 793 365 c 0,58,59
 793 292 793 292 764.5 225 c 128,-1,60
 736 158 736 158 688.5 105 c 128,-1,61
 641 52 641 52 582 21 c 128,-1,62
 523 -10 523 -10 463 -10 c 0,0,1
191 240 m 0,63,64
 220 240 220 240 236.5 254.5 c 128,-1,65
 253 269 253 269 253 300 c 0,66,67
 253 327 253 327 238 342.5 c 128,-1,68
 223 358 223 358 191 358 c 0,69,70
 164 358 164 358 145 341 c 128,-1,71
 126 324 126 324 126 298 c 0,72,73
 126 266 126 266 143 253 c 128,-1,74
 160 240 160 240 191 240 c 0,63,64
EndSplineSet
EndChar

StartChar: u1191B
Encoding: 71963 71963 23
Width: 767
GlyphClass: 2
Flags: W
HStem: -271 91<146.896 431.809> -10 56<183.742 326.044> 314 54<303.037 429> 502 87<200.508 356.669>
VStem: 86 70<73.2354 209.349> 435 60<177.94 314> 667 60<4.49567 216.954>
AnchorPoint: "+BBEENQQ3BEsEPARPBD0EPQQ+BDUA--3" 455 -276 basechar 0
AnchorPoint: "+BBEENQQ3BEsEPARPBD0EPQQ+BDUA--2" 310 543 basechar 0
AnchorPoint: "+BBEENQQ3BEsEPARPBD0EPQQ+BDUA--0" 476 590 basechar 0
LayerCount: 2
Fore
SplineSet
286 -271 m 0,0,1
 207 -271 207 -271 141 -247.5 c 128,-1,2
 75 -224 75 -224 40 -192 c 1,3,-1
 54 -145 l 1,4,5
 95 -161 95 -161 150 -170.5 c 128,-1,6
 205 -180 205 -180 281 -180 c 0,7,8
 328 -180 328 -180 381 -171.5 c 128,-1,9
 434 -163 434 -163 485 -143 c 128,-1,10
 536 -123 536 -123 577 -88.5 c 128,-1,11
 618 -54 618 -54 642.5 -2.5 c 128,-1,12
 667 49 667 49 667 120 c 0,13,14
 667 197 667 197 624 251.5 c 128,-1,15
 581 306 581 306 495 314 c 1,16,17
 494 215 494 215 460.5 142.5 c 128,-1,18
 427 70 427 70 371 30 c 128,-1,19
 315 -10 315 -10 247 -10 c 256,20,21
 179 -10 179 -10 132.5 25 c 128,-1,22
 86 60 86 60 86 130 c 0,23,24
 86 197 86 197 130.5 249 c 128,-1,25
 175 301 175 301 252.5 332 c 128,-1,26
 330 363 330 363 429 368 c 1,27,28
 414 441 414 441 370.5 471.5 c 128,-1,29
 327 502 327 502 279 502 c 0,30,31
 236 502 236 502 206 484 c 128,-1,32
 176 466 176 466 158.5 441 c 128,-1,33
 141 416 141 416 134 395 c 1,34,-1
 83 403 l 1,35,36
 88 455 88 455 113 497 c 128,-1,37
 138 539 138 539 181 564 c 128,-1,38
 224 589 224 589 282 589 c 0,39,40
 365 589 365 589 423 533 c 128,-1,41
 481 477 481 477 493 368 c 1,42,43
 602 360 602 360 664.5 293 c 128,-1,44
 727 226 727 226 727 122 c 0,45,46
 727 42 727 42 701 -21.5 c 128,-1,47
 675 -85 675 -85 630 -132 c 128,-1,48
 585 -179 585 -179 528 -209.5 c 128,-1,49
 471 -240 471 -240 408.5 -255.5 c 128,-1,50
 346 -271 346 -271 286 -271 c 0,0,1
156 136 m 0,51,52
 156 92 156 92 181.5 69 c 128,-1,53
 207 46 207 46 249 46 c 0,54,55
 299 46 299 46 341.5 78 c 128,-1,56
 384 110 384 110 409.5 168 c 128,-1,57
 435 226 435 226 435 304 c 0,58,59
 435 310 435 310 435 314 c 1,60,61
 351 310 351 310 288.5 287.5 c 128,-1,62
 226 265 226 265 191 226.5 c 128,-1,63
 156 188 156 188 156 136 c 0,51,52
EndSplineSet
Substitution2: "Single Substitution lookup 6 subtable" tatouchdivesakuru
Substitution2: "Single Substitution lookup 5 subtable" tatouchdivesakuru
EndChar

StartChar: u1191C
Encoding: 71964 71964 24
Width: 639
GlyphClass: 2
Flags: W
HStem: -10 100<216.639 455.082> 259 50<454.399 535.259> 507 74<178.66 324.392>
VStem: 40 57<499.313 581> 337 62<378.592 492.934> 380 54<151 239.096> 546 53<144.844 247.519>
AnchorPoint: "+BBEENQQ3BEsEPARPBD0EPQQ+BDUA--6" 509 256 basechar 0
AnchorPoint: "+BBEENQQ3BEsEPARPBD0EPQQ+BDUA--3" 395 -38 basechar 0
AnchorPoint: "+BBEENQQ3BEsEPARPBD0EPQQ+BDUA--2" 292 536 basechar 0
AnchorPoint: "+BBEENQQ3BEsEPARPBD0EPQQ+BDUA--0" 416 590 basechar 0
LayerCount: 2
Fore
SplineSet
326 -10 m 0,0,1
 254 -10 254 -10 203 18.5 c 128,-1,2
 152 47 152 47 125.5 94.5 c 128,-1,3
 99 142 99 142 99 199 c 2,4,-1
 99 211 l 1,5,6
 208 263 208 263 272.5 326 c 128,-1,7
 337 389 337 389 337 448 c 256,8,9
 337 507 337 507 259 507 c 0,10,11
 216 507 216 507 176 490 c 128,-1,12
 136 473 136 473 90 440 c 1,13,-1
 40 440 l 1,14,-1
 40 581 l 1,15,-1
 97 581 l 1,16,-1
 97 521 l 2,17,18
 97 509 97 509 96 499 c 1,19,20
 131 535 131 535 176 558 c 128,-1,21
 221 581 221 581 270 581 c 0,22,23
 335 581 335 581 367 549 c 128,-1,24
 399 517 399 517 399 459 c 0,25,26
 399 412 399 412 377.5 371 c 128,-1,27
 356 330 356 330 320 294.5 c 128,-1,28
 284 259 284 259 241 228.5 c 128,-1,29
 198 198 198 198 156 173 c 1,30,31
 163 139 163 139 207 114.5 c 128,-1,32
 251 90 251 90 343 90 c 0,33,34
 408 90 408 90 448 101 c 128,-1,35
 488 112 488 112 509 129.5 c 128,-1,36
 530 147 530 147 538 166.5 c 128,-1,37
 546 186 546 186 546 203 c 0,38,39
 546 228 546 228 533.5 243.5 c 128,-1,40
 521 259 521 259 499 259 c 0,41,42
 473 259 473 259 453.5 236.5 c 128,-1,43
 434 214 434 214 434 151 c 1,44,-1
 380 151 l 1,45,46
 380 209 380 209 397 243.5 c 128,-1,47
 414 278 414 278 441 293.5 c 128,-1,48
 468 309 468 309 498 309 c 0,49,50
 537 309 537 309 559 292 c 128,-1,51
 581 275 581 275 590 250.5 c 128,-1,52
 599 226 599 226 599 201 c 0,53,54
 599 151 599 151 568 102 c 128,-1,55
 537 53 537 53 476.5 21.5 c 128,-1,56
 416 -10 416 -10 326 -10 c 0,0,1
EndSplineSet
EndChar

StartChar: u1191D
Encoding: 71965 71965 25
Width: 556
GlyphClass: 2
Flags: W
HStem: -11 56<48.5587 336.62> 240 51<205.115 374.568> 537 52<84.0332 380.38>
VStem: 128 57<300.307 356.048> 404 102<99.9399 210.875 436.526 514.948>
AnchorPoint: "+BBEENQQ3BEsEPARPBD0EPQQ+BDUA--6" 385 383 basechar 0
AnchorPoint: "+BBEENQQ3BEsEPARPBD0EPQQ+BDUA--3" 275 -38 basechar 0
AnchorPoint: "+BBEENQQ3BEsEPARPBD0EPQQ+BDUA--2" 252 546 basechar 0
AnchorPoint: "+BBEENQQ3BEsEPARPBD0EPQQ+BDUA--1" 319 495 basechar 0
AnchorPoint: "+BBEENQQ3BEsEPARPBD0EPQQ+BDUA--0" 296 590 basechar 0
LayerCount: 2
Fore
SplineSet
218 -11 m 0,0,1
 167 -11 167 -11 123.5 -6 c 128,-1,2
 80 -1 80 -1 36 11 c 1,3,-1
 47 63 l 1,4,5
 97 54 97 54 131.5 49.5 c 128,-1,6
 166 45 166 45 205 45 c 0,7,8
 306 45 306 45 355 76 c 128,-1,9
 404 107 404 107 404 162 c 0,10,11
 404 193 404 193 386.5 209.5 c 128,-1,12
 369 226 369 226 340 232.5 c 128,-1,13
 311 239 311 239 278 240 c 0,14,15
 242 241 242 241 207.5 246 c 128,-1,16
 173 251 173 251 150.5 267.5 c 128,-1,17
 128 284 128 284 128 321 c 0,18,19
 128 360 128 360 151 379.5 c 128,-1,20
 174 399 174 399 208 406.5 c 128,-1,21
 242 414 242 414 274 416 c 0,22,23
 345 421 345 421 373.5 432 c 128,-1,24
 402 443 402 443 402 476 c 0,25,26
 402 502 402 502 382.5 515 c 128,-1,27
 363 528 363 528 330.5 532.5 c 128,-1,28
 298 537 298 537 259 537 c 0,29,30
 198 537 198 537 157 532 c 128,-1,31
 116 527 116 527 83 520 c 1,32,-1
 67 568 l 1,33,34
 96 577 96 577 146 583 c 128,-1,35
 196 589 196 589 252 589 c 0,36,37
 380 589 380 589 441 560.5 c 128,-1,38
 502 532 502 532 502 479 c 0,39,40
 502 437 502 437 476 413.5 c 128,-1,41
 450 390 450 390 406.5 380 c 128,-1,42
 363 370 363 370 310 368 c 0,43,44
 248 366 248 366 216.5 359 c 128,-1,45
 185 352 185 352 185 327 c 0,46,47
 185 308 185 308 204.5 300.5 c 128,-1,48
 224 293 224 293 267 291 c 0,49,50
 346 289 346 289 399 278 c 128,-1,51
 452 267 452 267 479 240 c 128,-1,52
 506 213 506 213 506 161 c 0,53,54
 506 118 506 118 474 78.5 c 128,-1,55
 442 39 442 39 378 14 c 128,-1,56
 314 -11 314 -11 218 -11 c 0,0,1
EndSplineSet
EndChar

StartChar: u1191E
Encoding: 71966 71966 26
Width: 949
GlyphClass: 2
Flags: W
HStem: -10 95<290.042 479.376 612.506 782.616> 276 58<499.999 589.076> 337 51<110.832 205.41> 537 52<215.822 345.117>
VStem: 40 57<402.217 491.841> 193 66<114.042 232.586> 219 57<401.492 491.643> 375 60<385.315 509.678> 435 53<140.828 265.157> 603 61<144.269 261.398> 852 57<151.622 373.794>
AnchorPoint: "+BBEENQQ3BEsEPARPBD0EPQQ+BDUA--3" 575 -38 basechar 0
AnchorPoint: "+BBEENQQ3BEsEPARPBD0EPQQ+BDUA--2" 262 536 basechar 0
AnchorPoint: "+BBEENQQ3BEsEPARPBD0EPQQ+BDUA--0" 596 590 basechar 0
LayerCount: 2
Fore
SplineSet
390 -10 m 0,0,1
 342 -10 342 -10 297 3.5 c 128,-1,2
 252 17 252 17 222.5 52 c 128,-1,3
 193 87 193 87 193 149 c 0,4,5
 193 189 193 189 207.5 219 c 128,-1,6
 222 249 222 249 245 273.5 c 128,-1,7
 268 298 268 298 293 321 c 0,8,9
 325 350 325 350 350 381 c 128,-1,10
 375 412 375 412 375 459 c 0,11,12
 375 499 375 499 341.5 518 c 128,-1,13
 308 537 308 537 261 537 c 0,14,15
 236 537 236 537 215 533 c 1,16,17
 243 525 243 525 259.5 502 c 128,-1,18
 276 479 276 479 276 446 c 0,19,20
 276 387 276 387 240.5 362 c 128,-1,21
 205 337 205 337 157 337 c 0,22,23
 106 337 106 337 73 366 c 128,-1,24
 40 395 40 395 40 450 c 0,25,26
 40 489 40 489 66.5 520.5 c 128,-1,27
 93 552 93 552 141.5 570.5 c 128,-1,28
 190 589 190 589 255 589 c 0,29,30
 346 589 346 589 390.5 552.5 c 128,-1,31
 435 516 435 516 435 461 c 0,32,33
 435 424 435 424 421.5 396 c 128,-1,34
 408 368 408 368 387 345.5 c 128,-1,35
 366 323 366 323 342 301 c 0,36,37
 307 269 307 269 283 236.5 c 128,-1,38
 259 204 259 204 259 165 c 0,39,40
 259 122 259 122 295.5 103.5 c 128,-1,41
 332 85 332 85 401 85 c 0,42,43
 445 85 445 85 480 92 c 1,44,45
 435 150 435 150 435 207 c 0,46,47
 435 251 435 251 452 279 c 128,-1,48
 469 307 469 307 495 320.5 c 128,-1,49
 521 334 521 334 548 334 c 0,50,51
 604 334 604 334 634 299.5 c 128,-1,52
 664 265 664 265 664 214 c 0,53,54
 664 147 664 147 612 87 c 1,55,56
 638 82 638 82 667 82 c 0,57,58
 756 82 756 82 804 120.5 c 128,-1,59
 852 159 852 159 852 254 c 0,60,61
 852 314 852 314 834 378 c 1,62,-1
 880 389 l 1,63,64
 894 363 894 363 901.5 327 c 128,-1,65
 909 291 909 291 909 247 c 0,66,67
 909 176 909 176 886 117.5 c 128,-1,68
 863 59 863 59 813 24.5 c 128,-1,69
 763 -10 763 -10 682 -10 c 0,70,71
 643 -10 643 -10 609 1 c 128,-1,72
 575 12 575 12 546 31 c 1,73,74
 514 12 514 12 475 1 c 128,-1,75
 436 -10 436 -10 390 -10 c 0,0,1
159 388 m 0,76,77
 187 388 187 388 203 403 c 128,-1,78
 219 418 219 418 219 449 c 0,79,80
 219 471 219 471 205 488.5 c 128,-1,81
 191 506 191 506 158 506 c 0,82,83
 132 506 132 506 114.5 490.5 c 128,-1,84
 97 475 97 475 97 449 c 0,85,86
 97 422 97 422 112 405 c 128,-1,87
 127 388 127 388 159 388 c 0,76,77
488 206 m 0,88,89
 488 175 488 175 502.5 151.5 c 128,-1,90
 517 128 517 128 542 112 c 1,91,92
 574 129 574 129 588.5 154.5 c 128,-1,93
 603 180 603 180 603 212 c 0,94,95
 603 241 603 241 588 258.5 c 128,-1,96
 573 276 573 276 547 276 c 0,97,98
 488 276 488 276 488 206 c 0,88,89
EndSplineSet
EndChar

StartChar: u1191F
Encoding: 71967 71967 27
Width: 823
GlyphClass: 2
Flags: W
HStem: -6 88<310.327 535.417> 52 53<262.491 278.023> 493 96<155.463 316.049 496.97 663.651>
VStem: 35 61<274.548 435.437> 379 53<346 419.843> 723 60<249.792 434.735>
AnchorPoint: "+BBEENQQ3BEsEPARPBD0EPQQ+BDUA--6" 728 380 basechar 0
AnchorPoint: "+BBEENQQ3BEsEPARPBD0EPQQ+BDUA--4" 718 489 basechar 0
AnchorPoint: "+BBEENQQ3BEsEPARPBD0EPQQ+BDUA--3" 415 -38 basechar 0
AnchorPoint: "+BBEENQQ3BEsEPARPBD0EPQQ+BDUA--2" 330 543 basechar 0
AnchorPoint: "+BBEENQQ3BEsEPARPBD0EPQQ+BDUA--1" 589 494 basechar 0
AnchorPoint: "+BBEENQQ3BEsEPARPBD0EPQQ+BDUA--0" 416 590 basechar 0
LayerCount: 2
Fore
SplineSet
431 -6 m 0,0,1
 379 -6 379 -6 330 9 c 128,-1,2
 281 24 281 24 246 52 c 1,3,-1
 265 105 l 1,4,5
 294 96 294 96 331.5 89 c 128,-1,6
 369 82 369 82 415 82 c 0,7,8
 475 82 475 82 530.5 102 c 128,-1,9
 586 122 586 122 629.5 158.5 c 128,-1,10
 673 195 673 195 698 243 c 128,-1,11
 723 291 723 291 723 348 c 0,12,13
 723 401 723 401 702.5 433 c 128,-1,14
 682 465 682 465 648.5 479 c 128,-1,15
 615 493 615 493 577 493 c 0,16,17
 530 493 530 493 499.5 473 c 128,-1,18
 469 453 469 453 453 420 c 128,-1,19
 437 387 437 387 432 346 c 1,20,-1
 379 346 l 1,21,22
 372 407 372 407 338.5 450 c 128,-1,23
 305 493 305 493 241 493 c 0,24,25
 203 493 203 493 170 479 c 128,-1,26
 137 465 137 465 116.5 434 c 128,-1,27
 96 403 96 403 96 351 c 0,28,29
 96 327 96 327 102 305 c 128,-1,30
 108 283 108 283 116 264 c 1,31,-1
 70 251 l 1,32,33
 57 271 57 271 46 300 c 128,-1,34
 35 329 35 329 35 369 c 0,35,36
 35 431 35 431 59.5 481 c 128,-1,37
 84 531 84 531 130 560 c 128,-1,38
 176 589 176 589 240 589 c 0,39,40
 288 589 288 589 321.5 567 c 128,-1,41
 355 545 355 545 375.5 510 c 128,-1,42
 396 475 396 475 405 436 c 1,43,44
 415 475 415 475 435 510 c 128,-1,45
 455 545 455 545 489.5 567 c 128,-1,46
 524 589 524 589 577 589 c 0,47,48
 642 589 642 589 688 559.5 c 128,-1,49
 734 530 734 530 758.5 479.5 c 128,-1,50
 783 429 783 429 783 365 c 0,51,52
 783 290 783 290 755.5 223 c 128,-1,53
 728 156 728 156 679.5 104.5 c 128,-1,54
 631 53 631 53 567.5 23.5 c 128,-1,55
 504 -6 504 -6 431 -6 c 0,0,1
EndSplineSet
Substitution2: "Single Substitution lookup 5 subtable" natouchdivesakuru
EndChar

StartChar: u11920
Encoding: 71968 71968 28
Width: 858
GlyphClass: 2
Flags: W
HStem: -10 102<299.988 572.673> 337 51<110.832 205.41> 537 52<214.357 330.644>
VStem: 40 57<402.217 491.841> 219 57<401.492 491.643> 374 60<356.21 495.058> 764 54<238.535 407.184>
AnchorPoint: "+BBEENQQ3BEsEPARPBD0EPQQ+BDUA--6" 773 380 basechar 0
AnchorPoint: "+BBEENQQ3BEsEPARPBD0EPQQ+BDUA--3" 545 -38 basechar 0
AnchorPoint: "+BBEENQQ3BEsEPARPBD0EPQQ+BDUA--2" 262 536 basechar 0
AnchorPoint: "+BBEENQQ3BEsEPARPBD0EPQQ+BDUA--0" 566 590 basechar 0
LayerCount: 2
Fore
SplineSet
430 -10 m 0,0,1
 348 -10 348 -10 283 18.5 c 128,-1,2
 218 47 218 47 180.5 100 c 128,-1,3
 143 153 143 153 143 227 c 2,4,-1
 143 239 l 1,5,6
 218 254 218 254 263.5 278 c 128,-1,7
 309 302 309 302 333 330 c 128,-1,8
 357 358 357 358 365.5 384.5 c 128,-1,9
 374 411 374 411 374 432 c 0,10,11
 374 477 374 477 341.5 507 c 128,-1,12
 309 537 309 537 253 537 c 0,13,14
 233 537 233 537 214 534 c 1,15,16
 242 525 242 525 259 502 c 128,-1,17
 276 479 276 479 276 446 c 0,18,19
 276 387 276 387 240.5 362 c 128,-1,20
 205 337 205 337 157 337 c 0,21,22
 106 337 106 337 73 366 c 128,-1,23
 40 395 40 395 40 450 c 0,24,25
 40 489 40 489 66.5 520.5 c 128,-1,26
 93 552 93 552 141.5 570.5 c 128,-1,27
 190 589 190 589 255 589 c 0,28,29
 318 589 318 589 357.5 567 c 128,-1,30
 397 545 397 545 415.5 509.5 c 128,-1,31
 434 474 434 474 434 434 c 0,32,33
 434 387 434 387 408.5 340.5 c 128,-1,34
 383 294 383 294 330.5 256 c 128,-1,35
 278 218 278 218 199 196 c 1,36,37
 206 151 206 151 268.5 121.5 c 128,-1,38
 331 92 331 92 442 92 c 0,39,40
 538 92 538 92 610.5 120.5 c 128,-1,41
 683 149 683 149 723.5 205.5 c 128,-1,42
 764 262 764 262 764 345 c 0,43,44
 764 357 764 357 763 374 c 128,-1,45
 762 391 762 391 760 407 c 1,46,-1
 813 410 l 1,47,48
 818 377 818 377 818 336 c 0,49,50
 818 263 818 263 789.5 200.5 c 128,-1,51
 761 138 761 138 709 90.5 c 128,-1,52
 657 43 657 43 586 16.5 c 128,-1,53
 515 -10 515 -10 430 -10 c 0,0,1
159 388 m 0,54,55
 187 388 187 388 203 403 c 128,-1,56
 219 418 219 418 219 449 c 0,57,58
 219 471 219 471 205 488.5 c 128,-1,59
 191 506 191 506 158 506 c 0,60,61
 132 506 132 506 114.5 490.5 c 128,-1,62
 97 475 97 475 97 449 c 0,63,64
 97 422 97 422 112 405 c 128,-1,65
 127 388 127 388 159 388 c 0,54,55
EndSplineSet
Substitution2: "Single Substitution lookup 5 subtable" patouchdivesakuru
EndChar

StartChar: u11921
Encoding: 71969 71969 29
Width: 1030
GlyphClass: 2
Flags: W
HStem: -257 86<424.842 680.484> -10 102<299.988 581.888> 337 51<110.832 205.41> 537 52<214.357 330.644>
VStem: 40 57<402.217 491.841> 219 57<401.492 491.643> 374 60<356.21 495.058> 764 54<226.082 342.391> 925 60<47.671 251.64>
AnchorPoint: "+BBEENQQ3BEsEPARPBD0EPQQ+BDUA--6" 762 382 basechar 0
AnchorPoint: "+BBEENQQ3BEsEPARPBD0EPQQ+BDUA--3" 585 -277 basechar 0
AnchorPoint: "+BBEENQQ3BEsEPARPBD0EPQQ+BDUA--2" 252 536 basechar 0
AnchorPoint: "+BBEENQQ3BEsEPARPBD0EPQQ+BDUA--0" 606 590 basechar 0
LayerCount: 2
Fore
SplineSet
430 -10 m 0,0,1
 348 -10 348 -10 283 18.5 c 128,-1,2
 218 47 218 47 180.5 100 c 128,-1,3
 143 153 143 153 143 227 c 2,4,-1
 143 239 l 1,5,6
 218 254 218 254 263.5 278 c 128,-1,7
 309 302 309 302 333 330 c 128,-1,8
 357 358 357 358 365.5 384.5 c 128,-1,9
 374 411 374 411 374 432 c 0,10,11
 374 477 374 477 341.5 507 c 128,-1,12
 309 537 309 537 253 537 c 0,13,14
 233 537 233 537 214 534 c 1,15,16
 242 525 242 525 259 502 c 128,-1,17
 276 479 276 479 276 446 c 0,18,19
 276 387 276 387 240.5 362 c 128,-1,20
 205 337 205 337 157 337 c 0,21,22
 106 337 106 337 73 366 c 128,-1,23
 40 395 40 395 40 450 c 0,24,25
 40 489 40 489 66.5 520.5 c 128,-1,26
 93 552 93 552 141.5 570.5 c 128,-1,27
 190 589 190 589 255 589 c 0,28,29
 318 589 318 589 357.5 567 c 128,-1,30
 397 545 397 545 415.5 509.5 c 128,-1,31
 434 474 434 474 434 434 c 0,32,33
 434 387 434 387 408.5 340.5 c 128,-1,34
 383 294 383 294 330.5 256 c 128,-1,35
 278 218 278 218 199 196 c 1,36,37
 206 151 206 151 268.5 121.5 c 128,-1,38
 331 92 331 92 442 92 c 0,39,40
 600 92 600 92 682 154 c 128,-1,41
 764 216 764 216 764 328 c 0,42,43
 764 369 764 369 749 409 c 1,44,-1
 796 409 l 1,45,46
 885 378 885 378 935 308 c 128,-1,47
 985 238 985 238 985 139 c 0,48,49
 985 63 985 63 958 -8 c 128,-1,50
 931 -79 931 -79 879 -135.5 c 128,-1,51
 827 -192 827 -192 752.5 -224.5 c 128,-1,52
 678 -257 678 -257 584 -257 c 0,53,54
 509 -257 509 -257 447.5 -241.5 c 128,-1,55
 386 -226 386 -226 338 -194 c 1,56,-1
 346 -150 l 1,57,58
 390 -162 390 -162 434.5 -166.5 c 128,-1,59
 479 -171 479 -171 522 -171 c 0,60,61
 613 -171 613 -171 680 -149.5 c 128,-1,62
 747 -128 747 -128 794 -92.5 c 128,-1,63
 841 -57 841 -57 870 -14.5 c 128,-1,64
 899 28 899 28 912 71.5 c 128,-1,65
 925 115 925 115 925 152 c 0,66,67
 925 211 925 211 899.5 259.5 c 128,-1,68
 874 308 874 308 817 343 c 1,69,70
 818 334 818 334 818 324 c 0,71,72
 818 233 818 233 772.5 157 c 128,-1,73
 727 81 727 81 640.5 35.5 c 128,-1,74
 554 -10 554 -10 430 -10 c 0,0,1
159 388 m 0,75,76
 187 388 187 388 203 403 c 128,-1,77
 219 418 219 418 219 449 c 0,78,79
 219 471 219 471 205 488.5 c 128,-1,80
 191 506 191 506 158 506 c 0,81,82
 132 506 132 506 114.5 490.5 c 128,-1,83
 97 475 97 475 97 449 c 0,84,85
 97 422 97 422 112 405 c 128,-1,86
 127 388 127 388 159 388 c 0,75,76
EndSplineSet
EndChar

StartChar: u11922
Encoding: 71970 71970 30
Width: 745
GlyphClass: 2
Flags: W
HStem: -10 102<243.317 452.817> 337 51<110.832 205.41> 456 47<557.511 603.227> 537 52<214.357 330.644>
VStem: 40 57<402.217 491.841> 219 57<401.492 491.643> 374 60<353.527 495.058> 657 48<267.617 409.361>
AnchorPoint: "+BBEENQQ3BEsEPARPBD0EPQQ+BDUA--3" 475 -38 basechar 0
AnchorPoint: "+BBEENQQ3BEsEPARPBD0EPQQ+BDUA--2" 246 536 basechar 0
AnchorPoint: "+BBEENQQ3BEsEPARPBD0EPQQ+BDUA--0" 496 590 basechar 0
LayerCount: 2
Fore
SplineSet
340 -10 m 0,0,1
 249 -10 249 -10 196 48.5 c 128,-1,2
 143 107 143 107 143 203 c 2,3,-1
 143 215 l 1,4,5
 218 238 218 238 263.5 266.5 c 128,-1,6
 309 295 309 295 333 325.5 c 128,-1,7
 357 356 357 356 365.5 383.5 c 128,-1,8
 374 411 374 411 374 432 c 0,9,10
 374 477 374 477 341.5 507 c 128,-1,11
 309 537 309 537 253 537 c 0,12,13
 233 537 233 537 214 534 c 1,14,15
 242 525 242 525 259 502 c 128,-1,16
 276 479 276 479 276 446 c 0,17,18
 276 387 276 387 240.5 362 c 128,-1,19
 205 337 205 337 157 337 c 0,20,21
 106 337 106 337 73 366 c 128,-1,22
 40 395 40 395 40 450 c 0,23,24
 40 489 40 489 66.5 520.5 c 128,-1,25
 93 552 93 552 141.5 570.5 c 128,-1,26
 190 589 190 589 255 589 c 0,27,28
 318 589 318 589 357.5 567 c 128,-1,29
 397 545 397 545 415.5 509.5 c 128,-1,30
 434 474 434 474 434 434 c 0,31,32
 434 387 434 387 408.5 338.5 c 128,-1,33
 383 290 383 290 331 247 c 128,-1,34
 279 204 279 204 199 173 c 1,35,36
 202 153 202 153 215.5 134 c 128,-1,37
 229 115 229 115 259 103.5 c 128,-1,38
 289 92 289 92 340 92 c 0,39,40
 406 92 406 92 463.5 116.5 c 128,-1,41
 521 141 521 141 564.5 179.5 c 128,-1,42
 608 218 608 218 632.5 262.5 c 128,-1,43
 657 307 657 307 657 347 c 0,44,45
 657 381 657 381 641.5 402 c 128,-1,46
 626 423 626 423 601 436 c 128,-1,47
 576 449 576 449 549 456 c 1,48,-1
 559 503 l 1,49,50
 622 493 622 493 663.5 453 c 128,-1,51
 705 413 705 413 705 344 c 0,52,53
 705 297 705 297 686 247 c 128,-1,54
 667 197 667 197 633 151 c 128,-1,55
 599 105 599 105 553 69 c 128,-1,56
 507 33 507 33 453 11.5 c 128,-1,57
 399 -10 399 -10 340 -10 c 0,0,1
159 388 m 0,58,59
 187 388 187 388 203 403 c 128,-1,60
 219 418 219 418 219 449 c 0,61,62
 219 471 219 471 205 488.5 c 128,-1,63
 191 506 191 506 158 506 c 0,64,65
 132 506 132 506 114.5 490.5 c 128,-1,66
 97 475 97 475 97 449 c 0,67,68
 97 422 97 422 112 405 c 128,-1,69
 127 388 127 388 159 388 c 0,58,59
EndSplineSet
EndChar

StartChar: u11923
Encoding: 71971 71971 31
Width: 911
GlyphClass: 2
Flags: W
HStem: -257 86<255.899 530.444> -10 102<242.32 461.168> 337 51<110.832 205.41> 350 59<707.75 782.637> 537 52<214.357 330.644>
VStem: 40 57<402.217 491.841> 219 57<401.492 491.643> 374 60<353.527 495.058> 806 60<104.732 324.5>
AnchorPoint: "+BBEENQQ3BEsEPARPBD0EPQQ+BDUA--6" 699 356 basechar 0
AnchorPoint: "+BBEENQQ3BEsEPARPBD0EPQQ+BDUA--3" 575 -277 basechar 0
AnchorPoint: "+BBEENQQ3BEsEPARPBD0EPQQ+BDUA--2" 242 536 basechar 0
AnchorPoint: "+BBEENQQ3BEsEPARPBD0EPQQ+BDUA--0" 596 590 basechar 0
LayerCount: 2
Fore
SplineSet
404 -257 m 0,0,1
 332 -257 332 -257 275 -241 c 128,-1,2
 218 -225 218 -225 168 -197 c 1,3,-1
 176 -150 l 1,4,5
 235 -162 235 -162 282 -166.5 c 128,-1,6
 329 -171 329 -171 372 -171 c 0,7,8
 472 -171 472 -171 545 -144.5 c 128,-1,9
 618 -118 618 -118 668 -73.5 c 128,-1,10
 718 -29 718 -29 748.5 24.5 c 128,-1,11
 779 78 779 78 792.5 133.5 c 128,-1,12
 806 189 806 189 806 237 c 0,13,14
 806 296 806 296 787 323 c 128,-1,15
 768 350 768 350 745 350 c 0,16,17
 721 350 721 350 704.5 323.5 c 128,-1,18
 688 297 688 297 662 239 c 0,19,20
 632 174 632 174 590.5 117 c 128,-1,21
 549 60 549 60 489 25 c 128,-1,22
 429 -10 429 -10 341 -10 c 0,23,24
 247 -10 247 -10 195 48.5 c 128,-1,25
 143 107 143 107 143 203 c 2,26,-1
 143 215 l 1,27,28
 218 238 218 238 263.5 266.5 c 128,-1,29
 309 295 309 295 333 325.5 c 128,-1,30
 357 356 357 356 365.5 383.5 c 128,-1,31
 374 411 374 411 374 432 c 0,32,33
 374 477 374 477 341.5 507 c 128,-1,34
 309 537 309 537 253 537 c 0,35,36
 233 537 233 537 214 534 c 1,37,38
 242 525 242 525 259 502 c 128,-1,39
 276 479 276 479 276 446 c 0,40,41
 276 387 276 387 240.5 362 c 128,-1,42
 205 337 205 337 157 337 c 0,43,44
 106 337 106 337 73 366 c 128,-1,45
 40 395 40 395 40 450 c 0,46,47
 40 489 40 489 66.5 520.5 c 128,-1,48
 93 552 93 552 141.5 570.5 c 128,-1,49
 190 589 190 589 255 589 c 0,50,51
 318 589 318 589 357.5 567 c 128,-1,52
 397 545 397 545 415.5 509.5 c 128,-1,53
 434 474 434 474 434 434 c 0,54,55
 434 387 434 387 408.5 338.5 c 128,-1,56
 383 290 383 290 331 247 c 128,-1,57
 279 204 279 204 199 173 c 1,58,59
 203 142 203 142 237 117 c 128,-1,60
 271 92 271 92 353 92 c 0,61,62
 451 92 451 92 518 141.5 c 128,-1,63
 585 191 585 191 634 297 c 0,64,65
 657 347 657 347 680.5 378 c 128,-1,66
 704 409 704 409 747 409 c 0,67,68
 809 409 809 409 837.5 362 c 128,-1,69
 866 315 866 315 866 244 c 0,70,71
 866 147 866 147 835.5 57 c 128,-1,72
 805 -33 805 -33 745.5 -104 c 128,-1,73
 686 -175 686 -175 600.5 -216 c 128,-1,74
 515 -257 515 -257 404 -257 c 0,0,1
159 388 m 0,75,76
 187 388 187 388 203 403 c 128,-1,77
 219 418 219 418 219 449 c 0,78,79
 219 471 219 471 205 488.5 c 128,-1,80
 191 506 191 506 158 506 c 0,81,82
 132 506 132 506 114.5 490.5 c 128,-1,83
 97 475 97 475 97 449 c 0,84,85
 97 422 97 422 112 405 c 128,-1,86
 127 388 127 388 159 388 c 0,75,76
EndSplineSet
EndChar

StartChar: u11924
Encoding: 71972 71972 32
Width: 692
GlyphClass: 2
Flags: W
HStem: -10 102<278.719 512.684> 255 54<446.095 573.526> 337 51<110.832 205.41> 537 52<215.822 346.481>
VStem: 40 57<402.217 491.841> 155 66<139.106 239.106> 219 57<401.492 491.643> 376 60<392.419 508.956> 589 53<143.304 240.374>
AnchorPoint: "+BBEENQQ3BEsEPARPBD0EPQQ+BDUA--6" 437 250 basechar 0
AnchorPoint: "+BBEENQQ3BEsEPARPBD0EPQQ+BDUA--5" 658 300 basechar 0
AnchorPoint: "+BBEENQQ3BEsEPARPBD0EPQQ+BDUA--3" 382 -38 basechar 0
AnchorPoint: "+BBEENQQ3BEsEPARPBD0EPQQ+BDUA--2" 262 536 basechar 0
AnchorPoint: "+BBEENQQ3BEsEPARPBD0EPQQ+BDUA--0" 486 590 basechar 0
LayerCount: 2
Fore
SplineSet
388 -10 m 0,0,1
 318 -10 318 -10 265.5 12 c 128,-1,2
 213 34 213 34 184 73 c 128,-1,3
 155 112 155 112 155 162 c 0,4,5
 155 196 155 196 167 222 c 128,-1,6
 179 248 179 248 207.5 274.5 c 128,-1,7
 236 301 236 301 286 334 c 0,8,9
 335 366 335 366 355.5 394 c 128,-1,10
 376 422 376 422 376 459 c 0,11,12
 376 499 376 499 342 518 c 128,-1,13
 308 537 308 537 261 537 c 0,14,15
 236 537 236 537 215 533 c 1,16,17
 243 525 243 525 259.5 502 c 128,-1,18
 276 479 276 479 276 446 c 0,19,20
 276 387 276 387 240.5 362 c 128,-1,21
 205 337 205 337 157 337 c 0,22,23
 106 337 106 337 73 366 c 128,-1,24
 40 395 40 395 40 450 c 0,25,26
 40 489 40 489 66.5 520.5 c 128,-1,27
 93 552 93 552 141.5 570.5 c 128,-1,28
 190 589 190 589 255 589 c 0,29,30
 346 589 346 589 391 552.5 c 128,-1,31
 436 516 436 516 436 461 c 0,32,33
 436 421 436 421 415 388.5 c 128,-1,34
 394 356 394 356 361 329.5 c 128,-1,35
 328 303 328 303 292 280 c 0,36,37
 250 253 250 253 235.5 230.5 c 128,-1,38
 221 208 221 208 221 185 c 0,39,40
 221 149 221 149 266.5 120.5 c 128,-1,41
 312 92 312 92 400 92 c 0,42,43
 499 92 499 92 544 123 c 128,-1,44
 589 154 589 154 589 196 c 0,45,46
 589 223 589 223 571 239 c 128,-1,47
 553 255 553 255 524 255 c 0,48,49
 505 255 505 255 488 249.5 c 128,-1,50
 471 244 471 244 449 233 c 1,51,-1
 424 277 l 1,52,53
 447 291 447 291 473.5 300 c 128,-1,54
 500 309 500 309 526 309 c 0,55,56
 569 309 569 309 594 290.5 c 128,-1,57
 619 272 619 272 630.5 244 c 128,-1,58
 642 216 642 216 642 188 c 0,59,60
 642 154 642 154 627.5 119.5 c 128,-1,61
 613 85 613 85 582.5 55.5 c 128,-1,62
 552 26 552 26 504 8 c 128,-1,63
 456 -10 456 -10 388 -10 c 0,0,1
159 388 m 0,64,65
 187 388 187 388 203 403 c 128,-1,66
 219 418 219 418 219 449 c 0,67,68
 219 471 219 471 205 488.5 c 128,-1,69
 191 506 191 506 158 506 c 0,70,71
 132 506 132 506 114.5 490.5 c 128,-1,72
 97 475 97 475 97 449 c 0,73,74
 97 422 97 422 112 405 c 128,-1,75
 127 388 127 388 159 388 c 0,64,65
EndSplineSet
Substitution2: "Single Substitution lookup 6 subtable" matouchdivesakuru
Substitution2: "Single Substitution lookup 5 subtable" matouchdivesakuru
EndChar

StartChar: u11925
Encoding: 71973 71973 33
Width: 817
GlyphClass: 2
Flags: W
HStem: -10 66<155.255 307.446> -7 74<496.605 640.393> 214 54<152.401 281.581> 476 70<32.3 84.5181> 515 73<88.8997 364.64>
VStem: 63 68<78.456 192.434> 434 63<214.796 449.698> 703 74<141.738 376.794>
AnchorPoint: "+BBEENQQ3BEsEPARPBD0EPQQ+BDUA--3" 415 -38 basechar 0
AnchorPoint: "+BBEENQQ3BEsEPARPBD0EPQQ+BDUA--2" 292 536 basechar 0
AnchorPoint: "+BBEENQQ3BEsEPARPBD0EPQQ+BDUA--0" 436 590 basechar 0
LayerCount: 2
Fore
SplineSet
217 -10 m 0,0,1
 176 -10 176 -10 141 5 c 128,-1,2
 106 20 106 20 84.5 50.5 c 128,-1,3
 63 81 63 81 63 126 c 0,4,5
 63 189 63 189 103.5 228.5 c 128,-1,6
 144 268 144 268 215 268 c 0,7,8
 269 268 269 268 312 238.5 c 128,-1,9
 355 209 355 209 394 172 c 1,10,11
 413 209 413 209 423.5 254 c 128,-1,12
 434 299 434 299 434 352 c 0,13,14
 434 418 434 418 410 453.5 c 128,-1,15
 386 489 386 489 342.5 502 c 128,-1,16
 299 515 299 515 239 515 c 0,17,18
 191 515 191 515 141 505.5 c 128,-1,19
 91 496 91 496 35 476 c 1,20,-1
 8 546 l 1,21,22
 59 563 59 563 120 575.5 c 128,-1,23
 181 588 181 588 245 588 c 0,24,25
 364 588 364 588 430.5 528 c 128,-1,26
 497 468 497 468 497 355 c 0,27,28
 497 291 497 291 481.5 234 c 128,-1,29
 466 177 466 177 439 131 c 1,30,31
 470 104 470 104 501.5 85.5 c 128,-1,32
 533 67 533 67 570 67 c 0,33,34
 635 67 635 67 669 119 c 128,-1,35
 703 171 703 171 703 257 c 0,36,37
 703 317 703 317 685 381 c 1,38,-1
 748 392 l 1,39,40
 762 366 762 366 769.5 330 c 128,-1,41
 777 294 777 294 777 250 c 0,42,43
 777 180 777 180 750 121.5 c 128,-1,44
 723 63 723 63 675 28 c 128,-1,45
 627 -7 627 -7 564 -7 c 0,46,47
 513 -7 513 -7 473.5 18 c 128,-1,48
 434 43 434 43 400 77 c 1,49,50
 363 36 363 36 316.5 13 c 128,-1,51
 270 -10 270 -10 217 -10 c 0,0,1
131 134 m 0,52,53
 131 94 131 94 156.5 75 c 128,-1,54
 182 56 182 56 224 56 c 0,55,56
 302 56 302 56 359 120 c 1,57,58
 324 157 324 157 290.5 185.5 c 128,-1,59
 257 214 257 214 217 214 c 0,60,61
 174 214 174 214 152.5 193 c 128,-1,62
 131 172 131 172 131 134 c 0,52,53
EndSplineSet
Substitution2: "Single Substitution lookup 6 subtable" yatouchdivesakuru
Substitution2: "Single Substitution lookup 5 subtable" yatouchdivesakuru
EndChar

StartChar: u11940
Encoding: 72000 72000 34
Width: 621
GlyphClass: 2
Flags: W
HStem: 484 50<-81.7189 218.562>
VStem: 282 70<232.943 427.951> 514 67<197.353 387.958>
AnchorPoint: "+BBEENQQ3BEsEPARPBD0EPQQ+BDUA--5" 619 300 basechar 0
AnchorPoint: "+BBEENQQ3BEsEPARPBD0EPQQ+BDUA--4" -109 488 mark 0
AnchorPoint: "+BBEENQQ3BEsEPARPBD0EPQQ+BDUA--3" 295 -138 basechar 0
AnchorPoint: "+BBEENQQ3BEsEPARPBD0EPQQ+BDUA--2" 152 495 basechar 0
AnchorPoint: "+BBEENQQ3BEsEPARPBD0EPQQ+BDUA--1" 354 495 basechar 0
AnchorPoint: "+BBEENQQ3BEsEPARPBD0EPQQ+BDUA--0" 276 590 basechar 0
LayerCount: 2
Fore
SplineSet
11 -87 m 1,0,-1
 11 -46 l 1,1,2
 148 46 148 46 215 144 c 128,-1,3
 282 242 282 242 282 340 c 0,4,5
 282 402 282 402 257 432.5 c 128,-1,6
 232 463 232 463 186.5 473.5 c 128,-1,7
 141 484 141 484 79 484 c 0,8,9
 39 484 39 484 -1.5 481 c 128,-1,10
 -42 478 -42 478 -83 471 c 1,11,-1
 -100 512 l 1,12,13
 -52 523 -52 523 -8.5 528.5 c 128,-1,14
 35 534 35 534 94 534 c 0,15,16
 142 534 142 534 188 527.5 c 128,-1,17
 234 521 234 521 271 502 c 128,-1,18
 308 483 308 483 330 446 c 128,-1,19
 352 409 352 409 352 348 c 0,20,21
 352 245 352 245 285.5 145 c 128,-1,22
 219 45 219 45 99 -41 c 1,23,24
 177 -32 177 -32 251 -6 c 128,-1,25
 325 20 325 20 384.5 63.5 c 128,-1,26
 444 107 444 107 479 169.5 c 128,-1,27
 514 232 514 232 514 314 c 0,28,29
 514 331 514 331 512 348.5 c 128,-1,30
 510 366 510 366 506 386 c 1,31,-1
 556 396 l 1,32,33
 566 379 566 379 573.5 356 c 128,-1,34
 581 333 581 333 581 304 c 0,35,36
 581 227 581 227 540 157 c 128,-1,37
 499 87 499 87 423.5 32 c 128,-1,38
 348 -23 348 -23 243.5 -55 c 128,-1,39
 139 -87 139 -87 11 -87 c 1,0,-1
EndSplineSet
EndChar

StartChar: u11926
Encoding: 71974 71974 35
Width: 816
GlyphClass: 2
Flags: W
HStem: -10 96<165.729 345.899 467.962 650.529> 304 60<355.503 448.282>
VStem: 40 57<151.21 372.345> 289 54<163.999 292.239> 463 62<161.438 289.219> 719 57<152.705 373.794>
AnchorPoint: "+BBEENQQ3BEsEPARPBD0EPQQ+BDUA--6" 714 350 basechar 0
AnchorPoint: "+BBEENQQ3BEsEPARPBD0EPQQ+BDUA--3" 415 -38 basechar 0
AnchorPoint: "+BBEENQQ3BEsEPARPBD0EPQQ+BDUA--2" 432 316 basechar 0
AnchorPoint: "+BBEENQQ3BEsEPARPBD0EPQQ+BDUA--0" 436 590 basechar 0
LayerCount: 2
Fore
SplineSet
257 -10 m 0,0,1
 181 -10 181 -10 133 24.5 c 128,-1,2
 85 59 85 59 62.5 117.5 c 128,-1,3
 40 176 40 176 40 247 c 0,4,5
 40 291 40 291 48 327 c 128,-1,6
 56 363 56 363 69 389 c 1,7,-1
 115 378 l 1,8,9
 97 314 97 314 97 254 c 0,10,11
 97 159 97 159 142.5 122.5 c 128,-1,12
 188 86 188 86 268 86 c 0,13,14
 312 86 312 86 347 96 c 1,15,16
 320 130 320 130 304.5 166.5 c 128,-1,17
 289 203 289 203 289 235 c 0,18,19
 289 280 289 280 306.5 308.5 c 128,-1,20
 324 337 324 337 350.5 350.5 c 128,-1,21
 377 364 377 364 405 364 c 0,22,23
 463 364 463 364 494 329.5 c 128,-1,24
 525 295 525 295 525 243 c 0,25,26
 525 208 525 208 510.5 168 c 128,-1,27
 496 128 496 128 467 93 c 1,28,29
 500 83 500 83 534 83 c 0,30,31
 623 83 623 83 671 121 c 128,-1,32
 719 159 719 159 719 254 c 0,33,34
 719 314 719 314 701 378 c 1,35,-1
 747 389 l 1,36,37
 761 363 761 363 768.5 327 c 128,-1,38
 776 291 776 291 776 247 c 0,39,40
 776 176 776 176 753 117.5 c 128,-1,41
 730 59 730 59 680 24.5 c 128,-1,42
 630 -10 630 -10 549 -10 c 0,43,44
 510 -10 510 -10 474.5 3 c 128,-1,45
 439 16 439 16 409 37 c 1,46,47
 378 16 378 16 340 3 c 128,-1,48
 302 -10 302 -10 257 -10 c 0,0,1
343 233 m 0,49,50
 343 201 343 201 359.5 172.5 c 128,-1,51
 376 144 376 144 405 123 c 1,52,53
 436 146 436 146 449.5 177 c 128,-1,54
 463 208 463 208 463 239 c 256,55,56
 463 270 463 270 446.5 287 c 128,-1,57
 430 304 430 304 404 304 c 0,58,59
 343 304 343 304 343 233 c 0,49,50
EndSplineSet
EndChar

StartChar: u11927
Encoding: 71975 71975 36
Width: 455
GlyphClass: 2
Flags: W
HStem: -11 59<178.317 283.174>
VStem: 103 56<66.9375 424> 303 62<65.1514 382.164>
AnchorPoint: "+BBEENQQ3BEsEPARPBD0EPQQ+BDUA--6" 312 373 basechar 0
AnchorPoint: "+BBEENQQ3BEsEPARPBD0EPQQ+BDUA--3" 229 -38 basechar 0
AnchorPoint: "+BBEENQQ3BEsEPARPBD0EPQQ+BDUA--2" 182 467 basechar 0
AnchorPoint: "+BBEENQQ3BEsEPARPBD0EPQQ+BDUA--0" 250 590 basechar 0
LayerCount: 2
Fore
SplineSet
230 -11 m 0,0,1
 166 -11 166 -11 134.5 30 c 128,-1,2
 103 71 103 71 103 156 c 2,3,-1
 103 442 l 1,4,-1
 3 474 l 1,5,-1
 19 535 l 1,6,-1
 270 454 l 2,7,8
 310 441 310 441 330.5 427.5 c 128,-1,9
 351 414 351 414 358 389.5 c 128,-1,10
 365 365 365 365 365 318 c 2,11,-1
 365 156 l 2,12,13
 365 71 365 71 333 30 c 128,-1,14
 301 -11 301 -11 230 -11 c 0,0,1
159 171 m 2,15,16
 159 115 159 115 171.5 81.5 c 128,-1,17
 184 48 184 48 230 48 c 0,18,19
 265 48 265 48 280.5 63 c 128,-1,20
 296 78 296 78 299.5 106 c 128,-1,21
 303 134 303 134 303 171 c 2,22,-1
 303 316 l 2,23,24
 303 343 303 343 299.5 357.5 c 128,-1,25
 296 372 296 372 285 380 c 128,-1,26
 274 388 274 388 251 395 c 2,27,-1
 159 424 l 1,28,-1
 159 171 l 2,15,16
EndSplineSet
Substitution2: "Single Substitution lookup 5 subtable" ratouchdivesakuru
EndChar

StartChar: u11942
Encoding: 72002 72002 37
Width: 199
GlyphClass: 2
Flags: W
HStem: -401 94<-620.251 -298.693> -322 47<-740.085 -716.249> 452 54<-129 -20.3862>
VStem: 89 60<63.8926 330.887>
AnchorPoint: "+BBEENQQ3BEsEPARPBD0EPQQ+BDUA--5" 199 300 basechar 0
AnchorPoint: "+BBEENQQ3BEsEPARPBD0EPQQ+BDUA--3" -235 -328 basechar 0
AnchorPoint: "+BBEENQQ3BEsEPARPBD0EPQQ+BDUA--2" -52 467 basechar 0
AnchorPoint: "+BBEENQQ3BEsEPARPBD0EPQQ+BDUA--0" -58 653 basechar 0
LayerCount: 2
Fore
SplineSet
-452 -401 m 0,0,1
 -514 -401 -514 -401 -572 -390 c 128,-1,2
 -630 -379 -630 -379 -676.5 -361 c 128,-1,3
 -723 -343 -723 -343 -752 -322 c 1,4,-1
 -738 -275 l 1,5,6
 -697 -286 -697 -286 -624.5 -296.5 c 128,-1,7
 -552 -307 -552 -307 -464 -307 c 0,8,9
 -362 -307 -362 -307 -276 -278.5 c 128,-1,10
 -190 -250 -190 -250 -122.5 -199.5 c 128,-1,11
 -55 -149 -55 -149 -7.5 -84 c 128,-1,12
 40 -19 40 -19 64.5 54.5 c 128,-1,13
 89 128 89 128 89 203 c 0,14,15
 89 275 89 275 67 331.5 c 128,-1,16
 45 388 45 388 -3 420 c 128,-1,17
 -51 452 -51 452 -129 452 c 1,18,-1
 -133 506 l 1,19,20
 7 506 7 506 78 422 c 128,-1,21
 149 338 149 338 149 195 c 0,22,23
 149 112 149 112 122.5 27 c 128,-1,24
 96 -58 96 -58 45.5 -134.5 c 128,-1,25
 -5 -211 -5 -211 -78.5 -271 c 128,-1,26
 -152 -331 -152 -331 -245.5 -366 c 128,-1,27
 -339 -401 -339 -401 -452 -401 c 0,0,1
EndSplineSet
EndChar

StartChar: u11928
Encoding: 71976 71976 38
Width: 727
GlyphClass: 2
Flags: W
HStem: -11 93<222.829 492.667> 208 54<163.933 268.473> 390 53<162.299 268.817>
VStem: 60 57<172.961 264.609> 285 57<277.954 375.093> 609 58<177.879 364.679>
AnchorPoint: "+BBEENQQ3BEsEPARPBD0EPQQ+BDUA--6" 585 372 basechar 0
AnchorPoint: "+BBEENQQ3BEsEPARPBD0EPQQ+BDUA--3" 375 -38 basechar 0
AnchorPoint: "+BBEENQQ3BEsEPARPBD0EPQQ+BDUA--2" 228 390 basechar 0
AnchorPoint: "+BBEENQQ3BEsEPARPBD0EPQQ+BDUA--0" 396 590 basechar 0
LayerCount: 2
Fore
SplineSet
357 -11 m 0,0,1
 217 -11 217 -11 138.5 53 c 128,-1,2
 60 117 60 117 60 248 c 0,3,4
 60 316 60 316 82.5 359 c 128,-1,5
 105 402 105 402 141.5 422.5 c 128,-1,6
 178 443 178 443 219 443 c 0,7,8
 273 443 273 443 307.5 414.5 c 128,-1,9
 342 386 342 386 342 329 c 0,10,11
 342 287 342 287 324.5 260 c 128,-1,12
 307 233 307 233 279 220.5 c 128,-1,13
 251 208 251 208 218 208 c 0,14,15
 143 208 143 208 117 265 c 1,16,17
 118 168 118 168 181.5 125 c 128,-1,18
 245 82 245 82 356 82 c 0,19,20
 401 82 401 82 446 90.5 c 128,-1,21
 491 99 491 99 528 120 c 128,-1,22
 565 141 565 141 587 177 c 128,-1,23
 609 213 609 213 609 268 c 0,24,25
 609 299 609 299 598.5 337.5 c 128,-1,26
 588 376 588 376 572 399 c 1,27,-1
 611 425 l 1,28,29
 637 391 637 391 652 346.5 c 128,-1,30
 667 302 667 302 667 249 c 0,31,32
 667 175 667 175 634.5 116 c 128,-1,33
 602 57 602 57 534 23 c 128,-1,34
 466 -11 466 -11 357 -11 c 0,0,1
218 262 m 0,35,36
 248 262 248 262 266.5 279 c 128,-1,37
 285 296 285 296 285 327 c 0,38,39
 285 359 285 359 266 374.5 c 128,-1,40
 247 390 247 390 218 390 c 0,41,42
 182 390 182 390 164 372.5 c 128,-1,43
 146 355 146 355 146 325 c 0,44,45
 146 296 146 296 165.5 279 c 128,-1,46
 185 262 185 262 218 262 c 0,35,36
EndSplineSet
EndChar

StartChar: u11929
Encoding: 71977 71977 39
Width: 693
GlyphClass: 2
Flags: W
HStem: -10 102<278.67 515.081> 261 54<447.095 574.526> 393 57<118.378 228.815>
VStem: 37 68<464.135 574.405> 155 66<139.42 245.608> 367 55<403.767 510.11> 590 53<145.383 246.374>
AnchorPoint: "+BBEENQQ3BEsEPARPBD0EPQQ+BDUA--6" 437 257 basechar 0
AnchorPoint: "+BBEENQQ3BEsEPARPBD0EPQQ+BDUA--3" 436 -38 basechar 0
AnchorPoint: "+BBEENQQ3BEsEPARPBD0EPQQ+BDUA--2" 348 543 basechar 0
AnchorPoint: "+BBEENQQ3BEsEPARPBD0EPQQ+BDUA--0" 456 590 basechar 0
LayerCount: 2
Fore
SplineSet
389 -10 m 0,0,1
 320 -10 320 -10 267 11.5 c 128,-1,2
 214 33 214 33 184.5 73.5 c 128,-1,3
 155 114 155 114 155 169 c 0,4,5
 155 206 155 206 178 248 c 128,-1,6
 201 290 201 290 270 336 c 0,7,8
 367 401 367 401 367 463 c 0,9,10
 367 494 367 494 350 508.5 c 128,-1,11
 333 523 333 523 313 526 c 1,12,13
 308 500 308 500 291.5 469 c 128,-1,14
 275 438 275 438 243.5 415.5 c 128,-1,15
 212 393 212 393 161 393 c 0,16,17
 106 393 106 393 71.5 423 c 128,-1,18
 37 453 37 453 37 516 c 0,19,20
 37 551 37 551 48 575 c 1,21,-1
 115 575 l 1,22,23
 111 561 111 561 108 547.5 c 128,-1,24
 105 534 105 534 105 520 c 0,25,26
 105 483 105 483 119.5 466.5 c 128,-1,27
 134 450 134 450 169 450 c 0,28,29
 213 450 213 450 238 481.5 c 128,-1,30
 263 513 263 513 271 581 c 1,31,-1
 281 581 l 2,32,33
 343 581 343 581 382.5 553.5 c 128,-1,34
 422 526 422 526 422 470 c 0,35,36
 422 421 422 421 384.5 376.5 c 128,-1,37
 347 332 347 332 286 289 c 0,38,39
 244 260 244 260 232.5 237 c 128,-1,40
 221 214 221 214 221 191 c 0,41,42
 221 149 221 149 266.5 120.5 c 128,-1,43
 312 92 312 92 401 92 c 0,44,45
 500 92 500 92 545 124 c 128,-1,46
 590 156 590 156 590 202 c 0,47,48
 590 229 590 229 572 245 c 128,-1,49
 554 261 554 261 525 261 c 0,50,51
 506 261 506 261 489 255.5 c 128,-1,52
 472 250 472 250 450 239 c 1,53,-1
 425 283 l 1,54,55
 448 297 448 297 474.5 306 c 128,-1,56
 501 315 501 315 527 315 c 0,57,58
 570 315 570 315 595 296.5 c 128,-1,59
 620 278 620 278 631.5 250 c 128,-1,60
 643 222 643 222 643 194 c 0,61,62
 643 147 643 147 617 99.5 c 128,-1,63
 591 52 591 52 535 21 c 128,-1,64
 479 -10 479 -10 389 -10 c 0,0,1
EndSplineSet
EndChar

StartChar: u1192A
Encoding: 71978 71978 40
Width: 900
GlyphClass: 2
Flags: W
HStem: -10 91<252.922 428.372> -8 51<656.645 744.14> 160 51<657.87 742.809> 282 60<523.578 711.812> 517 74<179.458 337.307>
VStem: 40 57<509.313 591> 156 69<107.689 215.64> 358 55<389.894 499.579> 416 54<94.2723 231.294> 588 56<55.9783 146.002> 758 72<57.3008 191.108>
AnchorPoint: "+BBEENQQ3BEsEPARPBD0EPQQ+BDUA--6" 688 267 basechar 0
AnchorPoint: "+BBEENQQ3BEsEPARPBD0EPQQ+BDUA--3" 535 -38 basechar 0
AnchorPoint: "+BBEENQQ3BEsEPARPBD0EPQQ+BDUA--2" 292 543 basechar 0
AnchorPoint: "+BBEENQQ3BEsEPARPBD0EPQQ+BDUA--0" 556 590 basechar 0
LayerCount: 2
Fore
SplineSet
334 -10 m 0,0,1
 253 -10 253 -10 204.5 26.5 c 128,-1,2
 156 63 156 63 156 139 c 0,3,4
 156 175 156 175 171.5 204.5 c 128,-1,5
 187 234 187 234 211.5 260 c 128,-1,6
 236 286 236 286 262 310 c 0,7,8
 300 345 300 345 329 380 c 128,-1,9
 358 415 358 415 358 459 c 0,10,11
 358 486 358 486 333.5 501.5 c 128,-1,12
 309 517 309 517 266 517 c 0,13,14
 218 517 218 517 177 500 c 128,-1,15
 136 483 136 483 90 450 c 1,16,-1
 40 450 l 1,17,-1
 40 591 l 1,18,-1
 97 591 l 1,19,-1
 97 531 l 2,20,21
 97 519 97 519 96 509 c 1,22,23
 131 545 131 545 176.5 568 c 128,-1,24
 222 591 222 591 271 591 c 0,25,26
 343 591 343 591 378 558.5 c 128,-1,27
 413 526 413 526 413 470 c 0,28,29
 413 431 413 431 397.5 399.5 c 128,-1,30
 382 368 382 368 358 341 c 128,-1,31
 334 314 334 314 308 290 c 0,32,33
 275 259 275 259 250 228.5 c 128,-1,34
 225 198 225 198 225 161 c 0,35,36
 225 81 225 81 343 81 c 0,37,38
 389 81 389 81 429 100 c 1,39,40
 416 135 416 135 416 169 c 0,41,42
 416 221 416 221 444 260 c 128,-1,43
 472 299 472 299 518 320.5 c 128,-1,44
 564 342 564 342 618 342 c 0,45,46
 676 342 676 342 724 318.5 c 128,-1,47
 772 295 772 295 801 249 c 128,-1,48
 830 203 830 203 830 135 c 0,49,50
 830 65 830 65 793.5 28.5 c 128,-1,51
 757 -8 757 -8 701 -8 c 0,52,53
 646 -8 646 -8 617 24.5 c 128,-1,54
 588 57 588 57 588 102 c 0,55,56
 588 145 588 145 617 178 c 128,-1,57
 646 211 646 211 696 211 c 0,58,59
 721 211 721 211 742 203 c 128,-1,60
 763 195 763 195 775 178 c 1,61,62
 763 230 763 230 720 256 c 128,-1,63
 677 282 677 282 616 282 c 0,64,65
 546 282 546 282 508 249 c 128,-1,66
 470 216 470 216 470 158 c 0,67,68
 470 128 470 128 480 103 c 128,-1,69
 490 78 490 78 509 45 c 1,70,71
 492 31 492 31 462 18.5 c 128,-1,72
 432 6 432 6 398 -2 c 128,-1,73
 364 -10 364 -10 334 -10 c 0,0,1
701 43 m 0,74,75
 727 43 727 43 742.5 59.5 c 128,-1,76
 758 76 758 76 758 101 c 0,77,78
 758 134 758 134 738.5 147 c 128,-1,79
 719 160 719 160 699 160 c 0,80,81
 674 160 674 160 659 143 c 128,-1,82
 644 126 644 126 644 102 c 0,83,84
 644 74 644 74 659 58.5 c 128,-1,85
 674 43 674 43 701 43 c 0,74,75
EndSplineSet
EndChar

StartChar: u1192B
Encoding: 71979 71979 41
Width: 831
GlyphClass: 2
Flags: W
HStem: -10 102<277.981 541.16> 130 60<571.143 620.656> 517 74<179.458 337.307> 601 48<583.539 671.344>
VStem: 40 57<509.313 591> 156 69<137.391 247.045> 358 55<398.749 499.579> 488 62<204.357 323.989> 518 53<473.119 586.891> 680 50<482.807 592.508> 697 64<208.376 315.69>
AnchorPoint: "+BBEENQQ3BEsEPARPBD0EPQQ+BDUA--6" 724 206 basechar 0
AnchorPoint: "+BBEENQQ3BEsEPARPBD0EPQQ+BDUA--3" 421 -38 basechar 0
AnchorPoint: "+BBEENQQ3BEsEPARPBD0EPQQ+BDUA--2" 292 543 basechar 0
AnchorPoint: "+BBEENQQ3BEsEPARPBD0EPQQ+BDUA--0" 442 590 basechar 0
LayerCount: 2
Fore
SplineSet
394 -10 m 0,0,1
 277 -10 277 -10 216.5 38.5 c 128,-1,2
 156 87 156 87 156 163 c 0,3,4
 156 207 156 207 173 238.5 c 128,-1,5
 190 270 190 270 216.5 294 c 128,-1,6
 243 318 243 318 270 339 c 0,7,8
 305 366 305 366 331.5 393.5 c 128,-1,9
 358 421 358 421 358 459 c 0,10,11
 358 486 358 486 333.5 501.5 c 128,-1,12
 309 517 309 517 266 517 c 0,13,14
 218 517 218 517 177 500 c 128,-1,15
 136 483 136 483 90 450 c 1,16,-1
 40 450 l 1,17,-1
 40 591 l 1,18,-1
 97 591 l 1,19,-1
 97 531 l 2,20,21
 97 519 97 519 96 509 c 1,22,23
 131 545 131 545 176.5 568 c 128,-1,24
 222 591 222 591 271 591 c 0,25,26
 343 591 343 591 378 558.5 c 128,-1,27
 413 526 413 526 413 470 c 0,28,29
 413 431 413 431 397.5 401.5 c 128,-1,30
 382 372 382 372 357.5 349.5 c 128,-1,31
 333 327 333 327 307 306 c 0,32,33
 276 281 276 281 250.5 254.5 c 128,-1,34
 225 228 225 228 225 193 c 0,35,36
 225 148 225 148 267 120 c 128,-1,37
 309 92 309 92 406 92 c 0,38,39
 484 92 484 92 536 102.5 c 128,-1,40
 588 113 588 113 621 130 c 1,41,-1
 618 130 l 2,42,43
 586 130 586 130 556 141.5 c 128,-1,44
 526 153 526 153 507 179.5 c 128,-1,45
 488 206 488 206 488 249 c 0,46,47
 488 296 488 296 517 337 c 128,-1,48
 546 378 546 378 584 412 c 1,49,50
 553 441 553 441 535.5 471 c 128,-1,51
 518 501 518 501 518 540 c 0,52,53
 518 588 518 588 548.5 618.5 c 128,-1,54
 579 649 579 649 627 649 c 0,55,56
 652 649 652 649 675.5 637.5 c 128,-1,57
 699 626 699 626 714.5 604 c 128,-1,58
 730 582 730 582 730 549 c 0,59,60
 730 481 730 481 658 413 c 1,61,62
 705 373 705 373 733 332.5 c 128,-1,63
 761 292 761 292 761 244 c 0,64,65
 761 197 761 197 734 152 c 128,-1,66
 707 107 707 107 658 70.5 c 128,-1,67
 609 34 609 34 541.5 12 c 128,-1,68
 474 -10 474 -10 394 -10 c 0,0,1
571 538 m 0,69,70
 571 513 571 513 581.5 491 c 128,-1,71
 592 469 592 469 621 444 c 1,72,73
 651 470 651 470 665.5 492.5 c 128,-1,74
 680 515 680 515 680 542 c 0,75,76
 680 601 680 601 625 601 c 0,77,78
 598 601 598 601 584.5 583.5 c 128,-1,79
 571 566 571 566 571 538 c 0,69,70
550 256 m 256,80,81
 550 219 550 219 570.5 204.5 c 128,-1,82
 591 190 591 190 620 190 c 0,83,84
 641 190 641 190 661.5 195 c 128,-1,85
 682 200 682 200 694 216 c 1,86,87
 697 228 697 228 697 241 c 0,88,89
 697 279 697 279 677.5 312.5 c 128,-1,90
 658 346 658 346 621 380 c 1,91,92
 592 353 592 353 571 323 c 128,-1,93
 550 293 550 293 550 256 c 256,80,81
EndSplineSet
EndChar

StartChar: u1192C
Encoding: 71980 71980 42
Width: 740
GlyphClass: 2
Flags: W
HStem: -11 49<249.427 379.499> 210 50<424.739 601.083> 325 45<260.708 387> 537 52<163 398.876>
VStem: 44 91<413.958 511.167> 89 94<109.513 264.538> 355 62<124.946 206.551> 386 54<46.5756 154.032> 669 56<327.68 433>
AnchorPoint: "+BBEENQQ3BEsEPARPBD0EPQQ+BDUA--3" 445 -38 basechar 0
AnchorPoint: "+BBEENQQ3BEsEPARPBD0EPQQ+BDUA--2" 260 541 basechar 0
AnchorPoint: "+BBEENQQ3BEsEPARPBD0EPQQ+BDUA--0" 466 590 basechar 0
LayerCount: 2
Fore
SplineSet
314 -11 m 0,0,1
 254 -11 254 -11 203 15 c 128,-1,2
 152 41 152 41 120.5 87 c 128,-1,3
 89 133 89 133 89 193 c 0,4,5
 89 233 89 233 109 262 c 128,-1,6
 129 291 129 291 159.5 309.5 c 128,-1,7
 190 328 190 328 223 336 c 1,8,9
 178 343 178 343 137 358 c 128,-1,10
 96 373 96 373 70 398.5 c 128,-1,11
 44 424 44 424 44 463 c 0,12,13
 44 524 44 524 98 556.5 c 128,-1,14
 152 589 152 589 250 589 c 0,15,16
 291 589 291 589 332 584.5 c 128,-1,17
 373 580 373 580 419 567 c 1,18,-1
 400 520 l 1,19,20
 364 528 364 528 332.5 532.5 c 128,-1,21
 301 537 301 537 263 537 c 0,22,23
 205 537 205 537 170 520 c 128,-1,24
 135 503 135 503 135 462 c 0,25,26
 135 432 135 432 156.5 414 c 128,-1,27
 178 396 178 396 214.5 387 c 128,-1,28
 251 378 251 378 296 375 c 128,-1,29
 341 372 341 372 387 370 c 1,30,-1
 387 325 l 1,31,32
 285 321 285 321 234 290.5 c 128,-1,33
 183 260 183 260 183 197 c 0,34,35
 183 154 183 154 200.5 117.5 c 128,-1,36
 218 81 218 81 249.5 59.5 c 128,-1,37
 281 38 281 38 321 38 c 0,38,39
 386 38 386 38 386 83 c 0,40,41
 386 101 386 101 381 114.5 c 128,-1,42
 376 128 376 128 370 141 c 0,43,44
 364 153 364 153 359.5 166 c 128,-1,45
 355 179 355 179 355 197 c 0,46,47
 355 223 355 223 377.5 241.5 c 128,-1,48
 400 260 400 260 464 260 c 0,49,50
 540 260 540 260 584.5 274.5 c 128,-1,51
 629 289 629 289 649 326.5 c 128,-1,52
 669 364 669 364 669 433 c 1,53,-1
 725 433 l 1,54,55
 725 351 725 351 702 302 c 128,-1,56
 679 253 679 253 620.5 231.5 c 128,-1,57
 562 210 562 210 457 210 c 0,58,59
 432 210 432 210 424.5 204.5 c 128,-1,60
 417 199 417 199 417 186 c 0,61,62
 417 176 417 176 419.5 166 c 128,-1,63
 422 156 422 156 426 146 c 0,64,65
 431 133 431 133 435.5 118 c 128,-1,66
 440 103 440 103 440 83 c 0,67,68
 440 49 440 49 421.5 28.5 c 128,-1,69
 403 8 403 8 374 -1.5 c 128,-1,70
 345 -11 345 -11 314 -11 c 0,0,1
EndSplineSet
EndChar

StartChar: u1192D
Encoding: 71981 71981 43
Width: 869
GlyphClass: 2
Flags: W
HStem: -10 88<266.795 544.076> 54 50<196.34 218.052> 336 62<467.756 563.591> 493 96<275.791 388.489> 509 80<620.659 731.879>
VStem: 559 48<417.952 494.139> 570 37<406.766 487.253> 769 60<268.276 469.218>
AnchorPoint: "+BBEENQQ3BEsEPARPBD0EPQQ+BDUA--6" 783 379 basechar 0
AnchorPoint: "+BBEENQQ3BEsEPARPBD0EPQQ+BDUA--3" 445 -38 basechar 0
AnchorPoint: "+BBEENQQ3BEsEPARPBD0EPQQ+BDUA--2" 382 543 basechar 0
AnchorPoint: "+BBEENQQ3BEsEPARPBD0EPQQ+BDUA--1" 581 495 basechar 0
AnchorPoint: "+BBEENQQ3BEsEPARPBD0EPQQ+BDUA--0" 466 590 basechar 0
LayerCount: 2
Fore
SplineSet
406 -10 m 0,0,1
 332 -10 332 -10 276 8.5 c 128,-1,2
 220 27 220 27 180 54 c 1,3,-1
 199 104 l 1,4,5
 239 94 239 94 284.5 86 c 128,-1,6
 330 78 330 78 391 78 c 0,7,8
 503 78 503 78 588 116 c 128,-1,9
 673 154 673 154 721 221.5 c 128,-1,10
 769 289 769 289 769 376 c 0,11,12
 769 439 769 439 744 474 c 128,-1,13
 719 509 719 509 671 509 c 0,14,15
 636 509 636 509 621.5 491 c 128,-1,16
 607 473 607 473 607 452 c 0,17,18
 607 440 607 440 610 431.5 c 128,-1,19
 613 423 613 423 613 409 c 256,20,21
 613 395 613 395 605 378 c 128,-1,22
 597 361 597 361 575.5 348.5 c 128,-1,23
 554 336 554 336 512 336 c 256,24,25
 470 336 470 336 450 348 c 128,-1,26
 430 360 430 360 423 379 c 128,-1,27
 416 398 416 398 413 418 c 0,28,29
 410 437 410 437 404.5 454 c 128,-1,30
 399 471 399 471 383 482 c 128,-1,31
 367 493 367 493 332 493 c 0,32,33
 284 493 284 493 259 450 c 128,-1,34
 234 407 234 407 226 346 c 1,35,-1
 173 346 l 1,36,37
 164 387 164 387 140 427 c 128,-1,38
 116 467 116 467 81.5 498.5 c 128,-1,39
 47 530 47 530 5 545 c 1,40,-1
 30 594 l 1,41,42
 90 572 90 572 133 529 c 128,-1,43
 176 486 176 486 197 427 c 1,44,45
 204 467 204 467 221 504 c 128,-1,46
 238 541 238 541 266.5 565 c 128,-1,47
 295 589 295 589 336 589 c 0,48,49
 396 589 396 589 427.5 552 c 128,-1,50
 459 515 459 515 459 450 c 0,51,52
 459 424 459 424 470.5 411 c 128,-1,53
 482 398 482 398 511 398 c 0,54,55
 547 398 547 398 558.5 406.5 c 128,-1,56
 570 415 570 415 570 426 c 0,57,58
 570 441 570 441 564.5 452.5 c 128,-1,59
 559 464 559 464 559 488 c 0,60,61
 559 534 559 534 590 561.5 c 128,-1,62
 621 589 621 589 670 589 c 0,63,64
 726 589 726 589 761 563 c 128,-1,65
 796 537 796 537 812.5 493 c 128,-1,66
 829 449 829 449 829 395 c 0,67,68
 829 314 829 314 799.5 241 c 128,-1,69
 770 168 770 168 715 111.5 c 128,-1,70
 660 55 660 55 582 22.5 c 128,-1,71
 504 -10 504 -10 406 -10 c 0,0,1
EndSplineSet
EndChar

StartChar: u1192E
Encoding: 71982 71982 44
Width: 607
GlyphClass: 2
Flags: W
HStem: -220 82<173.242 414.982> -11 56<93 336.633> 276 45<208 326.322> 367 41<85.9502 165.877> 537 52<180.462 372.408>
VStem: 25 50<419.051 498.587> 177 49<418.161 495.844> 414 99<100.58 219.144 388.197 501.089> 508 49<-67.4069 -13>
AnchorPoint: "+BBEENQQ3BEsEPARPBD0EPQQ+BDUA--6" 454 374 basechar 0
AnchorPoint: "+BBEENQQ3BEsEPARPBD0EPQQ+BDUA--3" 305 -248 basechar 0
AnchorPoint: "+BBEENQQ3BEsEPARPBD0EPQQ+BDUA--2" 259 547 basechar 0
AnchorPoint: "+BBEENQQ3BEsEPARPBD0EPQQ+BDUA--0" 326 590 basechar 0
LayerCount: 2
Fore
SplineSet
289 -220 m 0,0,1
 168 -220 168 -220 103.5 -153 c 128,-1,2
 39 -86 39 -86 39 33 c 2,3,-1
 39 51 l 1,4,5
 79 47 79 47 107.5 46 c 128,-1,6
 136 45 136 45 176 45 c 0,7,8
 288 45 288 45 351 72 c 128,-1,9
 414 99 414 99 414 160 c 0,10,11
 414 202 414 202 385 226.5 c 128,-1,12
 356 251 356 251 309.5 262.5 c 128,-1,13
 263 274 263 274 208 276 c 1,14,-1
 208 321 l 1,15,16
 266 323 266 323 312 337.5 c 128,-1,17
 358 352 358 352 385 380 c 128,-1,18
 412 408 412 408 412 448 c 0,19,20
 412 497 412 497 369.5 517 c 128,-1,21
 327 537 327 537 256 537 c 0,22,23
 231 537 231 537 212 534.5 c 128,-1,24
 193 532 193 532 179 529 c 1,25,26
 200 521 200 521 213 502.5 c 128,-1,27
 226 484 226 484 226 458 c 0,28,29
 226 409 226 409 196.5 388 c 128,-1,30
 167 367 167 367 127 367 c 0,31,32
 84 367 84 367 54.5 388 c 128,-1,33
 25 409 25 409 25 459 c 0,34,35
 25 524 25 524 85 556.5 c 128,-1,36
 145 589 145 589 260 589 c 256,37,38
 375 589 375 589 442 553 c 128,-1,39
 509 517 509 517 509 446 c 0,40,41
 509 408 509 408 486.5 379 c 128,-1,42
 464 350 464 350 430.5 331 c 128,-1,43
 397 312 397 312 363 304 c 1,44,45
 398 297 398 297 432.5 277.5 c 128,-1,46
 467 258 467 258 490 228.5 c 128,-1,47
 513 199 513 199 513 159 c 0,48,49
 513 108 513 108 475 70 c 128,-1,50
 437 32 437 32 368 10.5 c 128,-1,51
 299 -11 299 -11 207 -11 c 0,52,53
 166 -11 166 -11 140 -10 c 128,-1,54
 114 -9 114 -9 93 -6 c 1,55,56
 95 -37 95 -37 114 -67.5 c 128,-1,57
 133 -98 133 -98 177 -118 c 128,-1,58
 221 -138 221 -138 295 -138 c 0,59,60
 368 -138 368 -138 413 -121.5 c 128,-1,61
 458 -105 458 -105 480.5 -76.5 c 128,-1,62
 503 -48 503 -48 508 -13 c 1,63,-1
 557 -13 l 1,64,65
 554 -77 554 -77 518 -123.5 c 128,-1,66
 482 -170 482 -170 423 -195 c 128,-1,67
 364 -220 364 -220 289 -220 c 0,0,1
127 408 m 0,68,69
 150 408 150 408 163.5 421 c 128,-1,70
 177 434 177 434 177 459 c 0,71,72
 177 477 177 477 165 492 c 128,-1,73
 153 507 153 507 126 507 c 0,74,75
 100 507 100 507 87.5 496 c 128,-1,76
 75 485 75 485 75 459 c 0,77,78
 75 437 75 437 87.5 422.5 c 128,-1,79
 100 408 100 408 127 408 c 0,68,69
EndSplineSet
Substitution2: "Single Substitution lookup 5 subtable" llatouchdivesakuru
EndChar

StartChar: u1192F
Encoding: 71983 71983 45
Width: 872
GlyphClass: 2
Flags: W
HStem: -10 105<155.728 370.127 554.762 730.626> 188 46<88 220.273> 363 51<275.399 370.389> 532 57<277.273 371.36>
VStem: 205 57<428.217 517.716> 384 84<384.933 515.905> 443 53<154.726 204> 769 63<130.819 272.404>
AnchorPoint: "+BBEENQQ3BEsEPARPBD0EPQQ+BDUA--6" 714 333 basechar 0
AnchorPoint: "+BBEENQQ3BEsEPARPBD0EPQQ+BDUA--3" 525 -38 basechar 0
AnchorPoint: "+BBEENQQ3BEsEPARPBD0EPQQ+BDUA--2" 335 535 basechar 0
AnchorPoint: "+BBEENQQ3BEsEPARPBD0EPQQ+BDUA--0" 546 590 basechar 0
LayerCount: 2
Fore
SplineSet
258 -10 m 0,0,1
 194 -10 194 -10 142.5 18 c 128,-1,2
 91 46 91 46 61.5 98 c 128,-1,3
 32 150 32 150 32 222 c 2,4,-1
 32 234 l 1,5,6
 145 238 145 238 218 255 c 128,-1,7
 291 272 291 272 332 297 c 128,-1,8
 373 322 373 322 390.5 351 c 128,-1,9
 408 380 408 380 412 409 c 1,10,11
 399 385 399 385 375.5 374 c 128,-1,12
 352 363 352 363 321 363 c 0,13,14
 270 363 270 363 237.5 392 c 128,-1,15
 205 421 205 421 205 476 c 0,16,17
 205 527 205 527 237.5 558 c 128,-1,18
 270 589 270 589 326 589 c 0,19,20
 372 589 372 589 403.5 566.5 c 128,-1,21
 435 544 435 544 451.5 508 c 128,-1,22
 468 472 468 472 468 431 c 0,23,24
 468 368 468 368 431.5 315 c 128,-1,25
 395 262 395 262 311.5 228.5 c 128,-1,26
 228 195 228 195 88 188 c 1,27,28
 95 147 95 147 138.5 121 c 128,-1,29
 182 95 182 95 256 95 c 0,30,31
 326 95 326 95 364 110.5 c 128,-1,32
 402 126 402 126 419 151 c 128,-1,33
 436 176 436 176 443 204 c 1,34,-1
 496 204 l 1,35,36
 501 149 501 149 541 122 c 128,-1,37
 581 95 581 95 634 95 c 0,38,39
 769 95 769 95 769 192 c 0,40,41
 769 228 769 228 752 263.5 c 128,-1,42
 735 299 735 299 682 329 c 1,43,-1
 709 373 l 1,44,45
 762 347 762 347 797 297 c 128,-1,46
 832 247 832 247 832 178 c 0,47,48
 832 88 832 88 782.5 39 c 128,-1,49
 733 -10 733 -10 648 -10 c 0,50,51
 575 -10 575 -10 533 27.5 c 128,-1,52
 491 65 491 65 469 129 c 1,53,54
 458 94 458 94 433.5 62 c 128,-1,55
 409 30 409 30 366.5 10 c 128,-1,56
 324 -10 324 -10 258 -10 c 0,0,1
324 414 m 0,57,58
 352 414 352 414 368 429 c 128,-1,59
 384 444 384 444 384 475 c 0,60,61
 384 497 384 497 370 514.5 c 128,-1,62
 356 532 356 532 323 532 c 0,63,64
 297 532 297 532 279.5 516.5 c 128,-1,65
 262 501 262 501 262 475 c 0,66,67
 262 448 262 448 277 431 c 128,-1,68
 292 414 292 414 324 414 c 0,57,58
EndSplineSet
EndChar

StartChar: ka_thadivesakuru
Encoding: 1114113 -1 46
Width: 985
GlyphClass: 2
Flags: W
HStem: -270 100<775.892 927.246> -16 50<896.662 978.713> 0 66<340.499 498.539> 274 45<352 473.236> 549 51<514.375 674.49> 573 44<116.718 328.413>
VStem: 10 77<466.189 545.029> 176 61<182.401 405.016> 529 90<365.644 485.28> 535 96<101.879 226.579> 678 63<-134.438 16.6756> 809 66<192.706 418.066> 823 54<-122 -35.459> 989 53<-125.945 -26.9802>
AnchorPoint: "+BBEENQQ3BEsEPARPBD0EPQQ+BDUA--6" 941 -21 basechar 0
AnchorPoint: "+BBEENQQ3BEsEPARPBD0EPQQ+BDUA--5" 1088 300 basechar 0
AnchorPoint: "+BBEENQQ3BEsEPARPBD0EPQQ+BDUA--3" 829 -293 basechar 0
AnchorPoint: "+BBEENQQ3BEsEPARPBD0EPQQ+BDUA--0" 835 590 basechar 0
LayerCount: 2
Fore
SplineSet
94 397 m 1,0,1
 77 403 77 403 57.5 412.5 c 128,-1,2
 38 422 38 422 24 440 c 128,-1,3
 10 458 10 458 10 488 c 0,4,5
 10 520 10 520 29.5 549.5 c 128,-1,6
 49 579 49 579 89.5 598 c 128,-1,7
 130 617 130 617 192 617 c 0,8,9
 241 617 241 617 295.5 605 c 128,-1,10
 350 593 350 593 392 575 c 1,11,12
 432 588 432 588 473.5 594 c 128,-1,13
 515 600 515 600 554 600 c 0,14,15
 644 600 644 600 705.5 574.5 c 128,-1,16
 767 549 767 549 804.5 508 c 128,-1,17
 842 467 842 467 858.5 418 c 128,-1,18
 875 369 875 369 875 322 c 0,19,20
 875 268 875 268 863.5 225.5 c 128,-1,21
 852 183 852 183 834.5 149.5 c 128,-1,22
 817 116 817 116 798 85 c 0,23,24
 776 48 776 48 758.5 12 c 128,-1,25
 741 -24 741 -24 741 -69 c 0,26,27
 741 -111 741 -111 767.5 -140.5 c 128,-1,28
 794 -170 794 -170 846 -170 c 0,29,30
 902 -170 902 -170 933 -153 c 128,-1,31
 964 -136 964 -136 976.5 -112.5 c 128,-1,32
 989 -89 989 -89 989 -70 c 0,33,34
 989 -45 989 -45 976.5 -30.5 c 128,-1,35
 964 -16 964 -16 942 -16 c 0,36,37
 916 -16 916 -16 896.5 -37.5 c 128,-1,38
 877 -59 877 -59 877 -122 c 1,39,-1
 823 -122 l 1,40,41
 823 -64 823 -64 840 -30 c 128,-1,42
 857 4 857 4 884 19 c 128,-1,43
 911 34 911 34 941 34 c 0,44,45
 980 34 980 34 1002 17.5 c 128,-1,46
 1024 1 1024 1 1033 -23 c 128,-1,47
 1042 -47 1042 -47 1042 -72 c 0,48,49
 1042 -119 1042 -119 1015 -165 c 128,-1,50
 988 -211 988 -211 941 -240.5 c 128,-1,51
 894 -270 894 -270 834 -270 c 0,52,53
 790 -270 790 -270 754.5 -249 c 128,-1,54
 719 -228 719 -228 698.5 -189.5 c 128,-1,55
 678 -151 678 -151 678 -101 c 0,56,57
 678 -34 678 -34 698 12.5 c 128,-1,58
 718 59 718 59 743 100 c 0,59,60
 769 143 769 143 789 190 c 128,-1,61
 809 237 809 237 809 305 c 0,62,63
 809 349 809 349 796.5 392 c 128,-1,64
 784 435 784 435 754.5 470.5 c 128,-1,65
 725 506 725 506 674.5 527.5 c 128,-1,66
 624 549 624 549 548 549 c 0,67,68
 531 549 531 549 514 548 c 1,69,70
 571 530 571 530 595 497 c 128,-1,71
 619 464 619 464 619 430 c 0,72,73
 619 383 619 383 588.5 349.5 c 128,-1,74
 558 316 558 316 502 302 c 1,75,76
 569 288 569 288 600 256 c 128,-1,77
 631 224 631 224 631 171 c 0,78,79
 631 119 631 119 602.5 80.5 c 128,-1,80
 574 42 574 42 530 21 c 128,-1,81
 486 0 486 0 440 0 c 0,82,83
 363 0 363 0 303 38 c 128,-1,84
 243 76 243 76 209.5 143 c 128,-1,85
 176 210 176 210 176 297 c 0,86,87
 176 392 176 392 221 454 c 128,-1,88
 266 516 266 516 332 550 c 1,89,90
 304 560 304 560 272 566.5 c 128,-1,91
 240 573 240 573 200 573 c 0,92,93
 152 573 152 573 119.5 553 c 128,-1,94
 87 533 87 533 87 504 c 0,95,96
 87 484 87 484 99 473.5 c 128,-1,97
 111 463 111 463 125 457 c 1,98,-1
 94 397 l 1,0,1
237 299 m 0,99,100
 237 225 237 225 263 172.5 c 128,-1,101
 289 120 289 120 331.5 93 c 128,-1,102
 374 66 374 66 423 66 c 0,103,104
 478 66 478 66 506.5 94.5 c 128,-1,105
 535 123 535 123 535 166 c 0,106,107
 535 183 535 183 529.5 200.5 c 128,-1,108
 524 218 524 218 506 233.5 c 128,-1,109
 488 249 488 249 451 260 c 128,-1,110
 414 271 414 271 352 274 c 1,111,-1
 352 319 l 1,112,113
 411 321 411 321 446.5 331 c 128,-1,114
 482 341 482 341 499.5 357.5 c 128,-1,115
 517 374 517 374 523 392.5 c 128,-1,116
 529 411 529 411 529 429 c 0,117,118
 529 517 529 517 391 521 c 1,119,120
 349 504 349 504 314 475.5 c 128,-1,121
 279 447 279 447 258 403.5 c 128,-1,122
 237 360 237 360 237 299 c 0,99,100
EndSplineSet
Ligature2: "'cjct' Conjunct Forms in 'diak' lookup 9 subtable" u1190C viramadivesakuru u1191C
EndChar

StartChar: ka_ra_vowelIdivesakuru
Encoding: 1114114 -1 47
Width: 1399
GlyphClass: 2
Flags: W
HStem: -422 87<318.953 645.292> -355 51<239.706 257.003> -235 92<260.699 561.508> -2 66<340.499 498.539> 272 45<352 473.236> 547 51<514.375 678.115> 571 44<116.718 328.413 742.196 857.334> 637 52<944.033 1165.46>
VStem: 10 77<464.189 543.029> 176 61<180.401 403.016> 529 90<363.644 483.28> 535 96<99.8786 224.579> 842 62<131.309 388.997> 1040 62<44.2778 372.523> 1279 60<210.04 507.261>
AnchorPoint: "+BBEENQQ3BEsEPARPBD0EPQQ+BDUA--3" 1169 -171 basechar 0
AnchorPoint: "+BBEENQQ3BEsEPARPBD0EPQQ+BDUA--2" 1025 633 basechar 0
AnchorPoint: "+BBEENQQ3BEsEPARPBD0EPQQ+BDUA--0" 1121 714 basechar 0
LayerCount: 2
Fore
SplineSet
94 395 m 1,0,1
 77 401 77 401 57.5 410.5 c 128,-1,2
 38 420 38 420 24 438 c 128,-1,3
 10 456 10 456 10 486 c 0,4,5
 10 518 10 518 29.5 547.5 c 128,-1,6
 49 577 49 577 89.5 596 c 128,-1,7
 130 615 130 615 192 615 c 0,8,9
 241 615 241 615 295.5 603 c 128,-1,10
 350 591 350 591 392 573 c 1,11,12
 432 586 432 586 473.5 592 c 128,-1,13
 515 598 515 598 554 598 c 0,14,15
 626 598 626 598 686 580 c 1,16,17
 709 599 709 599 737.5 609 c 128,-1,18
 766 619 766 619 805 619 c 0,19,20
 824 619 824 619 843 616 c 1,21,22
 861 631 861 631 892 648 c 128,-1,23
 923 665 923 665 965.5 677 c 128,-1,24
 1008 689 1008 689 1059 689 c 0,25,26
 1147 689 1147 689 1209.5 652 c 128,-1,27
 1272 615 1272 615 1305.5 546.5 c 128,-1,28
 1339 478 1339 478 1339 385 c 0,29,30
 1339 297 1339 297 1317 209 c 128,-1,31
 1295 121 1295 121 1260.5 45 c 128,-1,32
 1226 -31 1226 -31 1189 -85 c 1,33,-1
 1152 -63 l 1,34,35
 1184 -6 1184 -6 1213 66.5 c 128,-1,36
 1242 139 1242 139 1260.5 218.5 c 128,-1,37
 1279 298 1279 298 1279 377 c 0,38,39
 1279 495 1279 495 1225 566 c 128,-1,40
 1171 637 1171 637 1064 637 c 0,41,42
 1016 637 1016 637 978.5 627 c 128,-1,43
 941 617 941 617 908 597 c 1,44,45
 966 571 966 571 1010 516.5 c 128,-1,46
 1054 462 1054 462 1078 384.5 c 128,-1,47
 1102 307 1102 307 1102 212 c 0,48,49
 1102 87 1102 87 1063 -27 c 128,-1,50
 1024 -141 1024 -141 945.5 -230 c 128,-1,51
 867 -319 867 -319 748.5 -370.5 c 128,-1,52
 630 -422 630 -422 471 -422 c 0,53,54
 392 -422 392 -422 326.5 -402.5 c 128,-1,55
 261 -383 261 -383 219 -355 c 1,56,-1
 243 -304 l 1,57,58
 285 -317 285 -317 339.5 -326 c 128,-1,59
 394 -335 394 -335 461 -335 c 0,60,61
 590 -335 590 -335 696 -298.5 c 128,-1,62
 802 -262 802 -262 879 -191 c 128,-1,63
 956 -120 956 -120 998 -17 c 128,-1,64
 1040 86 1040 86 1040 218 c 0,65,66
 1040 322 1040 322 1008 400.5 c 128,-1,67
 976 479 976 479 922 523.5 c 128,-1,68
 868 568 868 568 801 568 c 0,69,70
 784 568 784 568 769 565 c 128,-1,71
 754 562 754 562 742 557 c 1,72,73
 820 516 820 516 862 438 c 128,-1,74
 904 360 904 360 904 254 c 0,75,76
 904 163 904 163 871.5 76 c 128,-1,77
 839 -11 839 -11 776 -81.5 c 128,-1,78
 713 -152 713 -152 622 -193.5 c 128,-1,79
 531 -235 531 -235 414 -235 c 0,80,81
 308 -235 308 -235 234 -203.5 c 128,-1,82
 160 -172 160 -172 99 -128 c 1,83,-1
 125 -76 l 1,84,85
 190 -107 190 -107 261 -125 c 128,-1,86
 332 -143 332 -143 418 -143 c 0,87,88
 510 -143 510 -143 587.5 -112 c 128,-1,89
 665 -81 665 -81 722 -25.5 c 128,-1,90
 779 30 779 30 810.5 105.5 c 128,-1,91
 842 181 842 181 842 270 c 0,92,93
 842 355 842 355 807 417 c 128,-1,94
 772 479 772 479 706 513 c 128,-1,95
 640 547 640 547 548 547 c 0,96,97
 531 547 531 547 514 546 c 1,98,99
 571 528 571 528 595 495 c 128,-1,100
 619 462 619 462 619 428 c 0,101,102
 619 381 619 381 588.5 347.5 c 128,-1,103
 558 314 558 314 502 300 c 1,104,105
 569 286 569 286 600 254 c 128,-1,106
 631 222 631 222 631 169 c 0,107,108
 631 117 631 117 602.5 78.5 c 128,-1,109
 574 40 574 40 530 19 c 128,-1,110
 486 -2 486 -2 440 -2 c 0,111,112
 363 -2 363 -2 303 36 c 128,-1,113
 243 74 243 74 209.5 141 c 128,-1,114
 176 208 176 208 176 295 c 0,115,116
 176 390 176 390 221 452 c 128,-1,117
 266 514 266 514 332 548 c 1,118,119
 304 558 304 558 272 564.5 c 128,-1,120
 240 571 240 571 200 571 c 0,121,122
 152 571 152 571 119.5 551 c 128,-1,123
 87 531 87 531 87 502 c 0,124,125
 87 482 87 482 99 471.5 c 128,-1,126
 111 461 111 461 125 455 c 1,127,-1
 94 395 l 1,0,1
237 297 m 0,128,129
 237 223 237 223 263 170.5 c 128,-1,130
 289 118 289 118 331.5 91 c 128,-1,131
 374 64 374 64 423 64 c 0,132,133
 478 64 478 64 506.5 92.5 c 128,-1,134
 535 121 535 121 535 164 c 0,135,136
 535 181 535 181 529.5 198.5 c 128,-1,137
 524 216 524 216 506 231.5 c 128,-1,138
 488 247 488 247 451 258 c 128,-1,139
 414 269 414 269 352 272 c 1,140,-1
 352 317 l 1,141,142
 411 319 411 319 446.5 329 c 128,-1,143
 482 339 482 339 499.5 355.5 c 128,-1,144
 517 372 517 372 523 390.5 c 128,-1,145
 529 409 529 409 529 427 c 0,146,147
 529 515 529 515 391 519 c 1,148,149
 349 502 349 502 314 473.5 c 128,-1,150
 279 445 279 445 258 401.5 c 128,-1,151
 237 358 237 358 237 297 c 0,128,129
EndSplineSet
Ligature2: "'cjct' Conjunct Forms in 'diak' lookup 10 subtable" u11941 u1190C u11931
Ligature2: "'psts' Post Base Substitutions in 'diak' lookup 3 subtable" ka_medradivesakuru u11931
EndChar

StartChar: ka_ssadivesakuru
Encoding: 1114115 -1 48
Width: 1304
GlyphClass: 2
Flags: W
HStem: -224 92<841.385 1074.1> -84 60<1039.86 1127.43> 0 66<340.499 498.539> 274 45<352 473.236> 387 48<1056.54 1144.34> 549 51<511.365 666.107> 573 44<116.718 329.082>
VStem: 10 77<466.189 545.029> 176 61<182.401 404.287> 529 90<365.644 484.581> 535 96<101.879 226.579> 699 66<-64.2629 107.124> 791 57<226.924 439.059> 961 62<-9.64349 109.989> 991 53<259.119 372.891> 1153 50<268.807 378.508> 1170 64<-5.09125 101.567>
AnchorPoint: "+BBEENQQ3BEsEPARPBD0EPQQ+BDUA--6" 1200 -14 basechar 0
AnchorPoint: "+BBEENQQ3BEsEPARPBD0EPQQ+BDUA--3" 929 -293 basechar 0
AnchorPoint: "+BBEENQQ3BEsEPARPBD0EPQQ+BDUA--0" 925 590 basechar 0
LayerCount: 2
Fore
SplineSet
94 397 m 1,0,1
 77 403 77 403 57.5 412.5 c 128,-1,2
 38 422 38 422 24 440 c 128,-1,3
 10 458 10 458 10 488 c 0,4,5
 10 520 10 520 29.5 549.5 c 128,-1,6
 49 579 49 579 89.5 598 c 128,-1,7
 130 617 130 617 192 617 c 0,8,9
 240 617 240 617 293.5 605.5 c 128,-1,10
 347 594 347 594 390 576 c 1,11,12
 426 589 426 589 463 594.5 c 128,-1,13
 500 600 500 600 534 600 c 0,14,15
 644 600 644 600 713.5 567 c 128,-1,16
 783 534 783 534 815.5 476.5 c 128,-1,17
 848 419 848 419 848 345 c 0,18,19
 848 296 848 296 835 254 c 128,-1,20
 822 212 822 212 805 172 c 0,21,22
 789 134 789 134 777 96.5 c 128,-1,23
 765 59 765 59 765 18 c 0,24,25
 765 -57 765 -57 815 -94.5 c 128,-1,26
 865 -132 865 -132 962 -132 c 0,27,28
 1023 -132 1023 -132 1064 -116.5 c 128,-1,29
 1105 -101 1105 -101 1128 -77 c 1,30,31
 1110 -84 1110 -84 1091 -84 c 0,32,33
 1059 -84 1059 -84 1029 -72.5 c 128,-1,34
 999 -61 999 -61 980 -34.5 c 128,-1,35
 961 -8 961 -8 961 35 c 0,36,37
 961 82 961 82 990 123 c 128,-1,38
 1019 164 1019 164 1057 198 c 1,39,40
 1026 227 1026 227 1008.5 257 c 128,-1,41
 991 287 991 287 991 326 c 0,42,43
 991 374 991 374 1021.5 404.5 c 128,-1,44
 1052 435 1052 435 1100 435 c 0,45,46
 1125 435 1125 435 1148.5 423.5 c 128,-1,47
 1172 412 1172 412 1187.5 390 c 128,-1,48
 1203 368 1203 368 1203 335 c 0,49,50
 1203 267 1203 267 1131 199 c 1,51,52
 1178 159 1178 159 1206 116.5 c 128,-1,53
 1234 74 1234 74 1234 18 c 0,54,55
 1234 -42 1234 -42 1202 -97.5 c 128,-1,56
 1170 -153 1170 -153 1104.5 -188.5 c 128,-1,57
 1039 -224 1039 -224 940 -224 c 0,58,59
 831 -224 831 -224 765 -172 c 128,-1,60
 699 -120 699 -120 699 -20 c 0,61,62
 699 42 699 42 714 87.5 c 128,-1,63
 729 133 729 133 748 174 c 0,64,65
 765 212 765 212 778 252 c 128,-1,66
 791 292 791 292 791 343 c 0,67,68
 791 403 791 403 763.5 449.5 c 128,-1,69
 736 496 736 496 678 522.5 c 128,-1,70
 620 549 620 549 528 549 c 0,71,72
 520 549 520 549 511 549 c 1,73,74
 570 531 570 531 594.5 498 c 128,-1,75
 619 465 619 465 619 430 c 0,76,77
 619 383 619 383 588.5 349.5 c 128,-1,78
 558 316 558 316 502 302 c 1,79,80
 569 288 569 288 600 256 c 128,-1,81
 631 224 631 224 631 171 c 0,82,83
 631 119 631 119 602.5 80.5 c 128,-1,84
 574 42 574 42 530 21 c 128,-1,85
 486 0 486 0 440 0 c 0,86,87
 363 0 363 0 303 38 c 128,-1,88
 243 76 243 76 209.5 143 c 128,-1,89
 176 210 176 210 176 297 c 0,90,91
 176 393 176 393 221 455 c 128,-1,92
 266 517 266 517 330 551 c 1,93,94
 302 561 302 561 270.5 567 c 128,-1,95
 239 573 239 573 200 573 c 0,96,97
 152 573 152 573 119.5 553 c 128,-1,98
 87 533 87 533 87 504 c 0,99,100
 87 484 87 484 99 473.5 c 128,-1,101
 111 463 111 463 125 457 c 1,102,-1
 94 397 l 1,0,1
237 299 m 0,103,104
 237 225 237 225 263 172.5 c 128,-1,105
 289 120 289 120 331.5 93 c 128,-1,106
 374 66 374 66 423 66 c 0,107,108
 478 66 478 66 506.5 94.5 c 128,-1,109
 535 123 535 123 535 166 c 0,110,111
 535 183 535 183 529.5 200.5 c 128,-1,112
 524 218 524 218 506 233.5 c 128,-1,113
 488 249 488 249 451 260 c 128,-1,114
 414 271 414 271 352 274 c 1,115,-1
 352 319 l 1,116,117
 411 321 411 321 446.5 331 c 128,-1,118
 482 341 482 341 499.5 357.5 c 128,-1,119
 517 374 517 374 523 392.5 c 128,-1,120
 529 411 529 411 529 429 c 0,121,122
 529 473 529 473 492.5 497 c 128,-1,123
 456 521 456 521 387 521 c 1,124,125
 347 504 347 504 313 475.5 c 128,-1,126
 279 447 279 447 258 403.5 c 128,-1,127
 237 360 237 360 237 299 c 0,103,104
1044 324 m 0,128,129
 1044 299 1044 299 1054.5 277 c 128,-1,130
 1065 255 1065 255 1094 230 c 1,131,132
 1124 256 1124 256 1138.5 278.5 c 128,-1,133
 1153 301 1153 301 1153 328 c 0,134,135
 1153 387 1153 387 1098 387 c 0,136,137
 1071 387 1071 387 1057.5 369.5 c 128,-1,138
 1044 352 1044 352 1044 324 c 0,128,129
1023 42 m 256,139,140
 1023 5 1023 5 1043.5 -9.5 c 128,-1,141
 1064 -24 1064 -24 1093 -24 c 0,142,143
 1115 -24 1115 -24 1135 -19 c 128,-1,144
 1155 -14 1155 -14 1168 3 c 1,145,146
 1170 15 1170 15 1170 27 c 0,147,148
 1170 65 1170 65 1150.5 98.5 c 128,-1,149
 1131 132 1131 132 1094 166 c 1,150,151
 1065 139 1065 139 1044 109 c 128,-1,152
 1023 79 1023 79 1023 42 c 256,139,140
EndSplineSet
Ligature2: "'cjct' Conjunct Forms in 'diak' lookup 9 subtable" u1190C viramadivesakuru u1192B
EndChar

StartChar: ka_medradivesakuru
Encoding: 1114116 -1 49
Width: 1152
GlyphClass: 2
Flags: W
HStem: -422 87<318.953 645.292> -355 51<239.706 257.003> -235 92<260.699 561.508> -2 66<340.499 498.539> 272 45<352 473.236> 547 51<514.375 678.115> 571 44<116.718 328.413 742.196 881.838>
VStem: 10 77<464.189 543.029> 176 61<180.401 403.016> 529 90<363.644 483.28> 535 96<99.8786 224.579> 842 62<131.309 388.997> 1040 62<44.2778 372.821>
AnchorPoint: "+BBEENQQ3BEsEPARPBD0EPQQ+BDUA--3" 815 -308 basechar 0
AnchorPoint: "+BBEENQQ3BEsEPARPBD0EPQQ+BDUA--2" 805 564 basechar 0
AnchorPoint: "+BBEENQQ3BEsEPARPBD0EPQQ+BDUA--0" 842 653 basechar 0
LayerCount: 2
Fore
SplineSet
94 395 m 1,0,1
 77 401 77 401 57.5 410.5 c 128,-1,2
 38 420 38 420 24 438 c 128,-1,3
 10 456 10 456 10 486 c 0,4,5
 10 518 10 518 29.5 547.5 c 128,-1,6
 49 577 49 577 89.5 596 c 128,-1,7
 130 615 130 615 192 615 c 0,8,9
 241 615 241 615 295.5 603 c 128,-1,10
 350 591 350 591 392 573 c 1,11,12
 432 586 432 586 473.5 592 c 128,-1,13
 515 598 515 598 554 598 c 0,14,15
 626 598 626 598 686 580 c 1,16,17
 709 599 709 599 737.5 609 c 128,-1,18
 766 619 766 619 805 619 c 0,19,20
 892 619 892 619 959 567 c 128,-1,21
 1026 515 1026 515 1064 423.5 c 128,-1,22
 1102 332 1102 332 1102 212 c 0,23,24
 1102 87 1102 87 1063 -27 c 128,-1,25
 1024 -141 1024 -141 945.5 -230 c 128,-1,26
 867 -319 867 -319 748.5 -370.5 c 128,-1,27
 630 -422 630 -422 471 -422 c 0,28,29
 392 -422 392 -422 326.5 -402.5 c 128,-1,30
 261 -383 261 -383 219 -355 c 1,31,-1
 243 -304 l 1,32,33
 285 -317 285 -317 339.5 -326 c 128,-1,34
 394 -335 394 -335 461 -335 c 0,35,36
 590 -335 590 -335 696 -298.5 c 128,-1,37
 802 -262 802 -262 879 -191 c 128,-1,38
 956 -120 956 -120 998 -17 c 128,-1,39
 1040 86 1040 86 1040 218 c 0,40,41
 1040 322 1040 322 1008 400.5 c 128,-1,42
 976 479 976 479 922 523.5 c 128,-1,43
 868 568 868 568 801 568 c 0,44,45
 784 568 784 568 769 565 c 128,-1,46
 754 562 754 562 742 557 c 1,47,48
 820 516 820 516 862 438 c 128,-1,49
 904 360 904 360 904 254 c 0,50,51
 904 163 904 163 871.5 76 c 128,-1,52
 839 -11 839 -11 776 -81.5 c 128,-1,53
 713 -152 713 -152 622 -193.5 c 128,-1,54
 531 -235 531 -235 414 -235 c 0,55,56
 308 -235 308 -235 234 -203.5 c 128,-1,57
 160 -172 160 -172 99 -128 c 1,58,-1
 125 -76 l 1,59,60
 190 -107 190 -107 261 -125 c 128,-1,61
 332 -143 332 -143 418 -143 c 0,62,63
 510 -143 510 -143 587.5 -112 c 128,-1,64
 665 -81 665 -81 722 -25.5 c 128,-1,65
 779 30 779 30 810.5 105.5 c 128,-1,66
 842 181 842 181 842 270 c 0,67,68
 842 355 842 355 807 417 c 128,-1,69
 772 479 772 479 706 513 c 128,-1,70
 640 547 640 547 548 547 c 0,71,72
 531 547 531 547 514 546 c 1,73,74
 571 528 571 528 595 495 c 128,-1,75
 619 462 619 462 619 428 c 0,76,77
 619 381 619 381 588.5 347.5 c 128,-1,78
 558 314 558 314 502 300 c 1,79,80
 569 286 569 286 600 254 c 128,-1,81
 631 222 631 222 631 169 c 0,82,83
 631 117 631 117 602.5 78.5 c 128,-1,84
 574 40 574 40 530 19 c 128,-1,85
 486 -2 486 -2 440 -2 c 0,86,87
 363 -2 363 -2 303 36 c 128,-1,88
 243 74 243 74 209.5 141 c 128,-1,89
 176 208 176 208 176 295 c 0,90,91
 176 390 176 390 221 452 c 128,-1,92
 266 514 266 514 332 548 c 1,93,94
 304 558 304 558 272 564.5 c 128,-1,95
 240 571 240 571 200 571 c 0,96,97
 152 571 152 571 119.5 551 c 128,-1,98
 87 531 87 531 87 502 c 0,99,100
 87 482 87 482 99 471.5 c 128,-1,101
 111 461 111 461 125 455 c 1,102,-1
 94 395 l 1,0,1
237 297 m 0,103,104
 237 223 237 223 263 170.5 c 128,-1,105
 289 118 289 118 331.5 91 c 128,-1,106
 374 64 374 64 423 64 c 0,107,108
 478 64 478 64 506.5 92.5 c 128,-1,109
 535 121 535 121 535 164 c 0,110,111
 535 181 535 181 529.5 198.5 c 128,-1,112
 524 216 524 216 506 231.5 c 128,-1,113
 488 247 488 247 451 258 c 128,-1,114
 414 269 414 269 352 272 c 1,115,-1
 352 317 l 1,116,117
 411 319 411 319 446.5 329 c 128,-1,118
 482 339 482 339 499.5 355.5 c 128,-1,119
 517 372 517 372 523 390.5 c 128,-1,120
 529 409 529 409 529 427 c 0,121,122
 529 515 529 515 391 519 c 1,123,124
 349 502 349 502 314 473.5 c 128,-1,125
 279 445 279 445 258 401.5 c 128,-1,126
 237 358 237 358 237 297 c 0,103,104
EndSplineSet
Ligature2: "'psts' Post Base Substitutions in 'diak' lookup 1 subtable" u1190C u11927
EndChar

StartChar: ka_vowelUdivesakuru
Encoding: 1114117 -1 50
Width: 925
GlyphClass: 2
Flags: W
HStem: -304 59<514.031 591> 0 66<340.499 498.539> 274 45<352 473.236> 549 51<514.375 670.55> 573 44<116.718 328.413>
VStem: 10 77<466.189 545.029> 176 61<182.401 405.016> 411 56<-208.908 -118.04> 529 90<365.644 485.28> 535 96<101.879 226.579> 805 70<192.459 422.635>
AnchorPoint: "+BBEENQQ3BEsEPARPBD0EPQQ+BDUA--3" 739 -15 basechar 0
AnchorPoint: "+BBEENQQ3BEsEPARPBD0EPQQ+BDUA--2" 534 551 basechar 0
AnchorPoint: "+BBEENQQ3BEsEPARPBD0EPQQ+BDUA--0" 691 714 basechar 0
LayerCount: 2
Fore
SplineSet
94 397 m 1,0,1
 77 403 77 403 57.5 412.5 c 128,-1,2
 38 422 38 422 24 440 c 128,-1,3
 10 458 10 458 10 488 c 0,4,5
 10 520 10 520 29.5 549.5 c 128,-1,6
 49 579 49 579 89.5 598 c 128,-1,7
 130 617 130 617 192 617 c 0,8,9
 241 617 241 617 295.5 605 c 128,-1,10
 350 593 350 593 392 575 c 1,11,12
 432 588 432 588 473.5 594 c 128,-1,13
 515 600 515 600 554 600 c 0,14,15
 659 600 659 600 730.5 561.5 c 128,-1,16
 802 523 802 523 838.5 459.5 c 128,-1,17
 875 396 875 396 875 320 c 0,18,19
 875 193 875 193 809 105.5 c 128,-1,20
 743 18 743 18 627 -38 c 0,21,22
 544 -78 544 -78 505.5 -104 c 128,-1,23
 467 -130 467 -130 467 -168 c 0,24,25
 467 -193 467 -193 488 -208.5 c 128,-1,26
 509 -224 509 -224 540 -232.5 c 128,-1,27
 571 -241 571 -241 602 -245 c 1,28,-1
 591 -304 l 1,29,30
 561 -303 561 -303 529.5 -296 c 128,-1,31
 498 -289 498 -289 471 -274.5 c 128,-1,32
 444 -260 444 -260 427.5 -235.5 c 128,-1,33
 411 -211 411 -211 411 -174 c 0,34,35
 411 -119 411 -119 452 -79 c 128,-1,36
 493 -39 493 -39 567 -4 c 0,37,38
 657 39 657 39 709 86.5 c 128,-1,39
 761 134 761 134 783 192 c 128,-1,40
 805 250 805 250 805 323 c 0,41,42
 805 384 805 384 776.5 435.5 c 128,-1,43
 748 487 748 487 691 518 c 128,-1,44
 634 549 634 549 548 549 c 0,45,46
 531 549 531 549 514 548 c 1,47,48
 571 530 571 530 595 497 c 128,-1,49
 619 464 619 464 619 430 c 0,50,51
 619 383 619 383 588.5 349.5 c 128,-1,52
 558 316 558 316 502 302 c 1,53,54
 569 288 569 288 600 256 c 128,-1,55
 631 224 631 224 631 171 c 0,56,57
 631 119 631 119 602.5 80.5 c 128,-1,58
 574 42 574 42 530 21 c 128,-1,59
 486 0 486 0 440 0 c 0,60,61
 363 0 363 0 303 38 c 128,-1,62
 243 76 243 76 209.5 143 c 128,-1,63
 176 210 176 210 176 297 c 0,64,65
 176 392 176 392 221 454 c 128,-1,66
 266 516 266 516 332 550 c 1,67,68
 304 560 304 560 272 566.5 c 128,-1,69
 240 573 240 573 200 573 c 0,70,71
 152 573 152 573 119.5 553 c 128,-1,72
 87 533 87 533 87 504 c 0,73,74
 87 484 87 484 99 473.5 c 128,-1,75
 111 463 111 463 125 457 c 1,76,-1
 94 397 l 1,0,1
237 299 m 0,77,78
 237 225 237 225 263 172.5 c 128,-1,79
 289 120 289 120 331.5 93 c 128,-1,80
 374 66 374 66 423 66 c 0,81,82
 478 66 478 66 506.5 94.5 c 128,-1,83
 535 123 535 123 535 166 c 0,84,85
 535 183 535 183 529.5 200.5 c 128,-1,86
 524 218 524 218 506 233.5 c 128,-1,87
 488 249 488 249 451 260 c 128,-1,88
 414 271 414 271 352 274 c 1,89,-1
 352 319 l 1,90,91
 411 321 411 321 446.5 331 c 128,-1,92
 482 341 482 341 499.5 357.5 c 128,-1,93
 517 374 517 374 523 392.5 c 128,-1,94
 529 411 529 411 529 429 c 0,95,96
 529 517 529 517 391 521 c 1,97,98
 349 504 349 504 314 475.5 c 128,-1,99
 279 447 279 447 258 403.5 c 128,-1,100
 237 360 237 360 237 299 c 0,77,78
EndSplineSet
Ligature2: "'cjct' Conjunct Forms in 'diak' lookup 12 subtable" u1190C u11933
EndChar

StartChar: ka_vowelUUdivesakuru
Encoding: 1114118 -1 51
Width: 1182
GlyphClass: 2
Flags: W
HStem: -305 59<515.934 591 916.221 1014.44> 0 66<340.499 498.539> 150 57<859 997.822> 274 45<352 473.236> 549 51<514.375 670.55> 573 44<116.718 328.413>
VStem: 10 77<466.189 545.029> 176 61<182.401 405.016> 411 56<-208.908 -118.04> 529 90<365.644 485.28> 535 96<101.879 226.579> 805 70<208.634 422.635> 840 56<-224.977 25> 1032 60<-228.854 127.859>
AnchorPoint: "+BBEENQQ3BEsEPARPBD0EPQQ+BDUA--3" 966 -353 basechar 0
AnchorPoint: "+BBEENQQ3BEsEPARPBD0EPQQ+BDUA--2" 534 551 basechar 0
AnchorPoint: "+BBEENQQ3BEsEPARPBD0EPQQ+BDUA--0" 962 536 basechar 0
LayerCount: 2
Fore
SplineSet
94 397 m 1,0,1
 77 403 77 403 57.5 412.5 c 128,-1,2
 38 422 38 422 24 440 c 128,-1,3
 10 458 10 458 10 488 c 0,4,5
 10 520 10 520 29.5 549.5 c 128,-1,6
 49 579 49 579 89.5 598 c 128,-1,7
 130 617 130 617 192 617 c 0,8,9
 241 617 241 617 295.5 605 c 128,-1,10
 350 593 350 593 392 575 c 1,11,12
 432 588 432 588 473.5 594 c 128,-1,13
 515 600 515 600 554 600 c 0,14,15
 659 600 659 600 730.5 561.5 c 128,-1,16
 802 523 802 523 838.5 459.5 c 128,-1,17
 875 396 875 396 875 320 c 0,18,19
 875 260 875 260 859 207 c 1,20,-1
 906 207 l 2,21,22
 964 207 964 207 1000.5 199.5 c 128,-1,23
 1037 192 1037 192 1057 172.5 c 128,-1,24
 1077 153 1077 153 1084.5 115.5 c 128,-1,25
 1092 78 1092 78 1092 18 c 2,26,-1
 1092 -113 l 2,27,28
 1092 -213 1092 -213 1061 -259 c 128,-1,29
 1030 -305 1030 -305 966 -305 c 256,30,31
 902 -305 902 -305 871 -259 c 128,-1,32
 840 -213 840 -213 840 -113 c 2,33,-1
 840 25 l 1,34,-1
 896 25 l 1,35,-1
 896 -98 l 2,36,37
 896 -169 896 -169 908 -207.5 c 128,-1,38
 920 -246 920 -246 966 -246 c 256,39,40
 1012 -246 1012 -246 1022 -207.5 c 128,-1,41
 1032 -169 1032 -169 1032 -98 c 2,42,-1
 1032 -6 l 2,43,44
 1032 59 1032 59 1026 92.5 c 128,-1,45
 1020 126 1020 126 998.5 138 c 128,-1,46
 977 150 977 150 929 150 c 2,47,-1
 836 150 l 1,48,49
 805 90 805 90 752 43.5 c 128,-1,50
 699 -3 699 -3 627 -38 c 0,51,52
 544 -78 544 -78 505.5 -104 c 128,-1,53
 467 -130 467 -130 467 -168 c 0,54,55
 467 -193 467 -193 488 -208.5 c 128,-1,56
 509 -224 509 -224 540 -232.5 c 128,-1,57
 571 -241 571 -241 602 -245 c 1,58,-1
 591 -304 l 1,59,60
 561 -303 561 -303 529.5 -296 c 128,-1,61
 498 -289 498 -289 471 -274.5 c 128,-1,62
 444 -260 444 -260 427.5 -235.5 c 128,-1,63
 411 -211 411 -211 411 -174 c 0,64,65
 411 -119 411 -119 452 -79 c 128,-1,66
 493 -39 493 -39 567 -4 c 0,67,68
 657 39 657 39 709 86.5 c 128,-1,69
 761 134 761 134 783 192 c 128,-1,70
 805 250 805 250 805 323 c 0,71,72
 805 384 805 384 776.5 435.5 c 128,-1,73
 748 487 748 487 691 518 c 128,-1,74
 634 549 634 549 548 549 c 0,75,76
 531 549 531 549 514 548 c 1,77,78
 571 530 571 530 595 497 c 128,-1,79
 619 464 619 464 619 430 c 0,80,81
 619 383 619 383 588.5 349.5 c 128,-1,82
 558 316 558 316 502 302 c 1,83,84
 569 288 569 288 600 256 c 128,-1,85
 631 224 631 224 631 171 c 0,86,87
 631 119 631 119 602.5 80.5 c 128,-1,88
 574 42 574 42 530 21 c 128,-1,89
 486 0 486 0 440 0 c 0,90,91
 363 0 363 0 303 38 c 128,-1,92
 243 76 243 76 209.5 143 c 128,-1,93
 176 210 176 210 176 297 c 0,94,95
 176 392 176 392 221 454 c 128,-1,96
 266 516 266 516 332 550 c 1,97,98
 304 560 304 560 272 566.5 c 128,-1,99
 240 573 240 573 200 573 c 0,100,101
 152 573 152 573 119.5 553 c 128,-1,102
 87 533 87 533 87 504 c 0,103,104
 87 484 87 484 99 473.5 c 128,-1,105
 111 463 111 463 125 457 c 1,106,-1
 94 397 l 1,0,1
237 299 m 0,107,108
 237 225 237 225 263 172.5 c 128,-1,109
 289 120 289 120 331.5 93 c 128,-1,110
 374 66 374 66 423 66 c 0,111,112
 478 66 478 66 506.5 94.5 c 128,-1,113
 535 123 535 123 535 166 c 0,114,115
 535 183 535 183 529.5 200.5 c 128,-1,116
 524 218 524 218 506 233.5 c 128,-1,117
 488 249 488 249 451 260 c 128,-1,118
 414 271 414 271 352 274 c 1,119,-1
 352 319 l 1,120,121
 411 321 411 321 446.5 331 c 128,-1,122
 482 341 482 341 499.5 357.5 c 128,-1,123
 517 374 517 374 523 392.5 c 128,-1,124
 529 411 529 411 529 429 c 0,125,126
 529 517 529 517 391 521 c 1,127,128
 349 504 349 504 314 475.5 c 128,-1,129
 279 447 279 447 258 403.5 c 128,-1,130
 237 360 237 360 237 299 c 0,107,108
EndSplineSet
Ligature2: "'cjct' Conjunct Forms in 'diak' lookup 13 subtable" u1190C u11934
EndChar

StartChar: nga_gadivesakuru
Encoding: 1114119 -1 52
Width: 786
GlyphClass: 2
Flags: W
HStem: -273 91<295.309 551.774> 0 57<296.6 426> 164 54<502.476 637.812> 315 42<211 316.521> 367 41<88.9502 168.877> 537 52<181.866 359.19>
VStem: 28 50<419.051 498.587> 180 49<418.161 495.844> 199 78<69.2859 156.767> 369 92<240.193 295.628> 392 90<411.101 507.714> 421 61<57.2877 144.946> 685 61<-75.5791 113.145>
AnchorPoint: "+BBEENQQ3BEsEPARPBD0EPQQ+BDUA--6" 615 187 basechar 0
AnchorPoint: "+BBEENQQ3BEsEPARPBD0EPQQ+BDUA--3" 539 -293 basechar 0
AnchorPoint: "+BBEENQQ3BEsEPARPBD0EPQQ+BDUA--0" 565 590 basechar 0
LayerCount: 2
Fore
SplineSet
430 -273 m 0,0,1
 359 -273 359 -273 295 -251 c 128,-1,2
 231 -229 231 -229 195 -189 c 1,3,-1
 214 -147 l 1,4,5
 263 -163 263 -163 315 -172.5 c 128,-1,6
 367 -182 367 -182 435 -182 c 0,7,8
 472 -182 472 -182 515 -173.5 c 128,-1,9
 558 -165 558 -165 597 -143 c 128,-1,10
 636 -121 636 -121 660.5 -80.5 c 128,-1,11
 685 -40 685 -40 685 24 c 0,12,13
 685 87 685 87 655 125.5 c 128,-1,14
 625 164 625 164 563 164 c 0,15,16
 526 164 526 164 504 145.5 c 128,-1,17
 482 127 482 127 482 95 c 0,18,19
 482 70 482 70 491 45.5 c 128,-1,20
 500 21 500 21 511 0 c 1,21,-1
 360 0 l 2,22,23
 278 0 278 0 238.5 21.5 c 128,-1,24
 199 43 199 43 199 95 c 0,25,26
 199 138 199 138 230 167.5 c 128,-1,27
 261 197 261 197 317 224 c 0,28,29
 340 235 340 235 354.5 245 c 128,-1,30
 369 255 369 255 369 268 c 0,31,32
 369 293 369 293 325 303 c 128,-1,33
 281 313 281 313 211 315 c 1,34,-1
 211 357 l 1,35,36
 258 359 258 359 299 371.5 c 128,-1,37
 340 384 340 384 366 407 c 128,-1,38
 392 430 392 430 392 464 c 0,39,40
 392 501 392 501 352.5 519 c 128,-1,41
 313 537 313 537 249 537 c 0,42,43
 228 537 228 537 211.5 534.5 c 128,-1,44
 195 532 195 532 181 529 c 1,45,46
 203 521 203 521 216 502.5 c 128,-1,47
 229 484 229 484 229 458 c 0,48,49
 229 409 229 409 199.5 388 c 128,-1,50
 170 367 170 367 130 367 c 0,51,52
 87 367 87 367 57.5 388 c 128,-1,53
 28 409 28 409 28 459 c 0,54,55
 28 524 28 524 87 556.5 c 128,-1,56
 146 589 146 589 253 589 c 256,57,58
 360 589 360 589 421 555 c 128,-1,59
 482 521 482 521 482 462 c 0,60,61
 482 431 482 431 460.5 407 c 128,-1,62
 439 383 439 383 407 366 c 128,-1,63
 375 349 375 349 342 341 c 1,64,65
 372 337 372 337 399.5 329 c 128,-1,66
 427 321 427 321 444 307 c 128,-1,67
 461 293 461 293 461 272 c 0,68,69
 461 255 461 255 446 241 c 128,-1,70
 431 227 431 227 410 216.5 c 128,-1,71
 389 206 389 206 369 197 c 0,72,73
 326 178 326 178 301.5 159 c 128,-1,74
 277 140 277 140 277 108 c 0,75,76
 277 83 277 83 296 70 c 128,-1,77
 315 57 315 57 361 57 c 2,78,-1
 426 57 l 1,79,80
 421 75 421 75 421 97 c 0,81,82
 421 127 421 127 437.5 154.5 c 128,-1,83
 454 182 454 182 486.5 200 c 128,-1,84
 519 218 519 218 565 218 c 0,85,86
 645 218 645 218 695.5 167.5 c 128,-1,87
 746 117 746 117 746 26 c 0,88,89
 746 -49 746 -49 718.5 -105 c 128,-1,90
 691 -161 691 -161 645 -198.5 c 128,-1,91
 599 -236 599 -236 543 -254.5 c 128,-1,92
 487 -273 487 -273 430 -273 c 0,0,1
130 408 m 0,93,94
 153 408 153 408 166.5 421 c 128,-1,95
 180 434 180 434 180 459 c 0,96,97
 180 477 180 477 168 492 c 128,-1,98
 156 507 156 507 129 507 c 0,99,100
 103 507 103 507 90.5 496 c 128,-1,101
 78 485 78 485 78 459 c 0,102,103
 78 437 78 437 90.5 422.5 c 128,-1,104
 103 408 103 408 130 408 c 0,93,94
EndSplineSet
Ligature2: "'cjct' Conjunct Forms in 'diak' lookup 9 subtable" u11910 viramadivesakuru u1190E
EndChar

StartChar: tta_ttadivesakuru
Encoding: 1114120 -1 53
Width: 957
GlyphClass: 2
Flags: W
HStem: -10 102<206.458 403.824 610.069 782.241> 517 74<167.362 302.235>
VStem: 30 57<509.313 591> 321 61<374.658 500.069> 519 54<211.312 357> 863 54<169.212 327.184>
AnchorPoint: "+BBEENQQ3BEsEPARPBD0EPQQ+BDUA--3" 670 -38 basechar 0
AnchorPoint: "+BBEENQQ3BEsEPARPBD0EPQQ+BDUA--0" 671 590 basechar 0
LayerCount: 2
Fore
SplineSet
300 -10 m 0,0,1
 211 -10 211 -10 161 42.5 c 128,-1,2
 111 95 111 95 102 204 c 2,3,-1
 101 216 l 1,4,5
 217 268 217 268 269 331 c 128,-1,6
 321 394 321 394 321 449 c 0,7,8
 321 484 321 484 300 500.5 c 128,-1,9
 279 517 279 517 244 517 c 0,10,11
 204 517 204 517 165 500 c 128,-1,12
 126 483 126 483 80 450 c 1,13,-1
 30 450 l 1,14,-1
 30 591 l 1,15,-1
 87 591 l 1,16,-1
 87 531 l 2,17,18
 87 519 87 519 86 509 c 1,19,20
 120 545 120 545 164.5 568 c 128,-1,21
 209 591 209 591 257 591 c 0,22,23
 316 591 316 591 349 558.5 c 128,-1,24
 382 526 382 526 382 471 c 0,25,26
 382 405 382 405 351 352 c 128,-1,27
 320 299 320 299 269 256.5 c 128,-1,28
 218 214 218 214 157 180 c 1,29,30
 176 92 176 92 309 92 c 0,31,32
 359 92 359 92 398 110.5 c 128,-1,33
 437 129 437 129 464 158.5 c 128,-1,34
 491 188 491 188 505 224 c 128,-1,35
 519 260 519 260 519 294 c 0,36,37
 519 312 519 312 517.5 328 c 128,-1,38
 516 344 516 344 514 357 c 1,39,-1
 568 359 l 1,40,41
 571 342 571 342 572 326.5 c 128,-1,42
 573 311 573 311 573 292 c 0,43,44
 573 252 573 252 561 210 c 1,45,46
 564 159 564 159 595.5 125.5 c 128,-1,47
 627 92 627 92 700 92 c 0,48,49
 748 92 748 92 784.5 110.5 c 128,-1,50
 821 129 821 129 842 170.5 c 128,-1,51
 863 212 863 212 863 282 c 0,52,53
 863 299 863 299 859 327 c 1,54,-1
 912 330 l 1,55,56
 917 307 917 307 917 283 c 0,57,58
 917 194 917 194 887 128 c 128,-1,59
 857 62 857 62 805.5 26 c 128,-1,60
 754 -10 754 -10 688 -10 c 0,61,62
 627 -10 627 -10 585 26 c 128,-1,63
 543 62 543 62 524 123 c 1,64,65
 491 68 491 68 435 29 c 128,-1,66
 379 -10 379 -10 300 -10 c 0,0,1
EndSplineSet
Ligature2: "'cjct' Conjunct Forms in 'diak' lookup 9 subtable" u11916 viramadivesakuru u11916
EndChar

StartChar: tta_vadivesakuru
Encoding: 1114121 -1 54
Width: 1077
GlyphClass: 2
Flags: W
HStem: -270 102<781.376 991.977> -10 102<249.031 502.663> 1 54<916.095 1043.53> 383 59<692.385 842.695> 517 74<167.458 324.156>
VStem: 28 57<509.313 591> 346 61<387.971 498.498> 619 55<236.873 364.703> 633 51<180.652 331.611> 654 66<-114.188 11.4414> 876 55<206.071 350.566> 1059 53<-116.486 -13.6263>
AnchorPoint: "+BBEENQQ3BEsEPARPBD0EPQQ+BDUA--6" 907 -4 basechar 0
AnchorPoint: "+BBEENQQ3BEsEPARPBD0EPQQ+BDUA--5" 1148 300 basechar 0
AnchorPoint: "+BBEENQQ3BEsEPARPBD0EPQQ+BDUA--3" 889 -293 basechar 0
AnchorPoint: "+BBEENQQ3BEsEPARPBD0EPQQ+BDUA--0" 915 590 basechar 0
LayerCount: 2
Fore
SplineSet
28 450 m 1,0,-1
 28 591 l 1,1,-1
 85 591 l 1,2,-1
 85 531 l 2,3,4
 85 519 85 519 84 509 c 1,5,6
 119 545 119 545 164.5 568 c 128,-1,7
 210 591 210 591 259 591 c 0,8,9
 331 591 331 591 369 558.5 c 128,-1,10
 407 526 407 526 407 471 c 0,11,12
 407 422 407 422 384.5 381.5 c 128,-1,13
 362 341 362 341 325 308.5 c 128,-1,14
 288 276 288 276 244 249.5 c 128,-1,15
 200 223 200 223 157 201 c 1,16,17
 160 172 160 172 185 147 c 128,-1,18
 210 122 210 122 262 107 c 128,-1,19
 314 92 314 92 397 92 c 0,20,21
 466 92 466 92 519 113.5 c 128,-1,22
 572 135 572 135 602.5 169.5 c 128,-1,23
 633 204 633 204 633 242 c 0,24,25
 633 272 633 272 626 293.5 c 128,-1,26
 619 315 619 315 619 343 c 0,27,28
 619 386 619 386 657 414 c 128,-1,29
 695 442 695 442 759 442 c 0,30,31
 824 442 824 442 861.5 421 c 128,-1,32
 899 400 899 400 915 366 c 128,-1,33
 931 332 931 332 931 293 c 0,34,35
 931 245 931 245 911 206 c 128,-1,36
 891 167 891 167 859.5 134 c 128,-1,37
 828 101 828 101 791 70 c 0,38,39
 757 42 757 42 738.5 15 c 128,-1,40
 720 -12 720 -12 720 -51 c 0,41,42
 720 -103 720 -103 764 -135.5 c 128,-1,43
 808 -168 808 -168 890 -168 c 0,44,45
 974 -168 974 -168 1016.5 -136 c 128,-1,46
 1059 -104 1059 -104 1059 -58 c 0,47,48
 1059 -31 1059 -31 1041 -15 c 128,-1,49
 1023 1 1023 1 994 1 c 0,50,51
 975 1 975 1 958 -4.5 c 128,-1,52
 941 -10 941 -10 919 -21 c 1,53,-1
 894 23 l 1,54,55
 917 37 917 37 943.5 46 c 128,-1,56
 970 55 970 55 996 55 c 0,57,58
 1039 55 1039 55 1064 36.5 c 128,-1,59
 1089 18 1089 18 1100.5 -10 c 128,-1,60
 1112 -38 1112 -38 1112 -66 c 0,61,62
 1112 -113 1112 -113 1087 -160.5 c 128,-1,63
 1062 -208 1062 -208 1010 -239 c 128,-1,64
 958 -270 958 -270 878 -270 c 0,65,66
 814 -270 814 -270 763 -246.5 c 128,-1,67
 712 -223 712 -223 683 -178.5 c 128,-1,68
 654 -134 654 -134 654 -71 c 0,69,70
 654 -22 654 -22 682 22.5 c 128,-1,71
 710 67 710 67 771 117 c 0,72,73
 813 152 813 152 844.5 192 c 128,-1,74
 876 232 876 232 876 285 c 0,75,76
 876 383 876 383 759 383 c 0,77,78
 713 383 713 383 693.5 364 c 128,-1,79
 674 345 674 345 674 322 c 0,80,81
 674 293 674 293 679 274.5 c 128,-1,82
 684 256 684 256 684 230 c 0,83,84
 684 192 684 192 662 150 c 128,-1,85
 640 108 640 108 600 71.5 c 128,-1,86
 560 35 560 35 505 12.5 c 128,-1,87
 450 -10 450 -10 385 -10 c 0,88,89
 249 -10 249 -10 175.5 55 c 128,-1,90
 102 120 102 120 102 229 c 2,91,-1
 102 241 l 1,92,93
 175 271 175 271 229.5 305 c 128,-1,94
 284 339 284 339 315 375.5 c 128,-1,95
 346 412 346 412 346 449 c 0,96,97
 346 484 346 484 321.5 500.5 c 128,-1,98
 297 517 297 517 254 517 c 0,99,100
 206 517 206 517 165 500 c 128,-1,101
 124 483 124 483 78 450 c 1,102,-1
 28 450 l 1,0,-1
EndSplineSet
Ligature2: "'cjct' Conjunct Forms in 'diak' lookup 9 subtable" u11916 viramadivesakuru u11929
EndChar

StartChar: nna_ddadivesakuru
Encoding: 1114122 -1 55
Width: 1117
GlyphClass: 2
Flags: W
HStem: -10 105<460.281 623.309 799.762 975.626> 247 48<106.955 191.526> 393 47<108.272 196.135> 500 86<124.302 278.76 432.134 564.404>
VStem: 34 50<400 460.43> 202 46<304.55 386.698> 330 53<376 443.268> 371 66<115.97 216.021> 584 66<368.185 480.256> 688 53<153.465 204> 1014 63<130.819 272.404>
AnchorPoint: "+BBEENQQ3BEsEPARPBD0EPQQ+BDUA--3" 769 -38 basechar 0
AnchorPoint: "+BBEENQQ3BEsEPARPBD0EPQQ+BDUA--0" 795 590 basechar 0
LayerCount: 2
Fore
SplineSet
533 -10 m 0,0,1
 464 -10 464 -10 417.5 28.5 c 128,-1,2
 371 67 371 67 371 141 c 0,3,4
 371 188 371 188 401 228.5 c 128,-1,5
 431 269 431 269 484 301 c 0,6,7
 527 327 527 327 555.5 359.5 c 128,-1,8
 584 392 584 392 584 430 c 0,9,10
 584 461 584 461 563.5 480.5 c 128,-1,11
 543 500 543 500 506 500 c 0,12,13
 448 500 448 500 419.5 466.5 c 128,-1,14
 391 433 391 433 383 376 c 1,15,-1
 330 376 l 1,16,17
 322 433 322 433 292 466.5 c 128,-1,18
 262 500 262 500 200 500 c 0,19,20
 145 500 145 500 114.5 470 c 128,-1,21
 84 440 84 440 84 402 c 2,22,-1
 84 400 l 1,23,24
 92 417 92 417 110 428.5 c 128,-1,25
 128 440 128 440 154 440 c 0,26,27
 204 440 204 440 226 412 c 128,-1,28
 248 384 248 384 248 346 c 0,29,30
 248 302 248 302 221.5 274.5 c 128,-1,31
 195 247 195 247 148 247 c 0,32,33
 98 247 98 247 66 286 c 128,-1,34
 34 325 34 325 34 400 c 0,35,36
 34 455 34 455 57 497 c 128,-1,37
 80 539 80 539 118 562.5 c 128,-1,38
 156 586 156 586 200 586 c 0,39,40
 249 586 249 586 280 565.5 c 128,-1,41
 311 545 311 545 329 515 c 128,-1,42
 347 485 347 485 356 456 c 1,43,44
 366 485 366 485 383 515 c 128,-1,45
 400 545 400 545 431 565.5 c 128,-1,46
 462 586 462 586 513 586 c 0,47,48
 578 586 578 586 614 547 c 128,-1,49
 650 508 650 508 650 455 c 0,50,51
 650 408 650 408 631 373 c 128,-1,52
 612 338 612 338 581 311.5 c 128,-1,53
 550 285 550 285 513 261 c 0,54,55
 464 230 464 230 450.5 206.5 c 128,-1,56
 437 183 437 183 437 163 c 0,57,58
 437 130 437 130 462.5 112.5 c 128,-1,59
 488 95 488 95 531 95 c 0,60,61
 586 95 586 95 617.5 110.5 c 128,-1,62
 649 126 649 126 665 151 c 128,-1,63
 681 176 681 176 688 204 c 1,64,-1
 741 204 l 1,65,66
 746 149 746 149 786 122 c 128,-1,67
 826 95 826 95 879 95 c 0,68,69
 1014 95 1014 95 1014 192 c 0,70,71
 1014 228 1014 228 997 263.5 c 128,-1,72
 980 299 980 299 927 329 c 1,73,-1
 954 373 l 1,74,75
 1007 347 1007 347 1042 297 c 128,-1,76
 1077 247 1077 247 1077 178 c 0,77,78
 1077 88 1077 88 1027.5 39 c 128,-1,79
 978 -10 978 -10 893 -10 c 0,80,81
 820 -10 820 -10 778 27.5 c 128,-1,82
 736 65 736 65 714 129 c 1,83,84
 703 94 703 94 679.5 62 c 128,-1,85
 656 30 656 30 620 10 c 128,-1,86
 584 -10 584 -10 533 -10 c 0,0,1
150 295 m 0,87,88
 174 295 174 295 188 307 c 128,-1,89
 202 319 202 319 202 345 c 0,90,91
 202 393 202 393 150 393 c 0,92,93
 124 393 124 393 111 379.5 c 128,-1,94
 98 366 98 366 98 343 c 0,95,96
 98 316 98 316 111 305.5 c 128,-1,97
 124 295 124 295 150 295 c 0,87,88
EndSplineSet
Ligature2: "'cjct' Conjunct Forms in 'diak' lookup 9 subtable" u1191A viramadivesakuru u11918
EndChar

StartChar: ta_thadivesakuru
Encoding: 1114123 -1 56
Width: 838
GlyphClass: 2
Flags: W
HStem: -270 100<569.825 747.725> -10 56<155.937 291.723> -3 50<727.662 809.713> 502 87<157.508 313.669>
VStem: 63 71<67.1168 211.287> 392 60<171.645 312> 469 63<-131.307 16.2448> 547 56<103.563 275.3> 654 54<-109 -22.459> 820 53<-118.152 -13.9802>
AnchorPoint: "+BBEENQQ3BEsEPARPBD0EPQQ+BDUA--6" 774 -9 basechar 0
AnchorPoint: "+BBEENQQ3BEsEPARPBD0EPQQ+BDUA--5" 938 300 basechar 0
AnchorPoint: "+BBEENQQ3BEsEPARPBD0EPQQ+BDUA--3" 689 -293 basechar 0
AnchorPoint: "+BBEENQQ3BEsEPARPBD0EPQQ+BDUA--0" 695 590 basechar 0
LayerCount: 2
Fore
SplineSet
645 -270 m 0,0,1
 563 -270 563 -270 516 -223.5 c 128,-1,2
 469 -177 469 -177 469 -101 c 0,3,4
 469 -48 469 -48 482 -9 c 128,-1,5
 495 30 495 30 511 66 c 0,6,7
 525 98 525 98 536 131.5 c 128,-1,8
 547 165 547 165 547 205 c 0,9,10
 547 250 547 250 523.5 278 c 128,-1,11
 500 306 500 306 452 312 c 1,12,13
 451 213 451 213 420 141 c 128,-1,14
 389 69 389 69 335.5 29.5 c 128,-1,15
 282 -10 282 -10 214 -10 c 256,16,17
 146 -10 146 -10 104.5 25 c 128,-1,18
 63 60 63 60 63 130 c 0,19,20
 63 197 63 197 104.5 249 c 128,-1,21
 146 301 146 301 219 332 c 128,-1,22
 292 363 292 363 386 368 c 1,23,24
 371 441 371 441 327.5 471.5 c 128,-1,25
 284 502 284 502 236 502 c 0,26,27
 193 502 193 502 163 484 c 128,-1,28
 133 466 133 466 115.5 441 c 128,-1,29
 98 416 98 416 91 395 c 1,30,-1
 40 403 l 1,31,32
 45 455 45 455 70 497 c 128,-1,33
 95 539 95 539 138 564 c 128,-1,34
 181 589 181 589 239 589 c 0,35,36
 322 589 322 589 380 533 c 128,-1,37
 438 477 438 477 450 368 c 1,38,39
 506 362 506 362 539.5 338 c 128,-1,40
 573 314 573 314 588 280.5 c 128,-1,41
 603 247 603 247 603 213 c 0,42,43
 603 170 603 170 592.5 136.5 c 128,-1,44
 582 103 582 103 568 72 c 0,45,46
 555 41 555 41 543.5 8 c 128,-1,47
 532 -25 532 -25 532 -69 c 0,48,49
 532 -111 532 -111 561 -140.5 c 128,-1,50
 590 -170 590 -170 657 -170 c 0,51,52
 723 -170 723 -170 758 -151 c 128,-1,53
 793 -132 793 -132 806.5 -105.5 c 128,-1,54
 820 -79 820 -79 820 -57 c 0,55,56
 820 -32 820 -32 807.5 -17.5 c 128,-1,57
 795 -3 795 -3 773 -3 c 0,58,59
 747 -3 747 -3 727.5 -24.5 c 128,-1,60
 708 -46 708 -46 708 -109 c 1,61,-1
 654 -109 l 1,62,63
 654 -51 654 -51 671 -17 c 128,-1,64
 688 17 688 17 715 32 c 128,-1,65
 742 47 742 47 772 47 c 0,66,67
 811 47 811 47 833 30.5 c 128,-1,68
 855 14 855 14 864 -10 c 128,-1,69
 873 -34 873 -34 873 -59 c 0,70,71
 873 -109 873 -109 845 -158 c 128,-1,72
 817 -207 817 -207 766 -238.5 c 128,-1,73
 715 -270 715 -270 645 -270 c 0,0,1
134 136 m 0,74,75
 134 46 134 46 216 46 c 0,76,77
 266 46 266 46 306 78 c 128,-1,78
 346 110 346 110 369 168 c 128,-1,79
 392 226 392 226 392 304 c 0,80,81
 392 309 392 309 392 312 c 1,82,83
 274 306 274 306 204 259.5 c 128,-1,84
 134 213 134 213 134 136 c 0,74,75
EndSplineSet
Ligature2: "'cjct' Conjunct Forms in 'diak' lookup 9 subtable" u1191B viramadivesakuru u1191C
EndChar

StartChar: ta_medyadivesakuru
Encoding: 1114124 -1 57
Width: 1284
GlyphClass: 2
Flags: W
HStem: -271 91<146.896 431.809> -10 56<197.705 334.723> 286 48<679.292 887.418> 502 87<200.508 356.669>
VStem: 106 70<68.625 211.437> 435 60<171.645 314> 667 60<4.49567 216.741> 945 70<46.2443 231.152> 1180 64<62.2659 286.82>
AnchorPoint: "+BBEENQQ3BEsEPARPBD0EPQQ+BDUA--3" 995 -208 basechar 0
AnchorPoint: "+BBEENQQ3BEsEPARPBD0EPQQ+BDUA--2" 815 292 basechar 0
AnchorPoint: "+BBEENQQ3BEsEPARPBD0EPQQ+BDUA--1" 1016 495 basechar 0
AnchorPoint: "+BBEENQQ3BEsEPARPBD0EPQQ+BDUA--0" 846 536 basechar 0
LayerCount: 2
Fore
SplineSet
286 -271 m 0,0,1
 207 -271 207 -271 141 -247.5 c 128,-1,2
 75 -224 75 -224 40 -192 c 1,3,-1
 54 -145 l 1,4,5
 95 -161 95 -161 150 -170.5 c 128,-1,6
 205 -180 205 -180 281 -180 c 0,7,8
 328 -180 328 -180 381 -171.5 c 128,-1,9
 434 -163 434 -163 485 -143 c 128,-1,10
 536 -123 536 -123 577 -88.5 c 128,-1,11
 618 -54 618 -54 642.5 -2.5 c 128,-1,12
 667 49 667 49 667 120 c 0,13,14
 667 197 667 197 624 251.5 c 128,-1,15
 581 306 581 306 495 314 c 1,16,17
 494 215 494 215 463 142.5 c 128,-1,18
 432 70 432 70 378.5 30 c 128,-1,19
 325 -10 325 -10 257 -10 c 256,20,21
 189 -10 189 -10 147.5 25 c 128,-1,22
 106 60 106 60 106 130 c 0,23,24
 106 197 106 197 147.5 249 c 128,-1,25
 189 301 189 301 262 332 c 128,-1,26
 335 363 335 363 429 368 c 1,27,28
 414 441 414 441 370.5 471.5 c 128,-1,29
 327 502 327 502 279 502 c 0,30,31
 236 502 236 502 206 484 c 128,-1,32
 176 466 176 466 158.5 441 c 128,-1,33
 141 416 141 416 134 395 c 1,34,-1
 83 403 l 1,35,36
 88 455 88 455 113 497 c 128,-1,37
 138 539 138 539 181 564 c 128,-1,38
 224 589 224 589 282 589 c 0,39,40
 365 589 365 589 423 533 c 128,-1,41
 481 477 481 477 493 368 c 1,42,43
 582 361 582 361 642 314 c 1,44,45
 686 324 686 324 720.5 329 c 128,-1,46
 755 334 755 334 797 334 c 0,47,48
 830 334 830 334 867.5 327.5 c 128,-1,49
 905 321 905 321 939 302 c 128,-1,50
 973 283 973 283 994 246 c 128,-1,51
 1015 209 1015 209 1015 148 c 0,52,53
 1015 89 1015 89 986.5 32 c 128,-1,54
 958 -25 958 -25 909.5 -81 c 128,-1,55
 861 -137 861 -137 800 -191 c 1,56,57
 867 -183 867 -183 934 -158 c 128,-1,58
 1001 -133 1001 -133 1057 -87 c 128,-1,59
 1113 -41 1113 -41 1146.5 31.5 c 128,-1,60
 1180 104 1180 104 1180 206 c 0,61,62
 1180 223 1180 223 1177 246 c 128,-1,63
 1174 269 1174 269 1169 288 c 1,64,-1
 1216 296 l 1,65,66
 1228 281 1228 281 1236 249 c 128,-1,67
 1244 217 1244 217 1244 181 c 0,68,69
 1244 87 1244 87 1204 10 c 128,-1,70
 1164 -67 1164 -67 1093 -122.5 c 128,-1,71
 1022 -178 1022 -178 927.5 -207.5 c 128,-1,72
 833 -237 833 -237 724 -237 c 1,73,-1
 724 -196 l 1,74,75
 790 -134 790 -134 840 -78.5 c 128,-1,76
 890 -23 890 -23 917.5 31 c 128,-1,77
 945 85 945 85 945 140 c 0,78,79
 945 203 945 203 921.5 234 c 128,-1,80
 898 265 898 265 860.5 275.5 c 128,-1,81
 823 286 823 286 782 286 c 0,82,83
 739 286 739 286 678 277 c 1,84,85
 727 214 727 214 727 122 c 0,86,87
 727 42 727 42 701 -21.5 c 128,-1,88
 675 -85 675 -85 630 -132 c 128,-1,89
 585 -179 585 -179 528 -209.5 c 128,-1,90
 471 -240 471 -240 408.5 -255.5 c 128,-1,91
 346 -271 346 -271 286 -271 c 0,0,1
176 136 m 0,92,93
 176 46 176 46 259 46 c 0,94,95
 309 46 309 46 349 78 c 128,-1,96
 389 110 389 110 412 168 c 128,-1,97
 435 226 435 226 435 304 c 0,98,99
 435 310 435 310 435 314 c 1,100,101
 317 308 317 308 246.5 260.5 c 128,-1,102
 176 213 176 213 176 136 c 0,92,93
EndSplineSet
Ligature2: "'psts' Post Base Substitutions in 'diak' lookup 2 subtable" u1191B u11925
EndChar

StartChar: da_medyadivesakuru
Encoding: 1114125 -1 58
Width: 1034
GlyphClass: 2
Flags: W
HStem: -11 56<48.5587 344.146> 246 48<205.115 372.312 478.568 643.114> 537 52<84.0332 390.856>
VStem: 128 57<300.307 356.048> 414 92<99.3848 210.943 437.411 514.26> 695 70<9.82861 196.081> 930 64<42.207 266.82>
AnchorPoint: "+BBEENQQ3BEsEPARPBD0EPQQ+BDUA--3" 775 -208 basechar 0
AnchorPoint: "+BBEENQQ3BEsEPARPBD0EPQQ+BDUA--2" 625 252 basechar 0
AnchorPoint: "+BBEENQQ3BEsEPARPBD0EPQQ+BDUA--1" 766 495 basechar 0
AnchorPoint: "+BBEENQQ3BEsEPARPBD0EPQQ+BDUA--0" 627 536 basechar 0
LayerCount: 2
Fore
SplineSet
218 -11 m 0,0,1
 167 -11 167 -11 123.5 -6 c 128,-1,2
 80 -1 80 -1 36 11 c 1,3,-1
 47 63 l 1,4,5
 97 54 97 54 131.5 49.5 c 128,-1,6
 166 45 166 45 205 45 c 0,7,8
 414 45 414 45 414 162 c 0,9,10
 414 194 414 194 394.5 210.5 c 128,-1,11
 375 227 375 227 344 233 c 128,-1,12
 313 239 313 239 278 240 c 0,13,14
 242 241 242 241 207.5 246 c 128,-1,15
 173 251 173 251 150.5 267.5 c 128,-1,16
 128 284 128 284 128 321 c 0,17,18
 128 360 128 360 151 379.5 c 128,-1,19
 174 399 174 399 208 406.5 c 128,-1,20
 242 414 242 414 274 416 c 0,21,22
 349 421 349 421 380.5 431.5 c 128,-1,23
 412 442 412 442 412 476 c 0,24,25
 412 502 412 502 391.5 515 c 128,-1,26
 371 528 371 528 336.5 532.5 c 128,-1,27
 302 537 302 537 259 537 c 0,28,29
 198 537 198 537 157 532 c 128,-1,30
 116 527 116 527 83 520 c 1,31,-1
 67 568 l 1,32,33
 96 577 96 577 146 583 c 128,-1,34
 196 589 196 589 252 589 c 0,35,36
 380 589 380 589 441 560.5 c 128,-1,37
 502 532 502 532 502 479 c 0,38,39
 502 437 502 437 476 413.5 c 128,-1,40
 450 390 450 390 406.5 380 c 128,-1,41
 363 370 363 370 310 368 c 0,42,43
 248 366 248 366 216.5 359 c 128,-1,44
 185 352 185 352 185 327 c 0,45,46
 185 308 185 308 204.5 300.5 c 128,-1,47
 224 293 224 293 267 291 c 0,48,49
 312 290 312 290 349 286 c 128,-1,50
 386 282 386 282 414 274 c 1,51,52
 458 284 458 284 491.5 289 c 128,-1,53
 525 294 525 294 567 294 c 0,54,55
 599 294 599 294 633.5 286.5 c 128,-1,56
 668 279 668 279 698 259.5 c 128,-1,57
 728 240 728 240 746.5 206 c 128,-1,58
 765 172 765 172 765 118 c 0,59,60
 765 54 765 54 737 -5 c 128,-1,61
 709 -64 709 -64 660.5 -120 c 128,-1,62
 612 -176 612 -176 551 -230 c 1,63,64
 622 -220 622 -220 689.5 -190 c 128,-1,65
 757 -160 757 -160 811.5 -108.5 c 128,-1,66
 866 -57 866 -57 898 16 c 128,-1,67
 930 89 930 89 930 186 c 0,68,69
 930 203 930 203 927 226 c 128,-1,70
 924 249 924 249 919 268 c 1,71,-1
 966 276 l 1,72,73
 978 261 978 261 986 229 c 128,-1,74
 994 197 994 197 994 161 c 0,75,76
 994 74 994 74 956.5 -5 c 128,-1,77
 919 -84 919 -84 850 -145 c 128,-1,78
 781 -206 781 -206 685.5 -241.5 c 128,-1,79
 590 -277 590 -277 474 -277 c 1,80,-1
 474 -236 l 1,81,82
 540 -174 540 -174 590 -118 c 128,-1,83
 640 -62 640 -62 667.5 -6 c 128,-1,84
 695 50 695 50 695 110 c 0,85,86
 695 163 695 163 675.5 192.5 c 128,-1,87
 656 222 656 222 624 234 c 128,-1,88
 592 246 592 246 552 246 c 0,89,90
 520 246 520 246 478 241 c 1,91,92
 506 213 506 213 506 161 c 0,93,94
 506 118 506 118 474 78.5 c 128,-1,95
 442 39 442 39 378 14 c 128,-1,96
 314 -11 314 -11 218 -11 c 0,0,1
EndSplineSet
Ligature2: "'psts' Post Base Substitutions in 'diak' lookup 2 subtable" u1191D u11925
EndChar

StartChar: da_vowelUdivesakuru
Encoding: 1114126 -1 59
Width: 892
GlyphClass: 2
Flags: W
HStem: -305 59<626.221 724.438> -11 56<48.5587 336.62> 180 57<505 707.822> 240 51<205.115 375.096> 537 52<84.0332 380.38>
VStem: 128 57<300.307 356.048> 404 102<99.9399 179.839 436.526 514.948> 550 56<-224.977 55> 742 60<-228.854 157.859>
AnchorPoint: "+BBEENQQ3BEsEPARPBD0EPQQ+BDUA--3" 676 -353 basechar 0
AnchorPoint: "+BBEENQQ3BEsEPARPBD0EPQQ+BDUA--2" 635 199 basechar 0
AnchorPoint: "+BBEENQQ3BEsEPARPBD0EPQQ+BDUA--0" 672 536 basechar 0
LayerCount: 2
Fore
SplineSet
218 -11 m 0,0,1
 167 -11 167 -11 123.5 -6 c 128,-1,2
 80 -1 80 -1 36 11 c 1,3,-1
 47 63 l 1,4,5
 97 54 97 54 131.5 49.5 c 128,-1,6
 166 45 166 45 205 45 c 0,7,8
 306 45 306 45 355 76 c 128,-1,9
 404 107 404 107 404 162 c 0,10,11
 404 193 404 193 386.5 209.5 c 128,-1,12
 369 226 369 226 340 232.5 c 128,-1,13
 311 239 311 239 278 240 c 0,14,15
 242 241 242 241 207.5 246 c 128,-1,16
 173 251 173 251 150.5 267.5 c 128,-1,17
 128 284 128 284 128 321 c 0,18,19
 128 360 128 360 151 379.5 c 128,-1,20
 174 399 174 399 208 406.5 c 128,-1,21
 242 414 242 414 274 416 c 0,22,23
 345 421 345 421 373.5 432 c 128,-1,24
 402 443 402 443 402 476 c 0,25,26
 402 502 402 502 382.5 515 c 128,-1,27
 363 528 363 528 330.5 532.5 c 128,-1,28
 298 537 298 537 259 537 c 0,29,30
 198 537 198 537 157 532 c 128,-1,31
 116 527 116 527 83 520 c 1,32,-1
 67 568 l 1,33,34
 96 577 96 577 146 583 c 128,-1,35
 196 589 196 589 252 589 c 0,36,37
 380 589 380 589 441 560.5 c 128,-1,38
 502 532 502 532 502 479 c 0,39,40
 502 437 502 437 476 413.5 c 128,-1,41
 450 390 450 390 406.5 380 c 128,-1,42
 363 370 363 370 310 368 c 0,43,44
 248 366 248 366 216.5 359 c 128,-1,45
 185 352 185 352 185 327 c 0,46,47
 185 308 185 308 204.5 300.5 c 128,-1,48
 224 293 224 293 267 291 c 0,49,50
 348 288 348 288 402 277.5 c 128,-1,51
 456 267 456 267 482 237 c 1,52,-1
 616 237 l 2,53,54
 674 237 674 237 710.5 229.5 c 128,-1,55
 747 222 747 222 767 202.5 c 128,-1,56
 787 183 787 183 794.5 145.5 c 128,-1,57
 802 108 802 108 802 48 c 2,58,-1
 802 -113 l 2,59,60
 802 -213 802 -213 771 -259 c 128,-1,61
 740 -305 740 -305 676 -305 c 256,62,63
 612 -305 612 -305 581 -259 c 128,-1,64
 550 -213 550 -213 550 -113 c 2,65,-1
 550 55 l 1,66,-1
 606 55 l 1,67,-1
 606 -98 l 2,68,69
 606 -169 606 -169 618 -207.5 c 128,-1,70
 630 -246 630 -246 676 -246 c 256,71,72
 722 -246 722 -246 732 -207.5 c 128,-1,73
 742 -169 742 -169 742 -98 c 2,74,-1
 742 24 l 2,75,76
 742 89 742 89 736 122.5 c 128,-1,77
 730 156 730 156 708.5 168 c 128,-1,78
 687 180 687 180 639 180 c 2,79,-1
 505 180 l 1,80,81
 506 171 506 171 506 161 c 0,82,83
 506 118 506 118 474 78.5 c 128,-1,84
 442 39 442 39 378 14 c 128,-1,85
 314 -11 314 -11 218 -11 c 0,0,1
EndSplineSet
Ligature2: "'cjct' Conjunct Forms in 'diak' lookup 12 subtable" u1191D u11933
EndChar

StartChar: dha_medyadivesakuru
Encoding: 1114127 -1 60
Width: 1404
GlyphClass: 2
Flags: W
HStem: -10 95<290.042 479.376 612.506 782.616> 276 58<499.999 590.26> 337 51<110.832 205.41> 396 48<878.863 1014.94> 537 52<215.822 345.117>
VStem: 40 57<402.217 491.841> 193 66<114.042 232.586> 219 57<401.492 491.643> 375 60<385.315 509.678> 435 53<140.828 265.157> 605 59<144.64 260.741> 852 57<151.622 371.17> 1065 70<159.829 346.268> 1300 64<118.319 298.958>
AnchorPoint: "+BBEENQQ3BEsEPARPBD0EPQQ+BDUA--3" 1115 -98 basechar 0
AnchorPoint: "+BBEENQQ3BEsEPARPBD0EPQQ+BDUA--2" 953 401 basechar 0
AnchorPoint: "+BBEENQQ3BEsEPARPBD0EPQQ+BDUA--1" 1138 495 basechar 0
AnchorPoint: "+BBEENQQ3BEsEPARPBD0EPQQ+BDUA--0" 1019 536 basechar 0
LayerCount: 2
Fore
SplineSet
390 -10 m 0,0,1
 342 -10 342 -10 297 3.5 c 128,-1,2
 252 17 252 17 222.5 52 c 128,-1,3
 193 87 193 87 193 149 c 0,4,5
 193 189 193 189 207.5 219 c 128,-1,6
 222 249 222 249 245 273.5 c 128,-1,7
 268 298 268 298 293 321 c 0,8,9
 325 350 325 350 350 381 c 128,-1,10
 375 412 375 412 375 459 c 0,11,12
 375 499 375 499 341.5 518 c 128,-1,13
 308 537 308 537 261 537 c 0,14,15
 236 537 236 537 215 533 c 1,16,17
 243 525 243 525 259.5 502 c 128,-1,18
 276 479 276 479 276 446 c 0,19,20
 276 387 276 387 240.5 362 c 128,-1,21
 205 337 205 337 157 337 c 0,22,23
 106 337 106 337 73 366 c 128,-1,24
 40 395 40 395 40 450 c 0,25,26
 40 489 40 489 66.5 520.5 c 128,-1,27
 93 552 93 552 141.5 570.5 c 128,-1,28
 190 589 190 589 255 589 c 0,29,30
 346 589 346 589 390.5 552.5 c 128,-1,31
 435 516 435 516 435 461 c 0,32,33
 435 424 435 424 421.5 396 c 128,-1,34
 408 368 408 368 387 345.5 c 128,-1,35
 366 323 366 323 342 301 c 0,36,37
 307 269 307 269 283 236.5 c 128,-1,38
 259 204 259 204 259 165 c 0,39,40
 259 122 259 122 295.5 103.5 c 128,-1,41
 332 85 332 85 401 85 c 0,42,43
 445 85 445 85 480 92 c 1,44,45
 435 150 435 150 435 207 c 0,46,47
 435 251 435 251 452 279 c 128,-1,48
 469 307 469 307 495 320.5 c 128,-1,49
 521 334 521 334 548 334 c 0,50,51
 604 334 604 334 634 299.5 c 128,-1,52
 664 265 664 265 664 214 c 0,53,54
 664 147 664 147 612 87 c 1,55,56
 638 82 638 82 667 82 c 0,57,58
 756 82 756 82 804 120.5 c 128,-1,59
 852 159 852 159 852 254 c 0,60,61
 852 285 852 285 847 316 c 128,-1,62
 842 347 842 347 830 383 c 2,63,-1
 814 422 l 1,64,65
 850 435 850 435 883 439.5 c 128,-1,66
 916 444 916 444 947 444 c 0,67,68
 972 444 972 444 1004 436.5 c 128,-1,69
 1036 429 1036 429 1066 409.5 c 128,-1,70
 1096 390 1096 390 1115.5 356 c 128,-1,71
 1135 322 1135 322 1135 268 c 0,72,73
 1135 204 1135 204 1106.5 145 c 128,-1,74
 1078 86 1078 86 1029 29.5 c 128,-1,75
 980 -27 980 -27 919 -82 c 1,76,77
 985 -75 985 -75 1052 -54 c 128,-1,78
 1119 -33 1119 -33 1175.5 3.5 c 128,-1,79
 1232 40 1232 40 1266 95 c 128,-1,80
 1300 150 1300 150 1300 226 c 0,81,82
 1300 243 1300 243 1298 260.5 c 128,-1,83
 1296 278 1296 278 1292 298 c 1,84,-1
 1339 306 l 1,85,86
 1349 289 1349 289 1356.5 266 c 128,-1,87
 1364 243 1364 243 1364 214 c 0,88,89
 1364 145 1364 145 1324 83 c 128,-1,90
 1284 21 1284 21 1213 -26 c 128,-1,91
 1142 -73 1142 -73 1047.5 -100 c 128,-1,92
 953 -127 953 -127 844 -127 c 1,93,-1
 844 -86 l 1,94,95
 910 -24 910 -24 960 32 c 128,-1,96
 1010 88 1010 88 1037.5 144 c 128,-1,97
 1065 200 1065 200 1065 260 c 0,98,99
 1065 317 1065 317 1043.5 346.5 c 128,-1,100
 1022 376 1022 376 990 386 c 128,-1,101
 958 396 958 396 927 396 c 0,102,103
 900 396 900 396 878 393 c 1,104,105
 909 329 909 329 909 247 c 0,106,107
 909 176 909 176 886 117.5 c 128,-1,108
 863 59 863 59 813 24.5 c 128,-1,109
 763 -10 763 -10 682 -10 c 0,110,111
 643 -10 643 -10 609 1 c 128,-1,112
 575 12 575 12 546 31 c 1,113,114
 514 12 514 12 475 1 c 128,-1,115
 436 -10 436 -10 390 -10 c 0,0,1
159 388 m 0,116,117
 187 388 187 388 203 403 c 128,-1,118
 219 418 219 418 219 449 c 0,119,120
 219 471 219 471 205 488.5 c 128,-1,121
 191 506 191 506 158 506 c 0,122,123
 132 506 132 506 114.5 490.5 c 128,-1,124
 97 475 97 475 97 449 c 0,125,126
 97 422 97 422 112 405 c 128,-1,127
 127 388 127 388 159 388 c 0,116,117
488 206 m 0,128,129
 488 175 488 175 502.5 151.5 c 128,-1,130
 517 128 517 128 542 112 c 1,131,132
 575 129 575 129 590 154.5 c 128,-1,133
 605 180 605 180 605 212 c 0,134,135
 605 241 605 241 589 258.5 c 128,-1,136
 573 276 573 276 547 276 c 0,137,138
 488 276 488 276 488 206 c 0,128,129
EndSplineSet
EndChar

StartChar: dha_vowelIdivesakuru
Encoding: 1114128 -1 61
Width: 1286
GlyphClass: 2
Flags: W
HStem: -10 92<295.552 479.376 612.506 778.985> 276 58<499.999 590.26> 337 51<110.832 205.41> 537 52<215.822 345.117> 637 52<879.779 1051.6>
VStem: 40 57<402.217 491.841> 193 66<114.042 232.586> 219 57<401.492 491.643> 375 60<385.315 509.678> 435 53<140.828 265.157> 605 59<144.64 260.741> 790 54<426.159 601.121> 852 57<150.143 365.395> 1151 60<248.519 516.921>
AnchorPoint: "+BBEENQQ3BEsEPARPBD0EPQQ+BDUA--3" 1019 -38 basechar 0
AnchorPoint: "+BBEENQQ3BEsEPARPBD0EPQQ+BDUA--2" 932 622 basechar 0
AnchorPoint: "+BBEENQQ3BEsEPARPBD0EPQQ+BDUA--0" 971 714 basechar 0
LayerCount: 2
Fore
SplineSet
1036 -12 m 1,0,-1
 1004 19 l 1,1,2
 1045 66 1045 66 1078 125 c 128,-1,3
 1111 184 1111 184 1131 251 c 128,-1,4
 1151 318 1151 318 1151 387 c 0,5,6
 1151 461 1151 461 1129.5 517 c 128,-1,7
 1108 573 1108 573 1067 605 c 128,-1,8
 1026 637 1026 637 968 637 c 0,9,10
 899 637 899 637 871.5 608 c 128,-1,11
 844 579 844 579 844 540 c 0,12,13
 844 503 844 503 852.5 470.5 c 128,-1,14
 861 438 861 438 873 406 c 0,15,16
 887 369 887 369 898 329 c 128,-1,17
 909 289 909 289 909 237 c 0,18,19
 909 171 909 171 886 114.5 c 128,-1,20
 863 58 863 58 813 24 c 128,-1,21
 763 -10 763 -10 682 -10 c 0,22,23
 643 -10 643 -10 609 1 c 128,-1,24
 575 12 575 12 546 31 c 1,25,26
 514 12 514 12 475 1 c 128,-1,27
 436 -10 436 -10 390 -10 c 0,28,29
 342 -10 342 -10 297 3.5 c 128,-1,30
 252 17 252 17 222.5 52 c 128,-1,31
 193 87 193 87 193 149 c 0,32,33
 193 189 193 189 207.5 219 c 128,-1,34
 222 249 222 249 245 273.5 c 128,-1,35
 268 298 268 298 293 321 c 0,36,37
 325 350 325 350 350 381 c 128,-1,38
 375 412 375 412 375 459 c 0,39,40
 375 499 375 499 341.5 518 c 128,-1,41
 308 537 308 537 261 537 c 0,42,43
 236 537 236 537 215 533 c 1,44,45
 243 525 243 525 259.5 502 c 128,-1,46
 276 479 276 479 276 446 c 0,47,48
 276 387 276 387 240.5 362 c 128,-1,49
 205 337 205 337 157 337 c 0,50,51
 106 337 106 337 73 366 c 128,-1,52
 40 395 40 395 40 450 c 0,53,54
 40 489 40 489 66.5 520.5 c 128,-1,55
 93 552 93 552 141.5 570.5 c 128,-1,56
 190 589 190 589 255 589 c 0,57,58
 346 589 346 589 390.5 552.5 c 128,-1,59
 435 516 435 516 435 461 c 0,60,61
 435 424 435 424 421.5 396 c 128,-1,62
 408 368 408 368 387 345.5 c 128,-1,63
 366 323 366 323 342 301 c 0,64,65
 307 269 307 269 283 236.5 c 128,-1,66
 259 204 259 204 259 165 c 0,67,68
 259 122 259 122 295.5 103.5 c 128,-1,69
 332 85 332 85 401 85 c 0,70,71
 445 85 445 85 480 92 c 1,72,73
 435 150 435 150 435 207 c 0,74,75
 435 251 435 251 452 279 c 128,-1,76
 469 307 469 307 495 320.5 c 128,-1,77
 521 334 521 334 548 334 c 0,78,79
 604 334 604 334 634 299.5 c 128,-1,80
 664 265 664 265 664 214 c 0,81,82
 664 147 664 147 612 87 c 1,83,84
 638 82 638 82 667 82 c 0,85,86
 756 82 756 82 804 119.5 c 128,-1,87
 852 157 852 157 852 245 c 0,88,89
 852 295 852 295 842 331.5 c 128,-1,90
 832 368 832 368 819 401 c 0,91,92
 807 432 807 432 798.5 463.5 c 128,-1,93
 790 495 790 495 790 535 c 0,94,95
 790 573 790 573 807.5 608.5 c 128,-1,96
 825 644 825 644 864 666.5 c 128,-1,97
 903 689 903 689 967 689 c 0,98,99
 1042 689 1042 689 1096.5 652 c 128,-1,100
 1151 615 1151 615 1181 549 c 128,-1,101
 1211 483 1211 483 1211 395 c 0,102,103
 1211 317 1211 317 1187 241 c 128,-1,104
 1163 165 1163 165 1123.5 100 c 128,-1,105
 1084 35 1084 35 1036 -12 c 1,0,-1
159 388 m 0,106,107
 187 388 187 388 203 403 c 128,-1,108
 219 418 219 418 219 449 c 0,109,110
 219 471 219 471 205 488.5 c 128,-1,111
 191 506 191 506 158 506 c 0,112,113
 132 506 132 506 114.5 490.5 c 128,-1,114
 97 475 97 475 97 449 c 0,115,116
 97 422 97 422 112 405 c 128,-1,117
 127 388 127 388 159 388 c 0,106,107
488 206 m 0,118,119
 488 175 488 175 502.5 151.5 c 128,-1,120
 517 128 517 128 542 112 c 1,121,122
 575 129 575 129 590 154.5 c 128,-1,123
 605 180 605 180 605 212 c 0,124,125
 605 241 605 241 589 258.5 c 128,-1,126
 573 276 573 276 547 276 c 0,127,128
 488 276 488 276 488 206 c 0,118,119
EndSplineSet
Ligature2: "'cjct' Conjunct Forms in 'diak' lookup 10 subtable" u1191E u11931
EndChar

StartChar: dha_vowelIIdivesakuru
Encoding: 1114129 -1 62
Width: 1424
GlyphClass: 2
Flags: W
HStem: -121 52<993.519 1040.95> -10 92<295.552 479.376 612.506 778.985> 244 51<1082.21 1194.76> 276 58<499.999 590.26> 337 51<110.832 205.41> 401 43<1085.01 1215.03> 537 52<215.822 345.117> 661 52<922.371 1152.27>
VStem: 40 57<402.217 491.841> 193 66<114.042 232.586> 219 57<401.492 491.643> 375 60<385.315 509.678> 435 53<140.828 265.157> 605 59<144.64 260.741> 790 54<417.57 591.732> 852 57<150.143 360.222> 1019 52<306.815 384.642> 1256 54<411.047 562.311> 1290 59<131.897 319.943>
AnchorPoint: "+BBEENQQ3BEsEPARPBD0EPQQ+BDUA--3" 1346 -138 basechar 0
AnchorPoint: "+BBEENQQ3BEsEPARPBD0EPQQ+BDUA--2" 1035 662 basechar 0
AnchorPoint: "+BBEENQQ3BEsEPARPBD0EPQQ+BDUA--0" 1071 714 basechar 0
LayerCount: 2
Fore
SplineSet
995 -121 m 1,0,-1
 984 -69 l 1,1,2
 1044 -49 1044 -49 1099 -21 c 128,-1,3
 1154 7 1154 7 1197 43 c 128,-1,4
 1240 79 1240 79 1265 125 c 128,-1,5
 1290 171 1290 171 1290 227 c 0,6,7
 1290 279 1290 279 1268 321 c 1,8,9
 1240 281 1240 281 1201 262.5 c 128,-1,10
 1162 244 1162 244 1126 244 c 0,11,12
 1073 244 1073 244 1046 272 c 128,-1,13
 1019 300 1019 300 1019 333 c 0,14,15
 1019 382 1019 382 1052.5 413 c 128,-1,16
 1086 444 1086 444 1138 444 c 0,17,18
 1200 444 1200 444 1251 411 c 1,19,20
 1256 437 1256 437 1256 467 c 0,21,22
 1256 560 1256 560 1197.5 610.5 c 128,-1,23
 1139 661 1139 661 1037 661 c 0,24,25
 977 661 977 661 939 646.5 c 128,-1,26
 901 632 901 632 880.5 610 c 128,-1,27
 860 588 860 588 852 564 c 128,-1,28
 844 540 844 540 844 520 c 0,29,30
 844 486 844 486 852.5 457.5 c 128,-1,31
 861 429 861 429 872 401 c 0,32,33
 886 367 886 367 897.5 328.5 c 128,-1,34
 909 290 909 290 909 237 c 0,35,36
 909 171 909 171 886 114.5 c 128,-1,37
 863 58 863 58 813 24 c 128,-1,38
 763 -10 763 -10 682 -10 c 0,39,40
 643 -10 643 -10 609 1 c 128,-1,41
 575 12 575 12 546 31 c 1,42,43
 514 12 514 12 475 1 c 128,-1,44
 436 -10 436 -10 390 -10 c 0,45,46
 342 -10 342 -10 297 3.5 c 128,-1,47
 252 17 252 17 222.5 52 c 128,-1,48
 193 87 193 87 193 149 c 0,49,50
 193 189 193 189 207.5 219 c 128,-1,51
 222 249 222 249 245 273.5 c 128,-1,52
 268 298 268 298 293 321 c 0,53,54
 325 350 325 350 350 381 c 128,-1,55
 375 412 375 412 375 459 c 0,56,57
 375 499 375 499 341.5 518 c 128,-1,58
 308 537 308 537 261 537 c 0,59,60
 236 537 236 537 215 533 c 1,61,62
 243 525 243 525 259.5 502 c 128,-1,63
 276 479 276 479 276 446 c 0,64,65
 276 387 276 387 240.5 362 c 128,-1,66
 205 337 205 337 157 337 c 0,67,68
 106 337 106 337 73 366 c 128,-1,69
 40 395 40 395 40 450 c 0,70,71
 40 489 40 489 66.5 520.5 c 128,-1,72
 93 552 93 552 141.5 570.5 c 128,-1,73
 190 589 190 589 255 589 c 0,74,75
 346 589 346 589 390.5 552.5 c 128,-1,76
 435 516 435 516 435 461 c 0,77,78
 435 424 435 424 421.5 396 c 128,-1,79
 408 368 408 368 387 345.5 c 128,-1,80
 366 323 366 323 342 301 c 0,81,82
 307 269 307 269 283 236.5 c 128,-1,83
 259 204 259 204 259 165 c 0,84,85
 259 122 259 122 295.5 103.5 c 128,-1,86
 332 85 332 85 401 85 c 0,87,88
 445 85 445 85 480 92 c 1,89,90
 435 150 435 150 435 207 c 0,91,92
 435 251 435 251 452 279 c 128,-1,93
 469 307 469 307 495 320.5 c 128,-1,94
 521 334 521 334 548 334 c 0,95,96
 604 334 604 334 634 299.5 c 128,-1,97
 664 265 664 265 664 214 c 0,98,99
 664 147 664 147 612 87 c 1,100,101
 638 82 638 82 667 82 c 0,102,103
 756 82 756 82 804 119.5 c 128,-1,104
 852 157 852 157 852 245 c 0,105,106
 852 296 852 296 842 332 c 128,-1,107
 832 368 832 368 818 398 c 0,108,109
 806 425 806 425 798 452.5 c 128,-1,110
 790 480 790 480 790 515 c 0,111,112
 790 544 790 544 801 578 c 128,-1,113
 812 612 812 612 838.5 642.5 c 128,-1,114
 865 673 865 673 912 693 c 128,-1,115
 959 713 959 713 1032 713 c 0,116,117
 1159 713 1159 713 1234.5 650.5 c 128,-1,118
 1310 588 1310 588 1310 469 c 0,119,120
 1310 441 1310 441 1306 417 c 128,-1,121
 1302 393 1302 393 1295 372 c 1,122,123
 1320 342 1320 342 1334.5 302 c 128,-1,124
 1349 262 1349 262 1349 215 c 0,125,126
 1349 126 1349 126 1303.5 55 c 128,-1,127
 1258 -16 1258 -16 1178 -61.5 c 128,-1,128
 1098 -107 1098 -107 995 -121 c 1,0,-1
159 388 m 0,129,130
 187 388 187 388 203 403 c 128,-1,131
 219 418 219 418 219 449 c 0,132,133
 219 471 219 471 205 488.5 c 128,-1,134
 191 506 191 506 158 506 c 0,135,136
 132 506 132 506 114.5 490.5 c 128,-1,137
 97 475 97 475 97 449 c 0,138,139
 97 422 97 422 112 405 c 128,-1,140
 127 388 127 388 159 388 c 0,129,130
1071 343 m 0,141,142
 1071 325 1071 325 1084.5 310 c 128,-1,143
 1098 295 1098 295 1129 295 c 0,144,145
 1157 295 1157 295 1186.5 311.5 c 128,-1,146
 1216 328 1216 328 1235 365 c 1,147,148
 1216 382 1216 382 1192 391.5 c 128,-1,149
 1168 401 1168 401 1138 401 c 0,150,151
 1100 401 1100 401 1085.5 381.5 c 128,-1,152
 1071 362 1071 362 1071 343 c 0,141,142
488 206 m 0,153,154
 488 175 488 175 502.5 151.5 c 128,-1,155
 517 128 517 128 542 112 c 1,156,157
 575 129 575 129 590 154.5 c 128,-1,158
 605 180 605 180 605 212 c 0,159,160
 605 241 605 241 589 258.5 c 128,-1,161
 573 276 573 276 547 276 c 0,162,163
 488 276 488 276 488 206 c 0,153,154
EndSplineSet
Ligature2: "'cjct' Conjunct Forms in 'diak' lookup 11 subtable" u1191E u11932
EndChar

StartChar: dha_vowelUdivesakuru
Encoding: 1114130 -1 63
Width: 1335
GlyphClass: 2
Flags: W
HStem: -235 59<1069.22 1167.44> -10 92<295.552 479.376 612.506 777.144> 276 58<499.999 590.26> 337 51<110.832 205.41> 350 57<895 1151.31> 537 52<215.822 345.117>
VStem: 40 57<402.217 491.841> 193 66<114.042 232.586> 219 57<401.492 491.643> 375 60<385.315 509.678> 435 53<140.828 265.157> 605 59<144.64 260.741> 852 57<151.622 349.227> 993 56<-154.977 225> 1185 60<-158.854 328.93>
AnchorPoint: "+BBEENQQ3BEsEPARPBD0EPQQ+BDUA--3" 1344 -273 basechar 0
AnchorPoint: "+BBEENQQ3BEsEPARPBD0EPQQ+BDUA--2" 1046 367 basechar 0
AnchorPoint: "+BBEENQQ3BEsEPARPBD0EPQQ+BDUA--0" 1092 536 basechar 0
LayerCount: 2
Fore
SplineSet
1119 -235 m 256,0,1
 1055 -235 1055 -235 1024 -189 c 128,-1,2
 993 -143 993 -143 993 -43 c 2,3,-1
 993 225 l 1,4,-1
 1049 225 l 1,5,-1
 1049 -28 l 2,6,7
 1049 -99 1049 -99 1061 -137.5 c 128,-1,8
 1073 -176 1073 -176 1119 -176 c 256,9,10
 1165 -176 1165 -176 1175 -137.5 c 128,-1,11
 1185 -99 1185 -99 1185 -28 c 2,12,-1
 1185 194 l 2,13,14
 1185 259 1185 259 1179.5 292.5 c 128,-1,15
 1174 326 1174 326 1152 338 c 128,-1,16
 1130 350 1130 350 1082 350 c 2,17,-1
 895 350 l 1,18,19
 909 303 909 303 909 247 c 0,20,21
 909 176 909 176 886 117.5 c 128,-1,22
 863 59 863 59 813 24.5 c 128,-1,23
 763 -10 763 -10 682 -10 c 0,24,25
 643 -10 643 -10 609 1 c 128,-1,26
 575 12 575 12 546 31 c 1,27,28
 514 12 514 12 475 1 c 128,-1,29
 436 -10 436 -10 390 -10 c 0,30,31
 342 -10 342 -10 297 3.5 c 128,-1,32
 252 17 252 17 222.5 52 c 128,-1,33
 193 87 193 87 193 149 c 0,34,35
 193 189 193 189 207.5 219 c 128,-1,36
 222 249 222 249 245 273.5 c 128,-1,37
 268 298 268 298 293 321 c 0,38,39
 325 350 325 350 350 381 c 128,-1,40
 375 412 375 412 375 459 c 0,41,42
 375 499 375 499 341.5 518 c 128,-1,43
 308 537 308 537 261 537 c 0,44,45
 236 537 236 537 215 533 c 1,46,47
 243 525 243 525 259.5 502 c 128,-1,48
 276 479 276 479 276 446 c 0,49,50
 276 387 276 387 240.5 362 c 128,-1,51
 205 337 205 337 157 337 c 0,52,53
 106 337 106 337 73 366 c 128,-1,54
 40 395 40 395 40 450 c 0,55,56
 40 489 40 489 66.5 520.5 c 128,-1,57
 93 552 93 552 141.5 570.5 c 128,-1,58
 190 589 190 589 255 589 c 0,59,60
 346 589 346 589 390.5 552.5 c 128,-1,61
 435 516 435 516 435 461 c 0,62,63
 435 424 435 424 421.5 396 c 128,-1,64
 408 368 408 368 387 345.5 c 128,-1,65
 366 323 366 323 342 301 c 0,66,67
 307 269 307 269 283 236.5 c 128,-1,68
 259 204 259 204 259 165 c 0,69,70
 259 122 259 122 295.5 103.5 c 128,-1,71
 332 85 332 85 401 85 c 0,72,73
 445 85 445 85 480 92 c 1,74,75
 435 150 435 150 435 207 c 0,76,77
 435 251 435 251 452 279 c 128,-1,78
 469 307 469 307 495 320.5 c 128,-1,79
 521 334 521 334 548 334 c 0,80,81
 604 334 604 334 634 299.5 c 128,-1,82
 664 265 664 265 664 214 c 0,83,84
 664 147 664 147 612 87 c 1,85,86
 638 82 638 82 667 82 c 0,87,88
 756 82 756 82 804 120.5 c 128,-1,89
 852 159 852 159 852 254 c 0,90,91
 852 285 852 285 845.5 319 c 128,-1,92
 839 353 839 353 819 407 c 1,93,-1
 1059 407 l 2,94,95
 1117 407 1117 407 1153.5 399.5 c 128,-1,96
 1190 392 1190 392 1210 372.5 c 128,-1,97
 1230 353 1230 353 1237.5 315.5 c 128,-1,98
 1245 278 1245 278 1245 218 c 2,99,-1
 1245 -43 l 2,100,101
 1245 -143 1245 -143 1214 -189 c 128,-1,102
 1183 -235 1183 -235 1119 -235 c 256,0,1
159 388 m 0,103,104
 187 388 187 388 203 403 c 128,-1,105
 219 418 219 418 219 449 c 0,106,107
 219 471 219 471 205 488.5 c 128,-1,108
 191 506 191 506 158 506 c 0,109,110
 132 506 132 506 114.5 490.5 c 128,-1,111
 97 475 97 475 97 449 c 0,112,113
 97 422 97 422 112 405 c 128,-1,114
 127 388 127 388 159 388 c 0,103,104
488 206 m 0,115,116
 488 175 488 175 502.5 151.5 c 128,-1,117
 517 128 517 128 542 112 c 1,118,119
 575 129 575 129 590 154.5 c 128,-1,120
 605 180 605 180 605 212 c 0,121,122
 605 241 605 241 589 258.5 c 128,-1,123
 573 276 573 276 547 276 c 0,124,125
 488 276 488 276 488 206 c 0,115,116
EndSplineSet
Ligature2: "'cjct' Conjunct Forms in 'diak' lookup 12 subtable" u1191E u11933
EndChar

StartChar: na_ta_medradivesakuru
Encoding: 1114131 -1 64
Width: 1582
GlyphClass: 2
Flags: W
HStem: -492 85<530.08 993.853> -271 91<782.896 1067.81> -10 56<819.742 962.044> -6 88<310.327 535.407> 52 53<262.491 278.023> 256 51<1332.3 1426.78> 314 54<939.212 1065> 493 96<155.463 316.049 496.97 663.789> 502 87<837.297 992.669>
VStem: 35 61<274.548 435.437> 379 53<346 419.843> 722 70<73.2354 162.586> 723 60<249.785 425.1> 1071 60<177.94 314> 1303 60<4.49567 217.398> 1482 60<-50.4725 192.75>
AnchorPoint: "+BBEENQQ3BEsEPARPBD0EPQQ+BDUA--3" 1239 -492 basechar 0
AnchorPoint: "+BBEENQQ3BEsEPARPBD0EPQQ+BDUA--2" 1405 264 basechar 0
AnchorPoint: "+BBEENQQ3BEsEPARPBD0EPQQ+BDUA--0" 1445 590 basechar 0
LayerCount: 2
Fore
SplineSet
431 -6 m 0,0,1
 379 -6 379 -6 330 9 c 128,-1,2
 281 24 281 24 246 52 c 1,3,-1
 265 105 l 1,4,5
 294 96 294 96 331.5 89 c 128,-1,6
 369 82 369 82 415 82 c 0,7,8
 475 82 475 82 530.5 102 c 128,-1,9
 586 122 586 122 629.5 158.5 c 128,-1,10
 673 195 673 195 698 243 c 128,-1,11
 723 291 723 291 723 348 c 0,12,13
 723 401 723 401 702.5 433 c 128,-1,14
 682 465 682 465 648.5 479 c 128,-1,15
 615 493 615 493 577 493 c 0,16,17
 530 493 530 493 499.5 473 c 128,-1,18
 469 453 469 453 453 420 c 128,-1,19
 437 387 437 387 432 346 c 1,20,-1
 379 346 l 1,21,22
 372 407 372 407 338.5 450 c 128,-1,23
 305 493 305 493 241 493 c 0,24,25
 203 493 203 493 170 479 c 128,-1,26
 137 465 137 465 116.5 434 c 128,-1,27
 96 403 96 403 96 351 c 0,28,29
 96 327 96 327 102 305 c 128,-1,30
 108 283 108 283 116 264 c 1,31,-1
 70 251 l 1,32,33
 57 271 57 271 46 300 c 128,-1,34
 35 329 35 329 35 369 c 0,35,36
 35 431 35 431 59.5 481 c 128,-1,37
 84 531 84 531 130 560 c 128,-1,38
 176 589 176 589 240 589 c 0,39,40
 288 589 288 589 321.5 567 c 128,-1,41
 355 545 355 545 375.5 510 c 128,-1,42
 396 475 396 475 405 436 c 1,43,44
 415 475 415 475 435 510 c 128,-1,45
 455 545 455 545 489.5 567 c 128,-1,46
 524 589 524 589 577 589 c 0,47,48
 636 589 636 589 679.5 564 c 128,-1,49
 723 539 723 539 749 497 c 1,50,51
 774 539 774 539 816.5 564 c 128,-1,52
 859 589 859 589 918 589 c 0,53,54
 1001 589 1001 589 1059 533 c 128,-1,55
 1117 477 1117 477 1129 368 c 1,56,57
 1185 364 1185 364 1229 343.5 c 128,-1,58
 1273 323 1273 323 1303 290 c 1,59,60
 1332 307 1332 307 1370 307 c 0,61,62
 1418 307 1418 307 1457 280 c 128,-1,63
 1496 253 1496 253 1519 202.5 c 128,-1,64
 1542 152 1542 152 1542 82 c 0,65,66
 1542 -45 1542 -45 1490 -150.5 c 128,-1,67
 1438 -256 1438 -256 1338.5 -332.5 c 128,-1,68
 1239 -409 1239 -409 1096 -450.5 c 128,-1,69
 953 -492 953 -492 771 -492 c 0,70,71
 590 -492 590 -492 447.5 -451 c 128,-1,72
 305 -410 305 -410 199 -339 c 1,73,-1
 223 -291 l 1,74,75
 333 -345 333 -345 472 -376 c 128,-1,76
 611 -407 611 -407 774 -407 c 0,77,78
 882 -407 882 -407 985 -387.5 c 128,-1,79
 1088 -368 1088 -368 1178 -328.5 c 128,-1,80
 1268 -289 1268 -289 1336.5 -230 c 128,-1,81
 1405 -171 1405 -171 1443.5 -91.5 c 128,-1,82
 1482 -12 1482 -12 1482 88 c 0,83,84
 1482 168 1482 168 1448.5 212 c 128,-1,85
 1415 256 1415 256 1364 256 c 0,86,87
 1346 256 1346 256 1332 250 c 1,88,89
 1363 195 1363 195 1363 122 c 0,90,91
 1363 42 1363 42 1337 -21.5 c 128,-1,92
 1311 -85 1311 -85 1266 -132 c 128,-1,93
 1221 -179 1221 -179 1164 -209.5 c 128,-1,94
 1107 -240 1107 -240 1044.5 -255.5 c 128,-1,95
 982 -271 982 -271 922 -271 c 0,96,97
 843 -271 843 -271 777 -247.5 c 128,-1,98
 711 -224 711 -224 676 -192 c 1,99,-1
 690 -145 l 1,100,101
 731 -161 731 -161 786 -170.5 c 128,-1,102
 841 -180 841 -180 917 -180 c 0,103,104
 964 -180 964 -180 1017 -171.5 c 128,-1,105
 1070 -163 1070 -163 1121 -143 c 128,-1,106
 1172 -123 1172 -123 1213 -88.5 c 128,-1,107
 1254 -54 1254 -54 1278.5 -2.5 c 128,-1,108
 1303 49 1303 49 1303 120 c 0,109,110
 1303 197 1303 197 1260 251.5 c 128,-1,111
 1217 306 1217 306 1131 314 c 1,112,113
 1130 215 1130 215 1096.5 142.5 c 128,-1,114
 1063 70 1063 70 1007 30 c 128,-1,115
 951 -10 951 -10 883 -10 c 256,116,117
 815 -10 815 -10 768.5 25 c 128,-1,118
 722 60 722 60 722 130 c 0,119,120
 722 147 722 147 725 163 c 1,121,122
 678 88 678 88 600.5 41 c 128,-1,123
 523 -6 523 -6 431 -6 c 0,0,1
783 365 m 0,124,125
 783 304 783 304 764 245 c 1,126,127
 806 298 806 298 885 330.5 c 128,-1,128
 964 363 964 363 1065 368 c 1,129,130
 1050 441 1050 441 1006.5 471.5 c 128,-1,131
 963 502 963 502 915 502 c 0,132,133
 878 502 878 502 851.5 488.5 c 128,-1,134
 825 475 825 475 807 455 c 128,-1,135
 789 435 789 435 779 416 c 1,136,137
 783 391 783 391 783 365 c 0,124,125
792 136 m 0,138,139
 792 92 792 92 817.5 69 c 128,-1,140
 843 46 843 46 885 46 c 0,141,142
 935 46 935 46 977.5 78 c 128,-1,143
 1020 110 1020 110 1045.5 168 c 128,-1,144
 1071 226 1071 226 1071 304 c 0,145,146
 1071 310 1071 310 1071 314 c 1,147,148
 987 310 987 310 924.5 287.5 c 128,-1,149
 862 265 862 265 827 226.5 c 128,-1,150
 792 188 792 188 792 136 c 0,138,139
EndSplineSet
Ligature2: "'psts' Post Base Substitutions in 'diak' lookup 1 subtable" u1191F tatouchdivesakuru u11927
EndChar

StartChar: na_thadivesakuru
Encoding: 1114132 -1 65
Width: 927
GlyphClass: 2
Flags: W
HStem: -10 100<504.177 743.082> 257 50<741.662 823.713> 499 87<116.839 243.114 402.88 534.345>
VStem: 25 61<320.732 468.666> 296 53<367 434.857> 557 62<346.802 476.003> 668 54<151 237.541> 834 53<144.844 246.02>
AnchorPoint: "+BBEENQQ3BEsEPARPBD0EPQQ+BDUA--6" 797 246 basechar 0
AnchorPoint: "+BBEENQQ3BEsEPARPBD0EPQQ+BDUA--3" 689 -38 basechar 0
AnchorPoint: "+BBEENQQ3BEsEPARPBD0EPQQ+BDUA--0" 715 590 basechar 0
LayerCount: 2
Fore
SplineSet
614 -10 m 0,0,1
 542 -10 542 -10 491 18.5 c 128,-1,2
 440 47 440 47 413.5 94.5 c 128,-1,3
 387 142 387 142 387 199 c 2,4,-1
 387 211 l 1,5,6
 460 260 460 260 496 297.5 c 128,-1,7
 532 335 532 335 544.5 365.5 c 128,-1,8
 557 396 557 396 557 423 c 0,9,10
 557 455 557 455 535.5 477 c 128,-1,11
 514 499 514 499 470 499 c 0,12,13
 415 499 415 499 386 459.5 c 128,-1,14
 357 420 357 420 349 367 c 1,15,-1
 296 367 l 1,16,17
 289 420 289 420 260 459.5 c 128,-1,18
 231 499 231 499 178 499 c 0,19,20
 142 499 142 499 114 475 c 128,-1,21
 86 451 86 451 86 396 c 0,22,23
 86 372 86 372 92 350 c 128,-1,24
 98 328 98 328 106 309 c 1,25,-1
 60 296 l 1,26,27
 47 316 47 316 36 349 c 128,-1,28
 25 382 25 382 25 416 c 0,29,30
 25 463 25 463 42 501.5 c 128,-1,31
 59 540 59 540 93 563 c 128,-1,32
 127 586 127 586 177 586 c 0,33,34
 218 586 218 586 247 565 c 128,-1,35
 276 544 276 544 295 512.5 c 128,-1,36
 314 481 314 481 323 447 c 1,37,38
 333 481 333 481 352.5 512.5 c 128,-1,39
 372 544 372 544 403.5 565 c 128,-1,40
 435 586 435 586 480 586 c 0,41,42
 549 586 549 586 584 547 c 128,-1,43
 619 508 619 508 619 443 c 0,44,45
 619 388 619 388 596.5 345.5 c 128,-1,46
 574 303 574 303 533.5 265.5 c 128,-1,47
 493 228 493 228 439 187 c 1,48,49
 445 146 445 146 490.5 118 c 128,-1,50
 536 90 536 90 631 90 c 0,51,52
 696 90 696 90 736 101 c 128,-1,53
 776 112 776 112 797 129.5 c 128,-1,54
 818 147 818 147 826 166.5 c 128,-1,55
 834 186 834 186 834 203 c 0,56,57
 834 228 834 228 821.5 242.5 c 128,-1,58
 809 257 809 257 787 257 c 0,59,60
 761 257 761 257 741.5 235.5 c 128,-1,61
 722 214 722 214 722 151 c 1,62,-1
 668 151 l 1,63,64
 668 209 668 209 685 243 c 128,-1,65
 702 277 702 277 729 292 c 128,-1,66
 756 307 756 307 786 307 c 0,67,68
 825 307 825 307 847 290.5 c 128,-1,69
 869 274 869 274 878 250 c 128,-1,70
 887 226 887 226 887 201 c 0,71,72
 887 151 887 151 856 102 c 128,-1,73
 825 53 825 53 764.5 21.5 c 128,-1,74
 704 -10 704 -10 614 -10 c 0,0,1
EndSplineSet
Ligature2: "'cjct' Conjunct Forms in 'diak' lookup 9 subtable" u1191F viramadivesakuru u1191C
EndChar

StartChar: na_dhadivesakuru
Encoding: 1114133 -1 66
Width: 1174
GlyphClass: 2
Flags: W
HStem: -10 95<505.434 704.156 837.822 1007.62> 276 58<724.999 814.076> 499 87<116.839 243.114 402.88 534.345>
VStem: 25 61<320.732 468.666> 296 53<367 434.857> 557 62<346.802 476.003> 660 53<140.828 265.157> 828 61<144.269 261.398> 1077 57<151.622 373.794>
AnchorPoint: "+BBEENQQ3BEsEPARPBD0EPQQ+BDUA--3" 799 -38 basechar 0
AnchorPoint: "+BBEENQQ3BEsEPARPBD0EPQQ+BDUA--0" 825 590 basechar 0
LayerCount: 2
Fore
SplineSet
614 -10 m 0,0,1
 543 -10 543 -10 492 18.5 c 128,-1,2
 441 47 441 47 414 94.5 c 128,-1,3
 387 142 387 142 387 199 c 2,4,-1
 387 211 l 1,5,6
 460 260 460 260 496 297.5 c 128,-1,7
 532 335 532 335 544.5 365.5 c 128,-1,8
 557 396 557 396 557 423 c 0,9,10
 557 455 557 455 535.5 477 c 128,-1,11
 514 499 514 499 470 499 c 0,12,13
 415 499 415 499 386 459.5 c 128,-1,14
 357 420 357 420 349 367 c 1,15,-1
 296 367 l 1,16,17
 289 420 289 420 260 459.5 c 128,-1,18
 231 499 231 499 178 499 c 0,19,20
 142 499 142 499 114 475 c 128,-1,21
 86 451 86 451 86 396 c 0,22,23
 86 372 86 372 92 350 c 128,-1,24
 98 328 98 328 106 309 c 1,25,-1
 60 296 l 1,26,27
 47 316 47 316 36 349 c 128,-1,28
 25 382 25 382 25 416 c 0,29,30
 25 463 25 463 42 501.5 c 128,-1,31
 59 540 59 540 93 563 c 128,-1,32
 127 586 127 586 177 586 c 0,33,34
 218 586 218 586 247 565 c 128,-1,35
 276 544 276 544 295 512.5 c 128,-1,36
 314 481 314 481 323 447 c 1,37,38
 333 481 333 481 352.5 512.5 c 128,-1,39
 372 544 372 544 403.5 565 c 128,-1,40
 435 586 435 586 480 586 c 0,41,42
 549 586 549 586 584 547 c 128,-1,43
 619 508 619 508 619 443 c 0,44,45
 619 388 619 388 596.5 345.5 c 128,-1,46
 574 303 574 303 533.5 265.5 c 128,-1,47
 493 228 493 228 439 187 c 1,48,49
 445 145 445 145 490.5 115 c 128,-1,50
 536 85 536 85 626 85 c 0,51,52
 670 85 670 85 705 92 c 1,53,54
 660 150 660 150 660 207 c 0,55,56
 660 251 660 251 677 279 c 128,-1,57
 694 307 694 307 720 320.5 c 128,-1,58
 746 334 746 334 773 334 c 0,59,60
 829 334 829 334 859 299.5 c 128,-1,61
 889 265 889 265 889 214 c 0,62,63
 889 147 889 147 837 87 c 1,64,65
 863 82 863 82 892 82 c 0,66,67
 981 82 981 82 1029 120.5 c 128,-1,68
 1077 159 1077 159 1077 254 c 0,69,70
 1077 314 1077 314 1059 378 c 1,71,-1
 1105 389 l 1,72,73
 1119 363 1119 363 1126.5 327 c 128,-1,74
 1134 291 1134 291 1134 247 c 0,75,76
 1134 176 1134 176 1111 117.5 c 128,-1,77
 1088 59 1088 59 1038 24.5 c 128,-1,78
 988 -10 988 -10 907 -10 c 0,79,80
 868 -10 868 -10 833.5 1.5 c 128,-1,81
 799 13 799 13 771 31 c 1,82,83
 739 12 739 12 699.5 1 c 128,-1,84
 660 -10 660 -10 614 -10 c 0,0,1
713 206 m 0,85,86
 713 175 713 175 727.5 151.5 c 128,-1,87
 742 128 742 128 767 112 c 1,88,89
 799 129 799 129 813.5 154.5 c 128,-1,90
 828 180 828 180 828 212 c 0,91,92
 828 241 828 241 813 258.5 c 128,-1,93
 798 276 798 276 772 276 c 0,94,95
 713 276 713 276 713 206 c 0,85,86
EndSplineSet
Ligature2: "'cjct' Conjunct Forms in 'diak' lookup 9 subtable" u1191F viramadivesakuru u1191E
EndChar

StartChar: na_dha_vowelIdivesakuru
Encoding: 1114134 -1 67
Width: 1511
GlyphClass: 2
Flags: W
HStem: -10 92<512.182 704.156 837.822 1003.99> 276 58<724.999 814.076> 499 87<116.839 243.114 402.88 534.345> 637 52<1104.78 1276.6>
VStem: 25 61<320.732 468.666> 296 53<367 434.857> 557 62<346.802 476.003> 660 53<140.828 265.157> 828 61<144.269 261.398> 1015 54<426.159 601.121> 1077 57<150.143 365.395> 1376 60<248.519 516.921>
AnchorPoint: "+BBEENQQ3BEsEPARPBD0EPQQ+BDUA--3" 1240 -38 basechar 0
AnchorPoint: "+BBEENQQ3BEsEPARPBD0EPQQ+BDUA--2" 1157 622 basechar 0
AnchorPoint: "+BBEENQQ3BEsEPARPBD0EPQQ+BDUA--0" 1192 714 basechar 0
LayerCount: 2
Fore
SplineSet
1261 -12 m 1,0,-1
 1229 19 l 1,1,2
 1270 66 1270 66 1303 125 c 128,-1,3
 1336 184 1336 184 1356 251 c 128,-1,4
 1376 318 1376 318 1376 387 c 0,5,6
 1376 461 1376 461 1354.5 517 c 128,-1,7
 1333 573 1333 573 1292 605 c 128,-1,8
 1251 637 1251 637 1193 637 c 0,9,10
 1124 637 1124 637 1096.5 608 c 128,-1,11
 1069 579 1069 579 1069 540 c 0,12,13
 1069 503 1069 503 1077.5 470.5 c 128,-1,14
 1086 438 1086 438 1098 406 c 0,15,16
 1112 369 1112 369 1123 329 c 128,-1,17
 1134 289 1134 289 1134 237 c 0,18,19
 1134 171 1134 171 1111 114.5 c 128,-1,20
 1088 58 1088 58 1038 24 c 128,-1,21
 988 -10 988 -10 907 -10 c 0,22,23
 868 -10 868 -10 833.5 1.5 c 128,-1,24
 799 13 799 13 771 31 c 1,25,26
 739 12 739 12 699.5 1 c 128,-1,27
 660 -10 660 -10 614 -10 c 0,28,29
 543 -10 543 -10 492 18.5 c 128,-1,30
 441 47 441 47 414 94.5 c 128,-1,31
 387 142 387 142 387 199 c 2,32,-1
 387 211 l 1,33,34
 460 260 460 260 496 297.5 c 128,-1,35
 532 335 532 335 544.5 365.5 c 128,-1,36
 557 396 557 396 557 423 c 0,37,38
 557 455 557 455 535.5 477 c 128,-1,39
 514 499 514 499 470 499 c 0,40,41
 415 499 415 499 386 459.5 c 128,-1,42
 357 420 357 420 349 367 c 1,43,-1
 296 367 l 1,44,45
 289 420 289 420 260 459.5 c 128,-1,46
 231 499 231 499 178 499 c 0,47,48
 142 499 142 499 114 475 c 128,-1,49
 86 451 86 451 86 396 c 0,50,51
 86 372 86 372 92 350 c 128,-1,52
 98 328 98 328 106 309 c 1,53,-1
 60 296 l 1,54,55
 47 316 47 316 36 349 c 128,-1,56
 25 382 25 382 25 416 c 0,57,58
 25 463 25 463 42 501.5 c 128,-1,59
 59 540 59 540 93 563 c 128,-1,60
 127 586 127 586 177 586 c 0,61,62
 218 586 218 586 247 565 c 128,-1,63
 276 544 276 544 295 512.5 c 128,-1,64
 314 481 314 481 323 447 c 1,65,66
 333 481 333 481 352.5 512.5 c 128,-1,67
 372 544 372 544 403.5 565 c 128,-1,68
 435 586 435 586 480 586 c 0,69,70
 549 586 549 586 584 547 c 128,-1,71
 619 508 619 508 619 443 c 0,72,73
 619 388 619 388 596.5 345.5 c 128,-1,74
 574 303 574 303 533.5 265.5 c 128,-1,75
 493 228 493 228 439 187 c 1,76,77
 445 145 445 145 490.5 115 c 128,-1,78
 536 85 536 85 626 85 c 0,79,80
 670 85 670 85 705 92 c 1,81,82
 660 150 660 150 660 207 c 0,83,84
 660 251 660 251 677 279 c 128,-1,85
 694 307 694 307 720 320.5 c 128,-1,86
 746 334 746 334 773 334 c 0,87,88
 829 334 829 334 859 299.5 c 128,-1,89
 889 265 889 265 889 214 c 0,90,91
 889 147 889 147 837 87 c 1,92,93
 863 82 863 82 892 82 c 0,94,95
 981 82 981 82 1029 119.5 c 128,-1,96
 1077 157 1077 157 1077 245 c 0,97,98
 1077 295 1077 295 1067 331.5 c 128,-1,99
 1057 368 1057 368 1044 401 c 0,100,101
 1032 432 1032 432 1023.5 463.5 c 128,-1,102
 1015 495 1015 495 1015 535 c 0,103,104
 1015 573 1015 573 1032.5 608.5 c 128,-1,105
 1050 644 1050 644 1089 666.5 c 128,-1,106
 1128 689 1128 689 1192 689 c 0,107,108
 1267 689 1267 689 1321.5 652 c 128,-1,109
 1376 615 1376 615 1406 549 c 128,-1,110
 1436 483 1436 483 1436 395 c 0,111,112
 1436 317 1436 317 1412 241 c 128,-1,113
 1388 165 1388 165 1348.5 100 c 128,-1,114
 1309 35 1309 35 1261 -12 c 1,0,-1
713 206 m 0,115,116
 713 175 713 175 727.5 151.5 c 128,-1,117
 742 128 742 128 767 112 c 1,118,119
 799 129 799 129 813.5 154.5 c 128,-1,120
 828 180 828 180 828 212 c 0,121,122
 828 241 828 241 813 258.5 c 128,-1,123
 798 276 798 276 772 276 c 0,124,125
 713 276 713 276 713 206 c 0,115,116
EndSplineSet
Ligature2: "'cjct' Conjunct Forms in 'diak' lookup 10 subtable" na_dhadivesakuru u11931
EndChar

